<svg width="81" height="80" viewBox="0 0 81 80" fill="none" xmlns="http://www.w3.org/2000/svg">
<g clip-path="url(#clip0_315_1431)">
<path d="M12.7148 1.5H68.7148C74.5138 1.5 79.2148 6.20101 79.2148 12V68C79.2148 73.799 74.5138 78.5 68.7148 78.5H12.7148C6.91585 78.5 2.21484 73.799 2.21484 68V12C2.21484 6.20101 6.91585 1.5 12.7148 1.5Z" stroke="url(#paint0_linear_315_1431)" stroke-width="3"/>
<path d="M44.9336 29.2188C35.2461 29.5313 26.0273 32.1875 26.0273 41.875C26.0273 48.5938 30.0898 51.875 35.5586 51.875C40.4023 51.875 43.5273 50 46.1836 47.1875C47.4336 48.9063 47.7461 49.6875 49.9336 51.4063C50.4023 51.7188 51.1836 51.7188 51.4961 51.25L56.3398 47.0313C56.9648 46.5625 56.6523 45.7813 56.3398 45.4688C55.2461 43.75 53.9961 42.5 53.9961 39.375V29.375C53.9961 25.1563 54.3086 21.25 51.1836 18.4375C48.5273 15.9375 45.2461 15.3125 41.4961 15.1563C33.2148 15 27.7461 19.5313 26.9648 24.8438C26.8086 25.7813 27.5898 26.25 28.0586 26.25L33.8398 27.0313C34.7773 27.1875 35.2461 26.4063 35.4023 25.7813C36.3398 22.3438 39.9336 21.4063 42.1211 22.1875C45.2461 23.125 44.9336 26.7188 44.9336 29.2188ZM39.3086 45.625C36.9648 45.625 35.4023 43.5938 35.4023 40.9375C35.5586 35.3125 39.9336 34.375 44.9336 34.375V37.1875C44.9336 42.1875 42.2773 45.625 39.3086 45.625Z" fill="url(#paint1_linear_315_1431)"/>
<path d="M65.5597 62.1874C67.5909 60.4687 69.6222 56.2499 69.4659 53.2812C69.4659 52.1874 69.3097 52.0312 68.2159 51.7187C66.1847 51.0937 61.0284 50.9374 58.5284 53.2812C58.0597 53.7499 58.2159 54.0624 58.6847 54.0624C60.4034 53.7499 65.7159 53.1249 66.4972 54.3749C67.1222 55.4687 65.2472 59.8437 64.6222 61.7187C64.3097 62.4999 64.9347 62.6562 65.5597 62.1874ZM9.77841 53.4374C24.7784 67.6562 48.3722 68.1249 63.6847 57.3437C64.7784 56.7187 63.6847 55.4687 62.7472 55.9374C54.3644 59.4824 45.2726 61.0313 36.1888 60.4618C27.1051 59.8924 18.2779 57.2203 10.4034 52.6562C9.77841 52.1874 9.15341 52.9687 9.77841 53.4374Z" fill="url(#paint2_linear_315_1431)"/>
</g>
<defs>
<linearGradient id="paint0_linear_315_1431" x1="0.899222" y1="-4.00139e-06" x2="92.7306" y2="62.6608" gradientUnits="userSpaceOnUse">
<stop stop-color="#F7981D"/>
<stop offset="1" stop-color="#E86E00"/>
</linearGradient>
<linearGradient id="paint1_linear_315_1431" x1="1.69921" y1="1.60079" x2="74.4992" y2="77.6008" gradientUnits="userSpaceOnUse">
<stop stop-color="#F7981D"/>
<stop offset="1" stop-color="#E86E00"/>
</linearGradient>
<linearGradient id="paint2_linear_315_1431" x1="1.69999" y1="1.60001" x2="74.5" y2="77.6" gradientUnits="userSpaceOnUse">
<stop stop-color="#F7981D"/>
<stop offset="1" stop-color="#E86E00"/>
</linearGradient>
<clipPath id="clip0_315_1431">
<rect width="80" height="80" fill="white" transform="translate(0.714844)"/>
</clipPath>
</defs>
</svg>
