<svg width="81" height="80" viewBox="0 0 81 80" fill="none" xmlns="http://www.w3.org/2000/svg">
<g clip-path="url(#clip0_315_1435)">
<path d="M12.7148 1.5H68.7148C74.5138 1.5 79.2148 6.20101 79.2148 12V68C79.2148 73.799 74.5138 78.5 68.7148 78.5H12.7148C6.91585 78.5 2.21484 73.799 2.21484 68V12C2.21484 6.20101 6.91585 1.5 12.7148 1.5Z" stroke="url(#paint0_linear_315_1435)" stroke-width="3"/>
<path d="M61.6992 50.8321C61.6992 50.8321 60.3226 54.7994 57.5694 58.9035C56.8811 60.1347 53.5772 64.786 49.585 64.786C46.6941 64.786 44.7668 62.734 41.0499 62.734C36.5071 62.734 34.7175 64.786 31.8266 64.786C30.3123 64.9228 28.798 64.102 27.1461 62.5972C16.5461 52.6105 15.9954 37.8358 19.9876 31.8164C22.4655 27.8491 26.5954 25.3867 31.1383 25.2499C34.7175 25.2499 38.572 27.5755 40.0863 27.5755C41.1876 27.5755 46.9694 24.8395 50.2733 25.1131C54.8161 25.5235 57.9823 27.1651 60.3226 30.3116C53.5772 33.5949 51.2369 46.3176 61.6992 50.8321ZM50.5486 12.8008C51.6499 17.1785 46.8317 25.5235 39.6733 25.1131C39.2603 19.2305 44.3538 13.2112 50.5486 12.8008Z" fill="url(#paint1_linear_315_1435)"/>
</g>
<defs>
<linearGradient id="paint0_linear_315_1435" x1="-22.7008" y1="-19.2" x2="74.6559" y2="113.517" gradientUnits="userSpaceOnUse">
<stop stop-color="#F2F2F2"/>
<stop offset="1" stop-color="#555555"/>
</linearGradient>
<linearGradient id="paint1_linear_315_1435" x1="4.09922" y1="2.40078" x2="78.0992" y2="80.4008" gradientUnits="userSpaceOnUse">
<stop stop-color="#555555"/>
<stop offset="1" stop-color="#F2F2F2"/>
</linearGradient>
<clipPath id="clip0_315_1435">
<rect width="80" height="80" fill="white" transform="translate(0.714844)"/>
</clipPath>
</defs>
</svg>
