<svg width="151" height="150" viewBox="0 0 151 150" fill="none" xmlns="http://www.w3.org/2000/svg">
<path d="M140.461 119.197C140.436 119.197 140.41 119.191 140.387 119.177L119.146 106.711C118.698 106.451 118.428 105.985 118.428 105.465C118.426 104.944 118.695 104.478 119.143 104.216L134.041 95.5459C134.111 95.5039 134.201 95.5287 134.241 95.5984C134.282 95.6682 134.258 95.7582 134.189 95.7987L119.291 104.469C118.933 104.677 118.72 105.049 118.72 105.464C118.721 105.879 118.936 106.251 119.293 106.458L140.535 118.923C140.605 118.965 140.628 119.055 140.587 119.124C140.56 119.172 140.511 119.197 140.461 119.197Z" fill="#DBDEE4"/>
<path d="M139.621 120.546C138.564 119.935 138.558 118.944 139.608 118.333C140.658 117.722 142.366 117.723 143.423 118.333C144.48 118.944 144.485 119.935 143.435 120.546C142.385 121.157 140.677 121.158 139.621 120.546Z" fill="white"/>
<path d="M141.529 121.147C140.812 121.147 140.094 120.989 139.547 120.673C138.987 120.349 138.678 119.91 138.678 119.435C138.676 118.965 138.981 118.528 139.534 118.206C140.622 117.572 142.399 117.572 143.496 118.205C144.055 118.529 144.364 118.968 144.364 119.442C144.365 119.913 144.061 120.349 143.508 120.671C142.963 120.989 142.246 121.147 141.529 121.147ZM141.511 118.019C140.847 118.019 140.184 118.165 139.681 118.459C139.222 118.726 138.97 119.073 138.97 119.435C138.971 119.8 139.228 120.15 139.693 120.419C140.708 121.006 142.353 121.006 143.361 120.419C143.82 120.152 144.073 119.806 144.072 119.443C144.071 119.078 143.815 118.729 143.35 118.459C142.842 118.166 142.177 118.019 141.511 118.019Z" fill="#DBDEE4"/>
<path d="M141.514 118.742C141.926 118.742 142.325 118.836 142.608 119C142.835 119.131 142.966 119.293 142.966 119.443C142.966 119.592 142.839 119.752 142.615 119.881C142.335 120.045 141.937 120.139 141.525 120.139C141.114 120.139 140.715 120.045 140.433 119.881C140.205 119.75 140.074 119.588 140.074 119.437C140.074 119.289 140.202 119.129 140.425 118.999C140.706 118.836 141.103 118.742 141.514 118.742Z" fill="#CE464A"/>
<path d="M132.213 113.439C132.655 113.439 133.083 113.54 133.387 113.716C133.632 113.857 133.772 114.031 133.772 114.192C133.772 114.351 133.635 114.523 133.395 114.663C133.093 114.838 132.666 114.939 132.225 114.939C131.783 114.939 131.355 114.838 131.051 114.662C130.806 114.521 130.666 114.347 130.666 114.186C130.666 114.027 130.803 113.855 131.043 113.715C131.344 113.54 131.771 113.439 132.213 113.439Z" fill="#373B42"/>
<path d="M27.6791 148.839C27.1346 148.839 26.5893 148.699 26.1025 148.418L6.23154 136.928C6.16104 136.888 6.13779 136.798 6.17754 136.728C6.21804 136.657 6.30879 136.634 6.3778 136.674L26.2488 148.163C27.1338 148.676 28.2326 148.673 29.1169 148.16L48.8514 136.675C48.9211 136.633 49.0111 136.657 49.0516 136.727C49.0921 136.797 49.0689 136.887 48.9991 136.927L29.2646 148.412C28.7749 148.697 28.2273 148.839 27.6791 148.839Z" fill="#DBDEE4"/>
<path d="M7.81545 135.454C8.87223 136.065 8.87823 137.056 7.82821 137.667C6.77818 138.278 5.06964 138.278 4.01286 137.667C2.95609 137.056 2.95083 136.065 4.00086 135.455C5.05089 134.843 6.75868 134.843 7.81545 135.454Z" fill="white"/>
<path d="M5.92459 138.269C5.20682 138.269 4.4883 138.111 3.94079 137.795C3.38128 137.471 3.07227 137.032 3.07227 136.558C3.07152 136.087 3.37603 135.65 3.92879 135.329C5.01857 134.695 6.79536 134.696 7.89039 135.328C8.45065 135.652 8.75966 136.091 8.76041 136.565C8.76116 137.036 8.45665 137.473 7.90389 137.795C7.35862 138.111 6.64236 138.269 5.92459 138.269ZM5.90659 135.142C5.24282 135.142 4.57905 135.288 4.07579 135.581C3.61678 135.849 3.36402 136.196 3.36477 136.558C3.36552 136.922 3.62203 137.272 4.08704 137.541C5.10107 138.128 6.74736 138.129 7.75613 137.543C8.21515 137.276 8.4679 136.928 8.46715 136.567C8.4664 136.202 8.20915 135.852 7.74338 135.583C7.23637 135.288 6.57036 135.142 5.90659 135.142Z" fill="#DBDEE4"/>
<path d="M5.92079 137.26C5.50903 137.26 5.11002 137.166 4.82726 137.002C4.6 136.871 4.4695 136.709 4.46875 136.559C4.46875 136.41 4.59625 136.25 4.81976 136.121C5.10027 135.957 5.49778 135.863 5.90954 135.863C6.3213 135.863 6.71956 135.957 7.00231 136.121C7.23032 136.252 7.36082 136.414 7.36082 136.565C7.36082 136.713 7.23332 136.873 7.00981 137.003C6.72931 137.166 6.3318 137.26 5.92079 137.26Z" fill="#CE464A"/>
<path d="M15.2234 142.564C14.7808 142.564 14.3526 142.463 14.0488 142.287C13.8043 142.146 13.6641 141.972 13.6641 141.811C13.6641 141.652 13.8013 141.48 14.0413 141.34C14.3428 141.165 14.7696 141.064 15.2114 141.064C15.6531 141.064 16.0814 141.165 16.3851 141.341C16.6296 141.482 16.7699 141.656 16.7699 141.817C16.7699 141.976 16.6326 142.148 16.3934 142.288C16.0919 142.463 15.6659 142.564 15.2234 142.564Z" fill="#373B42"/>
<path d="M77.8873 149.018C77.8371 149.018 77.7876 148.992 77.7613 148.945C77.7208 148.876 77.7441 148.786 77.8138 148.745L91.7642 140.626C91.8834 140.557 91.9539 140.433 91.9532 140.296C91.9532 140.158 91.8819 140.035 91.7634 139.966L70.7276 127.803C70.6571 127.763 70.6339 127.673 70.6736 127.603C70.7141 127.532 70.8049 127.509 70.8739 127.549L91.9097 139.712C92.1197 139.833 92.2457 140.052 92.2457 140.295C92.2464 140.538 92.1212 140.756 91.9112 140.877L77.9608 148.996C77.9376 149.011 77.9128 149.018 77.8873 149.018Z" fill="#DBDEE4"/>
<path d="M110.265 138.236C110.24 138.236 110.215 138.23 110.192 138.216L78.8058 120.069C78.7353 120.028 78.712 119.938 78.7518 119.868C78.7923 119.797 78.883 119.775 78.952 119.814L110.338 137.962C110.409 138.002 110.432 138.092 110.392 138.162C110.365 138.209 110.316 138.236 110.265 138.236Z" fill="#DBDEE4"/>
<path d="M107.812 138.548C106.755 137.937 106.749 136.946 107.799 136.335C108.849 135.724 110.558 135.725 111.615 136.335C112.671 136.946 112.677 137.937 111.627 138.548C110.577 139.159 108.869 139.16 107.812 138.548Z" fill="white"/>
<path d="M109.721 139.149C109.004 139.149 108.286 138.991 107.738 138.674C107.178 138.35 106.87 137.911 106.869 137.437C106.868 136.966 107.172 136.529 107.725 136.208C108.815 135.574 110.592 135.574 111.687 136.207C112.247 136.531 112.556 136.97 112.556 137.444C112.557 137.915 112.252 138.352 111.699 138.673C111.155 138.991 110.438 139.149 109.721 139.149ZM109.703 136.021C109.039 136.021 108.376 136.168 107.872 136.461C107.413 136.728 107.161 137.074 107.162 137.437C107.162 137.802 107.419 138.151 107.885 138.421C108.898 139.008 110.544 139.008 111.552 138.421C112.011 138.154 112.264 137.807 112.263 137.445C112.263 137.08 112.006 136.731 111.541 136.462C111.033 136.168 110.368 136.021 109.703 136.021Z" fill="#DBDEE4"/>
<path d="M109.706 136.744C110.117 136.744 110.516 136.838 110.799 137.002C111.026 137.133 111.157 137.295 111.158 137.445C111.158 137.594 111.03 137.754 110.807 137.883C110.526 138.047 110.129 138.141 109.717 138.141C109.305 138.141 108.907 138.047 108.624 137.883C108.396 137.752 108.266 137.59 108.266 137.439C108.266 137.291 108.393 137.131 108.617 137.001C108.897 136.838 109.294 136.744 109.706 136.744Z" fill="#CE464A"/>
<path d="M100.402 131.441C100.845 131.441 101.273 131.543 101.577 131.718C101.821 131.859 101.961 132.033 101.961 132.194C101.961 132.353 101.824 132.525 101.584 132.665C101.283 132.84 100.856 132.941 100.414 132.941C99.9722 132.941 99.544 132.84 99.2402 132.664C98.9957 132.523 98.8555 132.349 98.8555 132.188C98.8555 132.029 98.9927 131.857 99.232 131.717C99.5335 131.542 99.9602 131.441 100.402 131.441Z" fill="#373B42"/>
<path d="M65.6205 89.0375C65.5702 89.0375 65.5208 89.0112 65.4945 88.9647C65.454 88.895 65.4772 88.805 65.547 88.7645L90.0599 74.4984C90.5234 74.2284 91.1009 74.2269 91.5659 74.4954L116.242 88.7637C116.313 88.8042 116.336 88.8942 116.296 88.964C116.254 89.0345 116.165 89.0562 116.096 89.018L91.4196 74.7496C91.0454 74.5321 90.5796 74.5344 90.2076 74.7511L65.6947 89.0172C65.6707 89.0307 65.646 89.0375 65.6205 89.0375Z" fill="#DBDEE4"/>
<path d="M69.8457 22.5068C69.3237 22.1993 68.6022 22.2376 67.7967 22.7063L7.6459 57.4907C7.6384 57.4982 7.6309 57.4982 7.62265 57.5065C6.79388 57.9902 6.05736 58.8205 5.54285 59.7738C5.07484 60.6348 4.77558 61.5873 4.78308 62.4558V62.8938L4.90608 113.3C4.90608 114.2 5.22859 114.837 5.74235 115.137L1.28349 112.547C0.77723 112.247 0.454722 111.61 0.454722 110.703L0.324219 60.4278V59.8593C0.324219 58.9907 0.615978 58.0457 1.08399 57.1847C1.606 56.2397 2.33502 55.4019 3.14879 54.9174C3.16379 54.9099 3.17204 54.9016 3.18704 54.8941L63.346 20.109C64.1441 19.6478 64.8656 19.6095 65.3876 19.9095L69.8457 22.5068Z" fill="#BEC4CD"/>
<path d="M5.74212 115.283C5.71662 115.283 5.69187 115.277 5.66862 115.263L1.20976 112.673C0.628494 112.329 0.308237 111.629 0.308237 110.703L0.177734 59.8585C0.177734 59.0103 0.453741 58.0352 0.955503 57.115C1.51877 56.0934 2.27104 55.2684 3.07356 54.7914C3.09756 54.7764 3.10806 54.7704 3.12156 54.7637L63.2723 19.983C64.0868 19.5135 64.8638 19.4415 65.4594 19.7828L69.9092 22.3748C69.9122 22.3763 69.9152 22.3786 69.9182 22.3801L69.919 22.3809C69.919 22.3809 69.919 22.3809 69.9197 22.3809C69.9887 22.4221 70.012 22.5114 69.9715 22.5811C69.9295 22.6509 69.841 22.6741 69.7712 22.6336H69.7705L69.7622 22.6284C69.2642 22.3411 68.5914 22.4131 67.8692 22.8339L7.72217 57.616C7.71392 57.622 7.70492 57.6272 7.69817 57.631C6.9114 58.0915 6.19213 58.8768 5.67087 59.8443C5.18486 60.7376 4.9216 61.6646 4.9291 62.4559V62.8954L5.05135 113.301C5.05135 114.117 5.32211 114.724 5.81412 115.011L5.81562 115.012C5.88538 115.052 5.90863 115.142 5.86813 115.212C5.84113 115.257 5.79237 115.283 5.74212 115.283ZM64.6298 19.8615C64.2608 19.8615 63.8476 19.9875 63.4178 20.2358L3.25881 55.0202C3.23706 55.0337 3.22581 55.0404 3.21081 55.0479C2.46379 55.4934 1.74977 56.2787 1.21126 57.2545C0.733498 58.1327 0.469492 59.0575 0.469492 59.8578V60.4263L0.599994 110.702C0.599994 111.521 0.868502 112.132 1.35676 112.421L5.0146 114.545C4.8466 114.204 4.7581 113.783 4.7581 113.3L4.63585 62.4551C4.6276 61.6173 4.90435 60.6393 5.41361 59.7033C5.95963 58.6908 6.7164 57.8657 7.54442 57.3812C7.54817 57.379 7.55192 57.3767 7.55492 57.3745C7.56017 57.3707 7.56542 57.367 7.57067 57.364L67.7214 22.5796C68.1549 22.3276 68.5779 22.1888 68.9672 22.1648L65.3116 20.0348C65.1106 19.9193 64.8804 19.8615 64.6298 19.8615Z" fill="#373B42"/>
<path d="M7.62265 57.5066C6.79388 57.9903 6.05736 58.8206 5.54285 59.7739C5.07484 60.6349 4.77558 61.5874 4.78308 62.456V62.894C4.77558 62.9247 4.76808 62.963 4.75983 62.9937L0.324219 60.4264V59.8579C0.324219 58.9894 0.615978 58.0443 1.08399 57.1833C1.606 56.2383 2.33502 55.4005 3.14879 54.916L7.62265 57.5066Z" fill="#F0F2F5"/>
<g opacity="0.1">
<path d="M7.78557 123.815C6.20153 124.731 6.19253 126.22 7.76682 127.136L45.8655 149.309C47.4398 150.225 50.0056 150.225 51.5904 149.309L111.749 114.526C113.338 113.607 113.342 112.121 111.768 111.205L73.6695 89.0317C72.0952 88.1159 69.5331 88.1129 67.9446 89.0317L7.78557 123.815Z" fill="black"/>
</g>
<path d="M7.78752 114.942C6.20348 115.858 6.19448 117.347 7.76877 118.263L45.8675 140.436C47.4418 141.352 50.0076 141.352 51.5924 140.436L111.751 105.653C113.34 104.734 113.344 103.248 111.77 102.331L73.6714 80.1587C72.0971 79.2429 69.5351 79.2399 67.9465 80.1587L7.78752 114.942Z" fill="white"/>
<path d="M48.7258 141.267C47.6623 141.267 46.601 141.033 45.794 140.562L7.6953 118.389C6.88978 117.92 6.44652 117.287 6.44727 116.608C6.44877 115.924 6.89803 115.287 7.7148 114.815L67.8738 80.0306C69.4976 79.0916 72.1309 79.0909 73.745 80.0314L111.844 102.204C112.65 102.673 113.094 103.306 113.092 103.985C113.092 104.669 112.642 105.306 111.824 105.778L51.6651 140.562C50.8536 141.032 49.7894 141.267 48.7258 141.267ZM70.8131 79.6159C69.8028 79.6159 68.7918 79.8386 68.0201 80.2849L7.86105 115.069C7.13878 115.486 6.74127 116.033 6.73977 116.609C6.73902 117.18 7.13053 117.723 7.8423 118.137L45.941 140.31C47.474 141.202 49.9761 141.202 51.5181 140.309L111.677 105.525C112.4 105.108 112.798 104.56 112.799 103.985C112.801 103.415 112.408 102.872 111.695 102.458L73.5964 80.2849C72.8314 79.8386 71.8226 79.6159 70.8131 79.6159Z" fill="#373B42"/>
<path d="M52.229 95.253C51.8638 95.4645 51.8653 95.8058 52.2245 96.015L55.7384 98.0604C56.1014 98.2719 56.6864 98.2719 57.0516 98.0604L61.1745 95.676C61.5398 95.4645 61.542 95.1255 61.179 94.914L57.6652 92.8687C57.3051 92.6595 56.7171 92.6572 56.3519 92.8687L52.229 95.253Z" fill="#DBDEE4"/>
<path d="M59.7212 90.921C59.3559 91.1325 59.3575 91.4738 59.7167 91.683L63.2305 93.7283C63.5936 93.9398 64.1786 93.9398 64.5438 93.7283L68.6667 91.344C69.0319 91.1325 69.0342 90.7935 68.6712 90.582L65.1573 88.5367C64.7973 88.3274 64.2093 88.3252 63.8441 88.5367L59.7212 90.921Z" fill="#DBDEE4"/>
<path d="M74.0474 90.5675C73.6821 90.779 73.6836 91.1202 74.0429 91.3295L77.5567 93.3748C77.9197 93.5863 78.5047 93.5863 78.87 93.3748L82.9929 90.9905C83.3581 90.779 83.3604 90.44 82.9974 90.2285L79.4835 88.1832C79.1235 87.9739 78.5355 87.9717 78.1702 88.1832L74.0474 90.5675Z" fill="#DBDEE4"/>
<path d="M67.2154 86.5909C66.8501 86.8024 66.8516 87.1437 67.2108 87.3529L70.7247 89.3982C71.0877 89.6097 71.6727 89.6097 72.038 89.3982L76.1608 87.0139C76.5261 86.8024 76.5283 86.4634 76.1653 86.2519L72.6515 84.2066C72.2915 83.9974 71.7035 83.9951 71.3382 84.2066L67.2154 86.5909Z" fill="#DBDEE4"/>
<path d="M66.5552 94.8995C66.1899 95.111 66.1914 95.4523 66.5507 95.6615L70.0645 97.7068C70.4275 97.9183 71.0126 97.9183 71.3778 97.7068L75.5007 95.3225C75.8659 95.111 75.8682 94.772 75.5052 94.5605L71.9913 92.5152C71.6313 92.306 71.0433 92.3037 70.6781 92.5152L66.5552 94.8995Z" fill="#DBDEE4"/>
<path d="M65.895 103.208C65.5298 103.42 65.5313 103.761 65.8905 103.97L69.4044 106.015C69.7644 106.225 70.3524 106.227 70.7177 106.015L74.8405 103.631C75.2058 103.42 75.2043 103.078 74.845 102.869L71.3312 100.824C70.9712 100.615 70.3832 100.612 70.0179 100.824L65.895 103.208Z" fill="#DBDEE4"/>
<path d="M59.0611 99.2315C58.6958 99.443 58.6973 99.7843 59.0566 99.9936L62.5704 102.039C62.9334 102.25 63.5184 102.25 63.8837 102.039L68.0065 99.6546C68.3718 99.443 68.374 99.104 68.011 98.8925L64.4972 96.8472C64.1372 96.638 63.5492 96.6357 63.1839 96.8472L59.0611 99.2315Z" fill="#DBDEE4"/>
<path d="M22.2552 112.585C21.893 112.794 21.8915 113.137 22.2507 113.347L25.7646 115.392C26.1276 115.603 26.7164 115.601 27.0779 115.392L31.2045 113.006C31.5697 112.795 31.572 112.456 31.209 112.244L27.6951 110.199C27.3351 109.99 26.7471 109.987 26.3819 110.199L22.2552 112.585Z" fill="#DBDEE4"/>
<path d="M14.7611 116.917C14.3988 117.126 14.3973 117.469 14.7566 117.679L18.2704 119.724C18.6335 119.935 19.2222 119.933 19.5837 119.724L23.7103 117.338C24.0756 117.127 24.0778 116.788 23.7148 116.576L20.201 114.531C19.841 114.322 19.253 114.319 18.8877 114.531L14.7611 116.917Z" fill="#DBDEE4"/>
<path d="M29.0873 116.563C28.725 116.772 28.7235 117.116 29.0828 117.325L32.5966 119.37C32.9596 119.582 33.5484 119.58 33.9099 119.37L38.0365 116.985C38.4018 116.773 38.404 116.434 38.041 116.223L34.5272 114.177C34.1672 113.968 33.5791 113.966 33.2139 114.177L29.0873 116.563Z" fill="#DBDEE4"/>
<path d="M21.5951 120.893C21.2328 121.102 21.2313 121.446 21.5906 121.655L25.1044 123.701C25.4674 123.912 26.0562 123.91 26.4177 123.701L30.5443 121.315C30.9096 121.103 30.9118 120.764 30.5488 120.553L27.035 118.507C26.675 118.298 26.087 118.296 25.7217 118.507L21.5951 120.893Z" fill="#DBDEE4"/>
<path d="M29.7474 108.255C29.3852 108.464 29.3837 108.807 29.7429 109.017L33.2568 111.062C33.6198 111.273 34.2085 111.271 34.5701 111.062L38.6967 108.676C39.0619 108.465 39.0642 108.126 38.7012 107.914L35.1873 105.869C34.8273 105.659 34.2393 105.657 33.874 105.869L29.7474 108.255Z" fill="#DBDEE4"/>
<path d="M28.4271 124.872C28.0649 125.081 28.0634 125.424 28.4226 125.634L31.9365 127.679C32.2965 127.888 32.8882 127.888 33.2497 127.679L37.3763 125.293C37.7416 125.082 37.7401 124.74 37.3808 124.531L33.867 122.486C33.507 122.277 32.919 122.274 32.5537 122.486L28.4271 124.872Z" fill="#DBDEE4"/>
<path d="M35.9193 120.54C35.557 120.749 35.5555 121.092 35.9148 121.302L39.4286 123.347C39.7887 123.556 40.3804 123.556 40.7419 123.347L44.8685 120.961C45.2338 120.75 45.2323 120.408 44.873 120.199L41.3592 118.154C40.9992 117.945 40.4112 117.942 40.0459 118.154L35.9193 120.54Z" fill="#DBDEE4"/>
<path d="M43.4134 116.207C43.0512 116.416 43.0497 116.759 43.4089 116.969L46.9228 119.014C47.2828 119.223 47.8746 119.223 48.2361 119.014L67.348 107.963C67.7133 107.752 67.7118 107.41 67.3525 107.201L63.8387 105.156C63.4787 104.947 62.8907 104.944 62.5254 105.156L43.4134 116.207Z" fill="#DBDEE4"/>
<path d="M44.0736 107.899C43.7113 108.108 43.7098 108.452 44.0691 108.661L47.5829 110.706C47.946 110.918 48.5347 110.916 48.8962 110.706L53.0228 108.321C53.3881 108.109 53.3903 107.77 53.0273 107.559L49.5135 105.513C49.1535 105.304 48.5655 105.302 48.2002 105.513L44.0736 107.899Z" fill="#DBDEE4"/>
<path d="M36.5814 112.231C36.2192 112.44 36.2177 112.784 36.5769 112.993L40.0908 115.038C40.4538 115.25 41.0425 115.248 41.404 115.038L45.5306 112.653C45.8959 112.441 45.8982 112.102 45.5351 111.891L42.0213 109.845C41.6613 109.636 41.0733 109.634 40.708 109.845L36.5814 112.231Z" fill="#DBDEE4"/>
<path d="M51.5689 103.564C51.2036 103.775 51.2051 104.116 51.5644 104.326L55.0782 106.371C55.4412 106.582 56.0262 106.582 56.3915 106.371L60.5143 103.987C60.8796 103.775 60.8818 103.436 60.5188 103.225L57.005 101.179C56.645 100.97 56.057 100.968 55.6917 101.179L51.5689 103.564Z" fill="#DBDEE4"/>
<path d="M44.7368 99.5851C44.3716 99.7966 44.3731 100.138 44.7323 100.347L48.2462 102.392C48.6092 102.604 49.1942 102.604 49.5595 102.392L53.6823 100.008C54.0476 99.7966 54.0498 99.4576 53.6868 99.2461L50.173 97.2008C49.813 96.9915 49.225 96.9892 48.8597 97.2008L44.7368 99.5851Z" fill="#DBDEE4"/>
<path d="M37.2416 103.922C36.8793 104.132 36.8778 104.475 37.2371 104.685L40.7509 106.73C41.1139 106.941 41.7027 106.939 42.0642 106.73L46.1908 104.344C46.5561 104.133 46.5583 103.794 46.1953 103.582L42.6815 101.537C42.3215 101.327 41.7334 101.325 41.3682 101.537L37.2416 103.922Z" fill="#DBDEE4"/>
<path d="M80.8814 94.5441C80.5161 94.7556 80.5176 95.0968 80.8769 95.3061L84.3907 97.3514C84.7507 97.5606 85.3387 97.5629 85.704 97.3514L89.8268 94.9671C90.1921 94.7555 90.1906 94.4143 89.8313 94.205L86.3175 92.1597C85.9575 91.9505 85.3695 91.9482 85.0042 92.1597L80.8814 94.5441Z" fill="#DBDEE4"/>
<path d="M73.3872 98.8761C73.022 99.0876 73.0235 99.4288 73.3827 99.6381L76.8966 101.683C77.2566 101.893 77.8446 101.895 78.2098 101.683L82.3327 99.2991C82.698 99.0876 82.6965 98.7463 82.3372 98.5371L78.8234 96.4918C78.4634 96.2825 77.8753 96.2803 77.5101 96.4918L73.3872 98.8761Z" fill="#DBDEE4"/>
<path d="M7.64138 57.4891C6.05735 58.4049 4.77406 60.631 4.77931 62.4543L4.90457 113.298C4.90982 115.121 6.20135 115.859 7.78539 114.942L67.9444 80.1585C69.5329 79.2397 70.8117 77.0166 70.8065 75.1933L70.6812 24.3496C70.676 22.5263 69.3889 21.7867 67.8004 22.7055L7.64138 57.4891Z" fill="#373B42"/>
<path d="M6.49812 115.483C6.19887 115.483 5.92211 115.412 5.67535 115.27C5.08659 114.932 4.76108 114.231 4.75808 113.297L4.63283 62.4534C4.62758 60.5843 5.94386 58.3005 7.5684 57.3615L67.7274 22.5771C68.5442 22.1061 69.3197 22.0334 69.9107 22.3724C70.5002 22.7114 70.825 23.4127 70.828 24.3479L70.9532 75.1917C70.9585 77.0608 69.6422 79.3446 68.0177 80.2836L7.85866 115.068C7.38165 115.344 6.91888 115.483 6.49812 115.483ZM7.71465 57.6158C6.17187 58.5075 4.92083 60.6773 4.92533 62.4526L5.05059 113.296C5.05284 114.122 5.32659 114.733 5.82161 115.018C6.31887 115.303 6.99014 115.232 7.71165 114.814L67.8707 80.0301C69.4134 79.1383 70.6645 76.9678 70.66 75.1932L70.5347 24.3494C70.5325 23.5229 70.2587 22.9109 69.7645 22.6267C69.2679 22.3409 68.5959 22.4136 67.8737 22.8314L7.71465 57.6158Z" fill="#373B42"/>
<path d="M16.4355 107.577L61.8522 81.1445C62.999 81.8075 63.9252 83.4156 63.9215 84.7356L18.5048 111.168C18.5078 109.848 17.5816 108.24 16.4355 107.577Z" fill="white"/>
<path d="M18.5034 111.314C18.4779 111.314 18.4532 111.308 18.4299 111.295C18.3849 111.269 18.3564 111.22 18.3564 111.167C18.3602 109.896 17.4646 108.342 16.3606 107.703C16.3156 107.677 16.2871 107.629 16.2871 107.576C16.2871 107.525 16.3149 107.477 16.3599 107.45L61.7765 81.0181C61.8222 80.9919 61.8785 80.9911 61.9235 81.0174C63.1093 81.7036 64.0701 83.3717 64.0663 84.7367C64.0663 84.7885 64.0385 84.8365 63.9935 84.8627L18.5769 111.295C18.5544 111.308 18.5289 111.314 18.5034 111.314ZM16.7161 107.582C17.7339 108.284 18.5439 109.689 18.6399 110.919L63.773 84.6527C63.74 83.4257 62.897 81.9631 61.85 81.3144L16.7161 107.582Z" fill="#373B42"/>
<path d="M16.4345 107.576C17.5813 108.239 18.5075 109.847 18.5038 111.167L16.4277 109.967L16.4345 107.576Z" fill="white"/>
<path d="M18.5036 111.314C18.4781 111.314 18.4526 111.308 18.4301 111.295L16.3548 110.094C16.3098 110.068 16.2812 110.019 16.2812 109.966L16.2873 107.575C16.2873 107.524 16.315 107.476 16.3608 107.449C16.4065 107.423 16.4628 107.423 16.507 107.449C17.6928 108.136 18.6536 109.804 18.6498 111.169C18.6498 111.22 18.6221 111.268 18.5763 111.295C18.5538 111.308 18.5291 111.314 18.5036 111.314ZM16.5745 109.884L18.3461 110.908C18.2478 109.78 17.5098 108.499 16.5805 107.844L16.5745 109.884Z" fill="#373B42"/>
<path d="M6.49874 111.444C6.22273 111.444 6.20023 110.874 6.19948 110.699L6.07423 62.4489C6.07048 61.0892 7.1055 59.2951 8.28903 58.6103L68.448 23.8267C68.793 23.6272 69.0121 23.6055 69.0901 23.6055C69.3706 23.6055 69.3863 24.2265 69.3871 24.351L69.5116 72.6012C69.5153 73.9617 68.4803 75.755 67.2968 76.439L7.13775 111.223C6.795 111.422 6.57674 111.444 6.49874 111.444Z" fill="white"/>
<path d="M6.49851 111.59C6.2135 111.59 6.05525 111.274 6.053 110.7L5.92774 62.4495C5.92399 61.0439 6.99352 59.1906 8.21605 58.4834L68.3751 23.6997C68.7373 23.4905 68.9788 23.459 69.0898 23.459C69.3703 23.459 69.5286 23.7755 69.5331 24.35L69.6568 72.6002C69.6606 74.0057 68.5918 75.859 67.3693 76.5663L7.21028 111.35C6.85027 111.559 6.60951 111.59 6.49851 111.59ZM69.0898 23.7522C69.0381 23.7522 68.8446 23.7665 68.5213 23.954L8.36231 58.7376C7.21778 59.3999 6.21725 61.1339 6.22025 62.4487L6.34551 110.699C6.34701 111.084 6.43626 111.298 6.49776 111.298C6.54951 111.298 6.74152 111.284 7.06402 111.097L67.223 76.3136C68.3676 75.6513 69.3681 73.918 69.3643 72.6025L69.2406 24.3523C69.2376 23.966 69.1498 23.7522 69.0898 23.7522Z" fill="#373B42"/>
<path d="M69.5138 72.6042C69.5138 73.9625 68.481 75.7588 67.299 76.4383L7.13776 111.225C6.79351 111.421 6.5775 111.446 6.50025 111.446C6.22274 111.446 6.19724 110.875 6.19724 110.7L6.08924 67.2948L6.07424 62.4474C6.06899 61.0892 7.10701 59.2929 8.28904 58.6088L68.4503 23.8267C68.7946 23.6257 69.0106 23.6055 69.0871 23.6055C69.3698 23.6055 69.3848 24.228 69.3848 24.3517L69.4051 30.6864L69.5138 72.6042Z" fill="white"/>
<path d="M6.50077 111.592C6.09576 111.592 6.05151 110.968 6.05151 110.7L5.92775 62.448C5.9225 61.0432 6.99128 59.1899 8.21606 58.4811L68.3773 23.6997C68.7366 23.4905 68.9766 23.459 69.0876 23.459C69.4888 23.459 69.5323 24.083 69.5323 24.3515L69.5526 30.6862L69.6598 72.604C69.6598 72.6047 69.6598 72.6047 69.6598 72.6047C69.6598 74.014 68.5911 75.865 67.3723 76.5648L7.21104 111.351C6.82778 111.569 6.58627 111.592 6.50077 111.592ZM69.0876 23.7515C69.0366 23.7515 68.8446 23.7657 68.5243 23.9525L8.36232 58.7354C7.21629 59.3984 6.21501 61.1324 6.22026 62.4472L6.23601 67.2946L6.34402 110.7C6.34402 111.054 6.42652 111.3 6.50077 111.3C6.53527 111.3 6.72578 111.291 7.06628 111.097L67.226 76.3106C68.3668 75.655 69.3673 73.9232 69.3673 72.6047L69.2391 24.3515C69.2391 24.0132 69.1573 23.7515 69.0876 23.7515Z" fill="#373B42"/>
<path d="M5.74212 115.283C5.71662 115.283 5.69187 115.277 5.66862 115.263L1.20976 112.673C0.628494 112.329 0.308237 111.629 0.308237 110.703L0.177734 59.8585C0.177734 59.0103 0.453741 58.0352 0.955503 57.115C1.51877 56.0934 2.27104 55.2684 3.07356 54.7914C3.09756 54.7764 3.10806 54.7704 3.12156 54.7637L63.2723 19.983C64.0868 19.5135 64.8638 19.4415 65.4594 19.7828L69.9092 22.3748C69.9122 22.3763 69.9152 22.3786 69.9182 22.3801L69.919 22.3809C69.919 22.3809 69.919 22.3809 69.9197 22.3809C69.9887 22.4221 70.012 22.5114 69.9715 22.5811C69.9295 22.6509 69.841 22.6741 69.7712 22.6336H69.7705L69.7622 22.6284C69.2642 22.3411 68.5914 22.4131 67.8692 22.8339L7.72217 57.616C7.71392 57.622 7.70492 57.6272 7.69817 57.631C6.9114 58.0915 6.19213 58.8768 5.67087 59.8443C5.18486 60.7376 4.9216 61.6646 4.9291 62.4559V62.8954L5.05135 113.301C5.05135 114.117 5.32211 114.724 5.81412 115.011L5.81562 115.012C5.88538 115.052 5.90863 115.142 5.86813 115.212C5.84113 115.257 5.79237 115.283 5.74212 115.283ZM64.6298 19.8615C64.2608 19.8615 63.8476 19.9875 63.4178 20.2358L3.25881 55.0202C3.23706 55.0337 3.22581 55.0404 3.21081 55.0479C2.46379 55.4934 1.74977 56.2787 1.21126 57.2545C0.733498 58.1327 0.469492 59.0575 0.469492 59.8578V60.4263L0.599994 110.702C0.599994 111.521 0.868502 112.132 1.35676 112.421L5.0146 114.545C4.8466 114.204 4.7581 113.783 4.7581 113.3L4.63585 62.4551C4.6276 61.6173 4.90435 60.6393 5.41361 59.7033C5.95963 58.6908 6.7164 57.8657 7.54442 57.3812C7.54817 57.379 7.55192 57.3767 7.55492 57.3745C7.56017 57.3707 7.56542 57.367 7.57067 57.364L67.7214 22.5796C68.1549 22.3276 68.5779 22.1888 68.9672 22.1648L65.3116 20.0348C65.1106 19.9193 64.8804 19.8615 64.6298 19.8615Z" fill="#373B42"/>
<path d="M4.78789 69.8533C4.76239 69.8533 4.73689 69.8473 4.71439 69.8331L0.254032 67.2268C0.18428 67.1863 0.161029 67.0963 0.20153 67.0265C0.242031 66.9553 0.332784 66.932 0.401786 66.974L4.86215 69.5803C4.9319 69.6208 4.95515 69.7108 4.91465 69.7806C4.8869 69.8271 4.83815 69.8533 4.78789 69.8533Z" fill="#373B42"/>
<path d="M4.89397 109.889C4.86847 109.889 4.84372 109.883 4.82047 109.869L0.365359 107.281C0.295608 107.241 0.272357 107.151 0.312858 107.081C0.352609 107.011 0.442611 106.986 0.513113 107.028L4.96822 109.616C5.03798 109.656 5.06123 109.746 5.02073 109.816C4.99373 109.863 4.94422 109.889 4.89397 109.889Z" fill="#373B42"/>
<path d="M56.4824 118.608C55.4272 119.218 55.4219 120.207 56.4704 120.816L65.8749 126.29C66.9227 126.9 68.626 126.9 69.6813 126.29L87.3007 116.103C88.3612 115.489 88.3672 114.501 87.3187 113.892L77.9142 108.418C76.8664 107.808 75.1632 107.808 74.1026 108.421L56.4824 118.608Z" fill="#DBDEE4"/>
<path d="M112.965 109.645C112.972 110.248 112.576 110.851 111.774 111.311L51.6135 146.097C51.3607 146.247 51.0825 146.363 50.7915 146.46C50.1247 146.687 49.3672 146.791 48.6096 146.778H48.6029C47.8776 146.766 47.1659 146.642 46.5441 146.409C46.3108 146.318 46.0911 146.214 45.8901 146.097L7.79437 123.929C7.01135 123.469 6.61609 122.872 6.61609 122.269L6.58984 116.616C6.59659 117.206 6.99111 117.802 7.76812 118.263L45.8638 140.431C46.0708 140.554 46.2981 140.658 46.5433 140.749C47.1651 140.982 47.8836 141.106 48.6021 141.119V141.112C49.3597 141.125 50.1239 141.021 50.7907 140.788C51.0757 140.69 51.3472 140.574 51.5932 140.431L111.754 105.645C112.543 105.191 112.945 104.575 112.945 103.979L112.965 109.645Z" fill="#BEC4CD"/>
<path d="M9.94899 125.328C9.86874 125.328 9.80273 125.262 9.80273 125.182V119.535C9.80273 119.455 9.86874 119.389 9.94899 119.389C10.0292 119.389 10.0952 119.455 10.0952 119.535V125.182C10.0952 125.262 10.03 125.328 9.94899 125.328Z" fill="#373B42"/>
<path d="M54.0603 144.83C53.9801 144.83 53.9141 144.764 53.9141 144.684V139.004C53.9141 138.923 53.9801 138.857 54.0603 138.857C54.1406 138.857 54.2066 138.923 54.2066 139.004V144.684C54.2073 144.764 54.1413 144.83 54.0603 144.83Z" fill="#373B42"/>
<path d="M108.582 113.305C108.502 113.305 108.436 113.239 108.436 113.159V107.478C108.436 107.398 108.502 107.332 108.582 107.332C108.662 107.332 108.728 107.398 108.728 107.478V113.159C108.728 113.24 108.662 113.305 108.582 113.305Z" fill="#373B42"/>
<path d="M50.7903 140.787V146.46C50.1236 146.687 49.366 146.791 48.6085 146.778H48.6018C47.8765 146.765 47.1647 146.642 46.543 146.408V140.748C47.1647 140.981 47.8833 141.105 48.6018 141.118V141.111C49.36 141.125 50.1236 141.021 50.7903 140.787Z" fill="#DBDEE4"/>
<path d="M48.7437 146.926C48.6979 146.926 48.6522 146.925 48.6057 146.924C47.5376 146.904 46.5499 146.654 45.8148 146.224L7.7199 124.056C6.91288 123.582 6.46887 122.947 6.46887 122.269L6.44337 116.618C6.44337 116.617 6.44337 116.617 6.44337 116.617V116.615C6.44262 116.534 6.49887 116.468 6.58962 116.468C6.66987 116.468 6.73512 116.533 6.73587 116.613C6.73587 116.614 6.73587 116.614 6.73587 116.615C6.74187 117.177 7.13563 117.717 7.84215 118.136L45.9371 140.305C46.6339 140.71 47.5654 140.946 48.5644 140.971C48.5772 140.968 48.5787 140.965 48.6049 140.965C49.7089 140.981 50.75 140.751 51.5202 140.304L111.68 105.518C112.391 105.109 112.799 104.548 112.799 103.978C112.799 103.898 112.864 103.832 112.945 103.832C113.026 103.832 113.092 103.897 113.092 103.978L113.11 109.645C113.118 110.33 112.669 110.967 111.845 111.439L51.6852 146.225C50.9075 146.678 49.8672 146.926 48.7437 146.926ZM6.74037 117.53L6.76212 122.269C6.76212 122.84 7.15513 123.384 7.86915 123.804L45.9641 145.972C46.6564 146.378 47.5946 146.612 48.6057 146.633C49.7434 146.643 50.7755 146.418 51.5397 145.972L111.7 111.185C112.428 110.768 112.825 110.223 112.819 109.648C112.819 109.647 112.819 109.647 112.819 109.646L112.803 104.895C112.588 105.225 112.256 105.526 111.828 105.772L51.668 140.558C50.8617 141.025 49.7787 141.271 48.6424 141.259C48.6289 141.263 48.6124 141.268 48.6004 141.265C47.5376 141.244 46.5401 140.992 45.7908 140.557L7.69515 118.388C7.27439 118.139 6.95188 117.848 6.74037 117.53Z" fill="#373B42"/>
<path d="M14.1904 123.375C14.3246 123.453 14.4349 123.644 14.4341 123.801L14.4304 125.483C14.4296 125.64 14.3194 125.701 14.1844 125.623L13.9901 125.51L13.9894 125.974C13.9886 126.131 13.8784 126.194 13.7433 126.116L12.5853 125.447C12.4511 125.369 12.3408 125.178 12.3416 125.021L12.3423 124.557L12.1481 124.445C12.0138 124.367 11.9036 124.178 11.9043 124.022L11.9081 122.34C11.9088 122.182 12.0191 122.119 12.1541 122.197L14.1904 123.375Z" fill="#373B42"/>
<path d="M64.1207 24.9809C64.0952 24.9809 64.0704 24.9749 64.0472 24.9606L59.5861 22.3671C59.5163 22.3266 59.4931 22.2373 59.5336 22.1668C59.5733 22.0971 59.6626 22.0723 59.7338 22.1143L64.1949 24.7079C64.2647 24.7484 64.2879 24.8376 64.2474 24.9081C64.2204 24.9546 64.1709 24.9809 64.1207 24.9809Z" fill="#373B42"/>
<g opacity="0.1">
<path d="M104.551 89.1727L140.558 109.968C141.296 110.394 142.205 110.393 142.942 109.964L148.905 106.497C149.859 105.942 149.857 104.561 148.901 104.009L112.433 82.9348C111.987 82.6776 111.437 82.6776 110.992 82.9371L104.545 86.6849C103.592 87.2392 103.594 88.62 104.551 89.1727Z" fill="black"/>
</g>
<path d="M110.753 0.365042C111.343 0.0245339 112.169 0.073284 113.074 0.598297L146.914 20.1528C147.459 20.4678 147.972 20.9148 148.421 21.4481C148.715 21.7886 148.984 22.1703 149.214 22.5693C149.445 22.9684 149.64 23.3824 149.794 23.8091C150.039 24.4766 150.176 25.1577 150.17 25.7959L149.958 100.579C149.959 101.615 149.596 102.341 149.01 102.679L142.192 106.64C142.782 106.299 143.149 105.571 143.146 104.541L143.363 29.7553C143.368 29.1065 143.229 28.4217 142.975 27.7482C142.821 27.3215 142.622 26.9105 142.392 26.5114C142.161 26.1124 141.894 25.7344 141.598 25.3902C141.152 24.8607 140.641 24.4174 140.102 24.1046L106.267 4.5584C105.351 4.03413 104.536 3.98388 103.934 4.33189L110.753 0.365042Z" fill="#BEC4CD"/>
<path d="M141.598 25.3913L148.421 21.4492C148.715 21.7897 148.985 22.1715 149.215 22.5705C149.445 22.9695 149.64 23.3835 149.795 23.8103L142.975 27.7494C142.821 27.3226 142.621 26.9116 142.391 26.5126C142.161 26.1136 141.894 25.7356 141.598 25.3913Z" fill="#F0F2F5"/>
<path d="M142.193 106.788C142.142 106.788 142.093 106.762 142.067 106.715C142.026 106.645 142.049 106.556 142.119 106.515L142.127 106.511C142.693 106.179 143.003 105.481 143.001 104.541L143.215 29.7566C143.22 28.7711 142.882 27.6453 142.266 26.5855C141.667 25.5565 140.873 24.7217 140.029 24.2342L106.19 4.68573C105.356 4.20722 104.579 4.12546 104.005 4.45772C103.937 4.49747 103.845 4.47347 103.805 4.40372C103.765 4.33397 103.788 4.24472 103.858 4.20422L110.678 0.240367C111.35 -0.146642 112.226 -0.0641393 113.15 0.472124L146.989 20.0244C147.879 20.5419 148.715 21.4194 149.341 22.4964C149.977 23.5899 150.325 24.763 150.32 25.798L150.105 100.581C150.105 101.635 149.742 102.425 149.082 102.806L142.274 106.763C142.272 106.765 142.27 106.766 142.267 106.767C142.266 106.767 142.266 106.768 142.266 106.768C142.243 106.781 142.218 106.788 142.193 106.788ZM104.852 3.96496C105.313 3.97846 105.817 4.13446 106.337 4.43222L140.175 23.9807C141.063 24.4937 141.895 25.366 142.519 26.4385C143.162 27.5426 143.513 28.7216 143.508 29.7581L143.294 104.542C143.295 105.121 143.186 105.622 142.975 106.019L148.935 102.554C149.502 102.227 149.813 101.527 149.813 100.582L150.027 25.798C150.032 24.814 149.699 23.6935 149.089 22.6449C148.488 21.6107 147.69 20.7714 146.843 20.2786L113.004 0.726379C112.175 0.244117 111.401 0.160865 110.825 0.494624L104.852 3.96496Z" fill="#373B42"/>
<path d="M108.386 5.93185C108.336 5.93185 108.286 5.9056 108.259 5.85835C108.22 5.7886 108.244 5.69859 108.313 5.65809L115.146 1.71074C115.214 1.67099 115.305 1.69424 115.346 1.76474C115.386 1.8345 115.362 1.9245 115.292 1.965L108.46 5.91235C108.437 5.9251 108.412 5.93185 108.386 5.93185Z" fill="#373B42"/>
<path d="M146.611 38.7358C146.898 38.5753 147.159 38.555 147.346 38.663L148.039 39.0606C147.847 38.9556 147.592 38.9728 147.304 39.1333C146.73 39.4648 146.266 40.2718 146.263 40.9371L146.264 46.7475C146.267 47.0865 146.384 47.319 146.573 47.4308L145.88 47.0333C145.691 46.9215 145.573 46.6882 145.571 46.35L145.57 40.5396C145.573 39.8743 146.037 39.0673 146.611 38.7358Z" fill="#373B42"/>
<path d="M146.573 47.5768C146.548 47.5768 146.523 47.5708 146.5 47.5573L145.807 47.1598C145.563 47.0151 145.427 46.7286 145.424 46.3506V40.5394C145.425 39.8164 145.914 38.9689 146.537 38.6089C146.538 38.6089 146.538 38.6081 146.538 38.6074C146.869 38.4244 147.18 38.3996 147.418 38.5361L148.11 38.9336C148.18 38.9734 148.205 39.0619 148.165 39.1316C148.126 39.2029 148.039 39.2284 147.967 39.1879C147.817 39.1046 147.606 39.1309 147.375 39.2606C146.845 39.5666 146.412 40.3189 146.409 40.9369L146.41 46.7466C146.412 47.0166 146.497 47.2146 146.647 47.3046C146.716 47.3451 146.739 47.4343 146.699 47.5041C146.673 47.5506 146.623 47.5768 146.573 47.5768ZM146.682 38.8639C146.151 39.1714 145.719 39.9229 145.717 40.5402V46.3498C145.719 46.6198 145.804 46.8178 145.955 46.9078L146.145 47.0166C146.128 46.9333 146.118 46.8441 146.118 46.7488L146.117 40.9377C146.119 40.2147 146.608 39.3671 147.231 39.0071C147.31 38.9629 147.389 38.9276 147.466 38.9021L147.273 38.7911C147.13 38.7086 146.913 38.7349 146.682 38.8639Z" fill="#373B42"/>
<path d="M146.266 40.9335C146.266 40.2667 146.732 39.4605 147.307 39.1305C147.882 38.8005 148.347 39.0727 148.347 39.7395L148.346 45.5514C148.346 46.2181 147.88 47.0244 147.306 47.3544C146.731 47.6844 146.266 47.4122 146.266 46.7454L146.266 40.9335Z" fill="white"/>
<path d="M146.844 47.6416C146.72 47.6416 146.604 47.6116 146.499 47.5516C146.254 47.4098 146.119 47.1233 146.119 46.7453L146.12 40.9334C146.12 40.2097 146.609 39.3621 147.234 39.0036C147.558 38.8176 147.87 38.7936 148.114 38.9331C148.359 39.0749 148.494 39.3614 148.494 39.7394L148.493 45.5513C148.493 46.2751 148.004 47.1226 147.378 47.4811C147.194 47.5876 147.012 47.6416 146.844 47.6416ZM147.768 39.1364C147.653 39.1364 147.521 39.1769 147.38 39.2579C146.847 39.5639 146.412 40.3162 146.412 40.9342L146.412 46.7461C146.412 47.0153 146.494 47.2118 146.646 47.2988C146.795 47.3851 147.004 47.3596 147.233 47.2276C147.767 46.9216 148.2 46.1693 148.2 45.5513L148.201 39.7394C148.201 39.4701 148.119 39.2744 147.968 39.1874C147.91 39.1529 147.843 39.1364 147.768 39.1364Z" fill="#373B42"/>
<path d="M145.525 71.5623C145.525 70.8401 146.03 69.9648 146.653 69.607C147.276 69.2493 147.781 69.5448 147.781 70.2671L147.779 84.3007C147.779 85.0229 147.275 85.8982 146.651 86.256C146.028 86.6137 145.523 86.3182 145.523 85.5959L145.525 71.5623Z" fill="#F0F2F5"/>
<path d="M146.154 71.2149C146.154 71.5284 146.376 71.6536 146.646 71.4984C146.92 71.3409 147.138 70.9636 147.138 70.6501C147.138 70.3284 146.921 70.2008 146.646 70.3583C146.376 70.5136 146.154 70.8931 146.154 71.2149Z" fill="#373B42"/>
<path d="M139.863 106.416C141.671 107.46 143.138 106.624 143.144 104.546L143.357 29.7627C143.363 27.6844 141.905 25.1575 140.098 24.1135L106.26 4.56277C104.452 3.51875 102.985 4.35502 102.979 6.43332L102.766 81.2162C102.76 83.2945 104.218 85.8213 106.025 86.8653L139.863 106.416Z" fill="#373B42"/>
<path d="M141.332 107.014C140.856 107.014 140.331 106.856 139.79 106.543L105.951 86.9925C104.108 85.9275 102.613 83.3362 102.619 81.2159L102.834 6.43376C102.837 5.37773 103.203 4.58571 103.866 4.2047C104.535 3.82069 105.411 3.90394 106.333 4.43721L140.172 23.9872C142.016 25.053 143.511 27.6443 143.504 29.7638L143.29 104.546C143.287 105.602 142.921 106.394 142.258 106.776C141.981 106.935 141.669 107.014 141.332 107.014ZM104.792 4.2587C104.505 4.2587 104.243 4.32471 104.012 4.45746C103.443 4.78447 103.128 5.48648 103.126 6.43451L102.912 81.2166C102.906 83.2432 104.336 85.7205 106.098 86.7383L139.936 106.289C140.765 106.768 141.538 106.852 142.111 106.521C142.681 106.194 142.995 105.492 142.998 104.544L143.212 29.7623C143.218 27.7358 141.788 25.2592 140.026 24.2407L106.187 4.69071C105.691 4.40421 105.216 4.2587 104.792 4.2587Z" fill="#373B42"/>
<path d="M104.253 4.87651C103.849 5.10977 103.614 5.67828 103.612 6.4328L103.398 81.2157C103.395 82.1112 103.702 83.1395 104.264 84.113C104.823 85.0828 105.562 85.8658 106.343 86.3188L140.181 105.868C140.845 106.253 141.462 106.338 141.874 106.1C142.278 105.867 142.513 105.298 142.516 104.543L142.729 29.7606C142.732 28.8651 142.426 27.8368 141.864 26.8633C141.304 25.8935 140.566 25.1105 139.785 24.6575L105.946 5.10902C105.283 4.72426 104.665 4.63876 104.253 4.87651Z" fill="white"/>
<path d="M141.334 106.38C140.968 106.38 140.544 106.251 140.105 105.997L106.267 86.4473C105.463 85.9815 104.707 85.179 104.135 84.1882C103.562 83.1945 103.247 82.1392 103.25 81.2166L103.465 6.43378C103.466 5.62526 103.727 5.0125 104.179 4.75074C104.638 4.48673 105.308 4.57149 106.018 4.9825L139.856 24.5317C140.659 24.9975 141.416 25.7993 141.989 26.7915C142.562 27.7853 142.877 28.8406 142.874 29.7624L142.66 104.545C142.658 105.353 142.397 105.967 141.945 106.228C141.769 106.33 141.563 106.38 141.334 106.38ZM104.326 5.00425C103.967 5.212 103.76 5.73327 103.758 6.43453L103.543 81.2174C103.54 82.0889 103.841 83.091 104.389 84.0412C104.935 84.9885 105.655 85.7528 106.414 86.1938L140.252 105.742C140.87 106.1 141.433 106.185 141.799 105.974C142.158 105.766 142.365 105.245 142.367 104.544L142.582 29.7609C142.585 28.8901 142.284 27.8873 141.736 26.9378C141.189 25.9898 140.47 25.2255 139.711 24.7852L105.873 5.23675C105.253 4.87824 104.689 4.79424 104.326 5.00425Z" fill="#373B42"/>
<path d="M130.792 23.4065C130.289 23.12 117.539 15.7998 116.948 15.46C116.003 14.917 115.234 13.5842 115.232 12.493L115.235 10.5039C115.826 10.8437 131.831 20.0321 132.505 20.4192V22.4075C132.505 23.5002 131.737 23.9502 130.792 23.4065Z" fill="#373B42"/>
<path d="M131.552 23.7852C131.293 23.7852 131.01 23.7012 130.72 23.5339C130.217 23.2467 117.468 15.9272 116.876 15.5875C115.891 15.0212 115.089 13.6329 115.088 12.4929L115.089 10.5039C115.089 10.4514 115.117 10.4034 115.163 10.3771C115.207 10.3509 115.264 10.3509 115.308 10.3771C115.9 10.7169 131.905 19.9053 132.578 20.2924C132.624 20.3186 132.652 20.3666 132.652 20.4191L132.653 22.4067C132.652 22.9917 132.446 23.4327 132.074 23.6487C131.918 23.7402 131.741 23.7852 131.552 23.7852ZM115.383 10.7574L115.381 12.4937C115.383 13.5407 116.118 14.8142 117.023 15.334C117.613 15.6737 130.364 22.9932 130.865 23.2804C130.865 23.2804 130.865 23.2804 130.866 23.2804C131.273 23.5144 131.651 23.5557 131.927 23.3959C132.206 23.2347 132.36 22.8837 132.361 22.4074L132.36 20.5046C131.082 19.7711 117.355 11.8899 115.383 10.7574Z" fill="#373B42"/>
<path d="M119.257 15.2493C119.061 14.9096 118.953 14.5488 118.953 14.2338C118.953 13.9503 119.039 13.7441 119.195 13.6533C119.35 13.564 119.567 13.591 119.807 13.7283L130.533 19.886C130.806 20.0427 131.064 20.3165 131.261 20.657C131.458 20.9982 131.566 21.3612 131.566 21.6785C131.566 21.959 131.481 22.163 131.325 22.253C131.171 22.343 130.953 22.316 130.711 22.1773L119.984 16.0204C119.712 15.8644 119.453 15.5906 119.257 15.2493Z" fill="white"/>
<path d="M116.476 13.6548C116.28 13.315 116.172 12.955 116.172 12.64C116.172 12.3565 116.258 12.1503 116.414 12.0595C116.569 11.9703 116.786 11.9973 117.028 12.1353C117.3 12.292 117.559 12.5658 117.755 12.9063C117.952 13.2475 118.061 13.6105 118.06 13.9278C118.06 14.2076 117.975 14.4116 117.82 14.5023C117.665 14.5923 117.446 14.5653 117.205 14.4266C116.932 14.2698 116.672 13.9953 116.476 13.6548Z" fill="white"/>
<path d="M116.735 13.5032C116.619 13.3014 116.555 13.0869 116.555 12.8994C116.555 12.7306 116.606 12.6084 116.699 12.5544C116.79 12.5011 116.92 12.5169 117.063 12.5994C117.225 12.6924 117.379 12.8551 117.496 13.0577C117.613 13.2609 117.677 13.4762 117.677 13.6652C117.677 13.8317 117.626 13.9532 117.534 14.0064C117.442 14.0597 117.312 14.0439 117.169 13.9614C117.006 13.8692 116.852 13.7057 116.735 13.5032Z" fill="#CE464A"/>
<path d="M115.294 7.45755C114.599 7.05629 114.605 6.40527 115.295 6.00476C115.994 5.59825 117.107 5.59825 117.802 5.99951C118.515 6.41127 118.518 7.05704 117.819 7.4628C117.129 7.86406 116.006 7.86931 115.294 7.45755Z" fill="#373B42"/>
<path d="M143.347 34.7577C143.297 34.7577 143.247 34.7315 143.22 34.6842C143.181 34.6145 143.205 34.5245 143.274 34.484L150.087 30.5486C150.155 30.5089 150.245 30.5321 150.287 30.6026C150.327 30.6724 150.303 30.7624 150.233 30.8029L143.421 34.7382C143.397 34.7517 143.373 34.7577 143.347 34.7577Z" fill="#373B42"/>
<path d="M143.16 100.298C143.109 100.298 143.06 100.272 143.033 100.225C142.993 100.155 143.017 100.065 143.087 100.024L149.899 96.0898C149.967 96.0501 150.058 96.0726 150.099 96.1438C150.139 96.2136 150.115 96.3036 150.045 96.3441L143.233 100.279C143.21 100.292 143.185 100.298 143.16 100.298Z" fill="#373B42"/>
<path d="M122.251 40.0256C124.402 41.2676 126.145 44.2842 126.138 46.7615C126.131 49.2381 124.376 50.2341 122.225 48.9921C120.07 47.7478 118.331 44.7335 118.338 42.2569C118.345 39.7796 120.096 38.7813 122.251 40.0256Z" fill="#DBDEE4"/>
<path d="M122.219 51.1203C126.062 53.3396 129.452 57.4955 131.486 62.0384C129.433 64.2202 126.03 64.4579 122.188 62.2386C118.345 60.0193 114.951 55.856 112.916 51.3131C114.97 49.1313 118.377 48.901 122.219 51.1203Z" fill="#CE464A"/>
<path d="M127.255 63.9339C125.67 63.9339 123.907 63.4112 122.092 62.3642C118.369 60.2131 114.881 56.1037 112.761 51.3719C111.416 48.3786 110.709 45.3627 110.717 42.6529C110.727 39.1278 111.934 36.4945 114.118 35.2382C116.316 33.9737 119.227 34.2595 122.313 36.0415C128.604 39.6746 133.705 48.5166 133.685 55.7505C133.676 58.4776 132.946 60.6864 131.571 62.1384C130.445 63.3339 128.953 63.9339 127.255 63.9339ZM117.151 34.753C116.095 34.753 115.122 34.9975 114.264 35.491C112.175 36.6933 111.019 39.2366 111.009 42.6537C111.002 45.3222 111.699 48.2961 113.028 51.2519C115.123 55.9305 118.567 59.9896 122.239 62.1106C125.871 64.2077 129.28 64.1424 131.359 61.9374C132.682 60.5401 133.385 58.4003 133.392 55.749C133.412 48.6088 128.378 39.8816 122.167 36.295C120.394 35.2712 118.686 34.753 117.151 34.753Z" fill="#373B42"/>
<path d="M108.219 17.6267C107.859 17.4189 107.567 17.5847 107.566 17.9987C107.566 18.4127 107.855 18.9182 108.215 19.126L117.611 24.5546C117.971 24.7624 118.265 24.5951 118.266 24.1803C118.268 23.7663 117.975 23.2623 117.614 23.0546L108.219 17.6267Z" fill="#DBDEE4"/>
<path d="M108.393 21.6384C108.033 21.4306 107.741 21.5964 107.74 22.0104C107.739 22.4244 108.028 22.9299 108.389 23.1377L112.261 25.3742C112.621 25.582 112.915 25.4147 112.916 25C112.918 24.586 112.625 24.082 112.264 23.8742L108.393 21.6384Z" fill="#DBDEE4"/>
<path d="M134.969 79.3048C132.733 78.0133 130.916 79.0543 130.908 81.6202C130.901 84.1935 132.706 87.3225 134.942 88.6141C137.18 89.9071 138.997 88.8706 139.004 86.2973C139.011 83.7315 137.206 80.5979 134.969 79.3048Z" fill="#CE464A"/>
<path d="M122.634 72.1769C120.396 70.8839 118.579 71.9249 118.572 74.4907C118.565 77.064 120.37 80.1931 122.608 81.4854C124.844 82.7769 126.661 81.7411 126.668 79.1678C126.675 76.6028 124.87 73.4684 122.634 72.1769Z" fill="#DBDEE4"/>
<path d="M110.298 65.0539C108.06 63.7608 106.243 64.8019 106.236 67.3677C106.229 69.941 108.034 73.0701 110.272 74.3623C112.508 75.6539 114.325 74.6181 114.333 72.0448C114.34 69.4797 112.534 66.3454 110.298 65.0539Z" fill="#CE464A"/>
<path d="M110.371 66.6199C109.88 66.3364 109.48 66.5644 109.478 67.1292L109.473 68.9172C109.471 69.485 109.869 70.1743 110.36 70.4578C110.854 70.7428 111.254 70.5148 111.256 69.947L111.261 68.1589C111.263 67.5942 110.865 66.9049 110.371 66.6199Z" fill="white"/>
<path d="M110.919 71.8136C110.685 71.8136 110.429 71.7379 110.169 71.5879C109.311 71.0921 108.642 69.9318 108.645 68.9456C108.645 68.8241 108.743 68.7266 108.864 68.7266H108.865C108.987 68.7273 109.085 68.8256 109.084 68.9463C109.081 69.7758 109.667 70.7899 110.388 71.2069C110.7 71.3861 110.983 71.4236 111.18 71.3089C111.377 71.1956 111.486 70.9399 111.487 70.5866C111.488 70.4651 111.585 70.3676 111.707 70.3676H111.708C111.829 70.3684 111.927 70.4666 111.927 70.5874C111.925 71.1026 111.738 71.4941 111.4 71.6891C111.255 71.7724 111.093 71.8136 110.919 71.8136Z" fill="white"/>
<path d="M110.278 73.7198C110.157 73.7198 110.059 73.6216 110.059 73.5001V71.3955C110.059 71.274 110.157 71.1758 110.278 71.1758C110.4 71.1758 110.498 71.274 110.498 71.3955V73.5001C110.498 73.6216 110.4 73.7198 110.278 73.7198Z" fill="white"/>
<path d="M110.881 74.0682C110.844 74.0682 110.806 74.0592 110.772 74.0389L109.565 73.3429C109.46 73.2821 109.424 73.1479 109.485 73.0429C109.546 72.9386 109.679 72.9026 109.785 72.9626L110.991 73.6586C111.096 73.7194 111.132 73.8537 111.072 73.9587C111.031 74.0284 110.957 74.0682 110.881 74.0682Z" fill="white"/>
<path d="M135.475 82.6888C135.938 82.9566 136.313 83.6061 136.312 84.1394V84.2256L137.2 84.1281C137.268 84.1206 137.34 84.1409 137.41 84.1814C137.625 84.3051 137.821 84.6164 137.82 84.8932L137.816 86.5544C137.815 86.8305 137.618 86.913 137.403 86.7892C137.333 86.7487 137.261 86.6857 137.193 86.5994L136.308 85.4774V85.5644C136.306 86.0969 135.929 86.3122 135.465 86.0444L132.925 84.5766C132.461 84.3089 132.086 83.6586 132.088 83.1261L132.092 81.7011C132.093 81.1678 132.47 80.9526 132.934 81.2211L135.475 82.6888Z" fill="white"/>
<path d="M122.623 75.8148C121.687 75.2748 120.751 75.019 119.917 75.1068C119.692 75.13 119.63 75.4375 119.784 75.7713C119.959 76.1501 120.133 76.5296 120.309 76.9106C120.355 77.0111 120.427 77.0921 120.501 77.1348C120.546 77.1603 120.591 77.1723 120.631 77.1663C120.922 77.1221 121.232 77.1401 121.552 77.2136C121.634 77.2331 121.683 77.1641 121.662 77.0561C121.63 76.8911 121.597 76.7238 121.564 76.5573C121.542 76.4441 121.597 76.3751 121.684 76.4021C121.992 76.5033 122.305 76.6466 122.619 76.8273C122.932 77.0088 123.246 77.2278 123.553 77.4821C123.64 77.5556 123.694 77.6868 123.673 77.7746C123.64 77.9036 123.606 78.0326 123.573 78.1594C123.551 78.2426 123.599 78.3671 123.681 78.4421C124 78.7384 124.309 79.0781 124.598 79.4576C124.639 79.5109 124.684 79.5514 124.729 79.5769C124.803 79.6196 124.876 79.6226 124.923 79.5761C125.099 79.3984 125.276 79.2221 125.453 79.0466C125.606 78.8899 125.547 78.5119 125.322 78.2291C124.492 77.1798 123.558 76.3548 122.623 75.8148Z" fill="#373B42"/>
<path d="M127.108 91.9558C127.77 92.3383 128.306 93.2653 128.303 94.0266C128.301 94.7879 127.763 95.0954 127.1 94.7121L114.231 87.2787C113.568 86.8962 113.033 85.9692 113.035 85.2079C113.037 84.4466 113.576 84.1391 114.238 84.5224L127.108 91.9558Z" fill="#DBDEE4"/>
<path d="M53.4021 46.1946C54.2136 45.7251 54.8781 46.0993 54.8811 47.0384L54.9411 65.3846C54.9441 66.3236 54.2833 67.4644 53.4718 67.9331L29.5822 81.7455C29.1877 81.9735 28.8104 82.374 28.5352 82.857L23.2528 92.1115C22.9536 92.6373 22.5815 93.01 22.2163 93.2208C21.4595 93.658 20.7297 93.4045 20.7267 92.3838L20.6465 66.8329C20.6435 65.8938 21.3043 64.7531 22.1158 64.2843L53.4021 46.1946Z" fill="#CE464A"/>
<path d="M28.94 69.4891C30.74 68.4481 32.1411 69.6436 31.547 72.1644C31.2785 73.3044 30.6703 74.3522 29.8115 75.148C27.9342 76.8873 26.2189 76.2798 26.2129 74.2195C26.2077 72.4817 27.4264 70.3644 28.94 69.4891Z" fill="white"/>
<path d="M37.7837 64.3767C39.2973 63.5015 40.5265 64.2035 40.5318 65.942C40.537 67.6821 39.3175 69.7986 37.8062 70.6754C36.4149 71.4824 35.0612 70.7166 35.0567 69.1079C35.0514 67.3701 36.2732 65.2505 37.7837 64.3767Z" fill="white"/>
<path d="M46.6302 59.2612C48.1437 58.3859 49.3707 59.0894 49.3752 60.828C49.3805 62.5673 48.1647 64.6808 46.6542 65.5584C45.2629 66.3669 43.9069 65.6019 43.9024 63.9923C43.8979 62.2538 45.1196 60.1342 46.6302 59.2612Z" fill="white"/>
<g opacity="0.1">
<path d="M123.758 134.676C116.632 138.796 115.349 144.751 120.901 147.982C125.557 150.692 133.541 150.618 140.2 148.087L148.152 149.567C148.519 149.637 148.88 149.57 149.12 149.432C149.36 149.293 149.479 149.083 149.362 148.868L146.836 144.25C151.208 140.396 151.361 135.765 146.711 133.059C141.159 129.827 130.89 130.551 123.758 134.676Z" fill="#373B42"/>
</g>
<path d="M150.174 136.048L150.157 131.613C150.162 133.598 149.031 135.729 146.836 137.664L146.853 142.099C149.048 140.163 150.18 138.033 150.174 136.048Z" fill="#373B42"/>
<path d="M146.853 142.244C146.833 142.244 146.812 142.24 146.793 142.231C146.74 142.207 146.707 142.156 146.707 142.098L146.689 137.663C146.689 137.621 146.707 137.58 146.739 137.553C148.854 135.688 150.016 133.578 150.011 131.613V131.612C150.011 131.531 150.076 131.465 150.156 131.465H150.157C150.237 131.465 150.302 131.53 150.303 131.61L150.321 136.046C150.326 138.098 149.129 140.286 146.95 142.207C146.923 142.231 146.888 142.244 146.853 142.244ZM146.982 137.729L146.998 141.77C148.959 139.96 150.032 137.938 150.028 136.048L150.017 133.398C149.549 134.879 148.51 136.369 146.982 137.729Z" fill="#373B42"/>
<path d="M149.424 146.883C149.424 147.036 149.309 147.176 149.137 147.278C148.895 147.418 148.533 147.488 148.17 147.418L140.219 145.933L140.199 141.5L148.151 142.979C148.52 143.049 148.877 142.985 149.118 142.846C149.297 142.744 149.405 142.603 149.405 142.45L149.424 146.883Z" fill="#BEC4CD"/>
<path d="M148.462 147.593C148.356 147.593 148.249 147.582 148.143 147.562L140.193 146.077C140.124 146.063 140.073 146.003 140.073 145.934L140.055 141.501C140.055 141.458 140.073 141.416 140.107 141.388C140.14 141.36 140.185 141.347 140.228 141.356L148.18 142.835C148.494 142.895 148.818 142.851 149.047 142.719C149.182 142.641 149.26 142.544 149.26 142.451C149.26 142.37 149.325 142.304 149.405 142.304C149.406 142.304 149.406 142.304 149.406 142.304C149.486 142.304 149.551 142.37 149.552 142.45L149.572 146.883V146.883C149.572 147.082 149.445 147.267 149.214 147.405C149 147.528 148.735 147.593 148.462 147.593ZM140.365 145.811L148.198 147.274C148.501 147.334 148.832 147.286 149.065 147.151C149.2 147.071 149.278 146.973 149.278 146.883L149.261 142.929C149.239 142.944 149.216 142.959 149.191 142.973C148.905 143.139 148.507 143.195 148.124 143.123L140.347 141.676L140.365 145.811Z" fill="#373B42"/>
<path d="M117.449 136.248L117.466 140.683C117.472 142.652 118.598 144.477 120.919 145.827C125.574 148.537 133.559 148.464 140.218 145.932L140.2 141.497C133.542 144.029 125.558 144.102 120.902 141.392C118.582 140.042 117.455 138.216 117.449 136.248Z" fill="#BEC4CD"/>
<path d="M129.869 147.99C126.381 147.99 123.175 147.311 120.845 145.954C118.546 144.616 117.327 142.793 117.321 140.684L117.303 136.26C117.303 136.256 117.303 136.253 117.303 136.249V136.249C117.303 136.168 117.368 136.102 117.448 136.102H117.449C117.529 136.102 117.594 136.167 117.595 136.247V136.259C117.606 138.254 118.774 139.985 120.975 141.266C125.492 143.896 133.378 143.935 140.148 141.361C140.193 141.345 140.243 141.35 140.283 141.377C140.322 141.405 140.346 141.449 140.346 141.497L140.364 145.932C140.364 145.994 140.327 146.048 140.27 146.069C136.899 147.351 133.251 147.99 129.869 147.99ZM117.602 137.983L117.612 140.683C117.618 142.683 118.786 144.418 120.992 145.701C125.488 148.319 133.321 148.37 140.07 145.832L140.053 141.709C133.25 144.238 125.371 144.164 120.826 141.519C119.185 140.563 118.094 139.36 117.602 137.983Z" fill="#373B42"/>
<path d="M123.758 128.087C116.632 132.208 115.349 138.162 120.901 141.393C125.557 144.103 133.541 144.03 140.2 141.498L148.152 142.979C148.519 143.049 148.88 142.982 149.12 142.843C149.36 142.704 149.479 142.494 149.362 142.279L146.836 137.662C151.208 133.808 151.361 129.176 146.711 126.47C141.159 123.239 130.89 123.964 123.758 128.087Z" fill="white"/>
<path d="M129.851 143.555C126.363 143.555 123.157 142.876 120.827 141.52C118.519 140.176 117.3 138.346 117.303 136.226C117.307 133.316 119.633 130.303 123.685 127.96C130.844 123.822 141.207 123.095 146.786 126.343C148.885 127.565 150.093 129.214 150.28 131.113C150.493 133.286 149.336 135.62 147.021 137.693L149.492 142.208C149.64 142.481 149.523 142.781 149.194 142.97C148.903 143.138 148.505 143.197 148.126 143.122L140.214 141.65C136.853 142.922 133.22 143.555 129.851 143.555ZM123.831 128.215C119.872 130.504 117.6 133.424 117.595 136.227C117.592 138.236 118.762 139.979 120.975 141.267C125.492 143.897 133.378 143.936 140.148 141.362C140.173 141.353 140.199 141.351 140.226 141.355L148.178 142.835C148.483 142.894 148.817 142.849 149.047 142.716C149.156 142.652 149.326 142.521 149.233 142.349L146.706 137.732C146.674 137.672 146.687 137.597 146.739 137.552C149.04 135.524 150.193 133.247 149.987 131.142C149.811 129.34 148.652 127.768 146.637 126.596C141.139 123.398 130.908 124.123 123.831 128.215Z" fill="#373B42"/>
<path d="M124.42 136.862C123.225 137.553 123.219 138.674 124.406 139.365C125.594 140.057 127.525 140.057 128.721 139.365C129.916 138.674 129.922 137.553 128.735 136.862C127.548 136.171 125.616 136.171 124.42 136.862Z" fill="#CE464A"/>
<path d="M133.807 135.703C135.492 135.699 136.856 134.902 136.853 133.925C136.851 132.947 135.482 132.158 133.797 132.163C132.112 132.168 130.748 132.964 130.751 133.942C130.754 134.919 132.122 135.708 133.807 135.703Z" fill="#CE464A"/>
<path d="M141.038 131.522C142.723 131.517 144.087 130.721 144.084 129.743C144.081 128.765 142.713 127.977 141.028 127.982C139.343 127.986 137.979 128.783 137.982 129.76C137.984 130.738 139.353 131.526 141.038 131.522Z" fill="#CE464A"/>
<path d="M80.7744 149.156C81.8312 148.545 81.8372 147.554 80.7872 146.943C79.7372 146.331 78.0286 146.332 76.9718 146.943C75.9151 147.554 75.9098 148.545 76.9598 149.155C78.0099 149.766 79.7177 149.767 80.7744 149.156Z" fill="white"/>
<path d="M78.8651 149.758C78.1473 149.758 77.4311 149.6 76.8858 149.283C76.3323 148.961 76.0285 148.524 76.0293 148.053C76.03 147.58 76.3383 147.141 76.8986 146.816C77.9936 146.183 79.7711 146.183 80.8609 146.817C81.4137 147.139 81.7174 147.575 81.7167 148.046C81.7159 148.521 81.4077 148.96 80.8474 149.284C80.2999 149.6 79.5821 149.758 78.8651 149.758ZM78.8824 146.63C78.2178 146.63 77.5526 146.776 77.0448 147.07C76.5791 147.339 76.3226 147.689 76.3218 148.053C76.3211 148.416 76.5738 148.762 77.0336 149.03C78.0401 149.616 79.6856 149.617 80.7004 149.03C81.1662 148.761 81.4227 148.411 81.4234 148.046C81.4242 147.683 81.1722 147.337 80.7132 147.069C80.2099 146.777 79.5469 146.63 78.8824 146.63Z" fill="#DBDEE4"/>
<path d="M78.8798 147.352C78.468 147.352 78.069 147.445 77.7862 147.61C77.559 147.741 77.4285 147.903 77.4277 148.053C77.4277 148.201 77.5552 148.361 77.7787 148.491C78.0592 148.654 78.4568 148.748 78.8678 148.748C79.2795 148.748 79.6778 148.654 79.9605 148.491C80.1878 148.36 80.3191 148.198 80.3191 148.047C80.3191 147.898 80.1916 147.739 79.968 147.609C79.6883 147.445 79.2908 147.352 78.8798 147.352Z" fill="#CE464A"/>
<path d="M88.1823 142.047C87.7398 142.047 87.3116 142.148 87.0078 142.324C86.7633 142.465 86.623 142.639 86.623 142.8C86.623 142.959 86.7603 143.131 87.0003 143.27C87.3018 143.446 87.7286 143.546 88.1703 143.546C88.6121 143.546 89.0404 143.446 89.3441 143.269C89.5886 143.128 89.7289 142.954 89.7289 142.793C89.7289 142.634 89.5916 142.462 89.3524 142.323C89.0501 142.147 88.6241 142.047 88.1823 142.047Z" fill="#373B42"/>
<path d="M84.2829 77.2676C84.7254 77.2676 85.1536 77.3681 85.4574 77.5443C85.7019 77.6853 85.8422 77.8593 85.8422 78.0206C85.8422 78.1796 85.7049 78.3514 85.4649 78.4909C85.1634 78.6664 84.7366 78.7669 84.2949 78.7669C83.8531 78.7669 83.4248 78.6664 83.1211 78.4901C82.8766 78.3491 82.7363 78.1751 82.7363 78.0139C82.7363 77.8548 82.8736 77.6831 83.1128 77.5436C83.4143 77.3681 83.8411 77.2676 84.2829 77.2676Z" fill="#373B42"/>
<path d="M97.3415 77.1406C97.784 77.1406 98.2122 77.2411 98.516 77.4174C98.7605 77.5584 98.9007 77.7324 98.9007 77.8936C98.9007 78.0526 98.7635 78.2244 98.5235 78.3639C98.222 78.5394 97.7952 78.6399 97.3535 78.6399C96.9117 78.6399 96.4834 78.5394 96.1797 78.3632C95.9352 78.2221 95.7949 78.0481 95.7949 77.8869C95.7949 77.7279 95.9322 77.5561 96.1714 77.4166C96.4737 77.2411 96.8997 77.1406 97.3415 77.1406Z" fill="#373B42"/>
</svg>
