<svg width="81" height="80" viewBox="0 0 81 80" fill="none" xmlns="http://www.w3.org/2000/svg">
<path d="M39.5915 0H42.079C54.1781 0.682275 62.8048 5.27656 69.2004 11.7153C75.5962 18.154 80.3239 26.6461 80.9556 38.7966V41.2038C80.3414 53.5485 75.5301 61.696 69.2004 68.3252C62.5512 74.6221 54.3772 79.393 42.0388 80H39.5915C27.494 79.3163 18.8657 74.724 12.4701 68.2849C6.07444 61.8462 1.34661 53.3543 0.714844 41.2038V38.7966C0.746328 38.7878 0.761724 38.763 0.754978 38.7163C1.35993 26.6122 6.11353 18.0318 12.4702 11.6751C18.8562 5.28884 27.5723 0.661689 39.5915 0ZM31.7279 5.73723C29.3441 6.37557 27.2063 7.1862 25.2686 8.14439C19.3707 11.0608 14.5069 15.2334 11.106 20.5817C7.7867 25.8022 4.91263 32.5179 5.32885 41.324C5.59127 46.8758 6.85808 51.5458 8.85924 55.5267C12.8112 63.3869 18.8278 69.1784 27.1544 72.6984C31.2719 74.439 36.3739 75.66 42.1193 75.3863C47.6302 75.1239 52.4056 73.8851 56.3621 71.8959C64.1162 67.997 70.2271 61.9815 73.6141 53.6812C75.327 49.4826 76.6224 44.6321 76.3423 38.7563C75.8123 27.6256 71.2846 20.0783 65.3093 14.3229C62.3528 11.4752 58.7926 9.05277 54.5972 7.30193C50.5266 5.60316 45.2274 4.34362 39.5519 4.61383C36.7617 4.74669 34.1297 5.09405 31.7279 5.73723Z" fill="#0083CA"/>
<path d="M37.1433 29.6094C38.4144 30.4511 39.7146 31.264 40.9146 32.1771C38.2037 33.8793 35.546 35.635 32.8505 37.3526C33.2598 37.6655 33.7251 37.9223 34.1343 38.2352C36.8523 36.5133 39.5712 34.7923 42.2788 33.0597C43.4932 33.8113 44.6888 34.5816 45.8096 35.4269C43.0964 37.1405 40.4742 38.9448 37.7854 40.6825C38.1838 41.0065 38.6722 41.2402 39.1091 41.5251C41.8882 39.8241 44.5981 38.0539 47.3338 36.3096V30.6124H53.352V41.9666C55.0502 42.06 56.9228 41.9799 58.6882 42.0064V47.3426H47.3338V41.9261C43.9978 43.9529 40.5792 46.2448 37.2235 48.3856C33.729 46.1165 30.361 43.72 26.8725 41.4449C25.8619 44.6481 23.4616 47.0579 19.4901 47.3426C17.0132 47.5198 14.1987 47.2103 11.3457 47.3426V30.6124C14.9124 30.8487 18.8289 30.1354 21.6566 31.0135C24.1569 31.7901 25.9295 33.785 26.7519 36.2693C30.243 34.0767 33.6781 31.8283 37.1433 29.6094ZM17.0828 35.9886V42.0066C18.5163 42.0137 19.6067 42.0969 20.4528 41.445C21.7116 40.4754 21.9652 38.0717 20.854 36.7909C20.1123 35.9363 18.8602 35.7569 17.1227 35.8682C17.0764 35.8749 17.0793 35.9317 17.0828 35.9886ZM60.2526 30.6124H66.2706V42.0066H71.5665V47.3428H60.2121V30.7328C60.209 30.6759 60.2057 30.6191 60.2526 30.6124Z" fill="#0083CA"/>
</svg>
