<svg width="81" height="80" viewBox="0 0 81 80" fill="none" xmlns="http://www.w3.org/2000/svg">
<g clip-path="url(#clip0_315_1445)">
<path d="M13 1.5H69C74.799 1.5 79.5 6.20101 79.5 12V68C79.5 73.799 74.799 78.5 69 78.5H13C7.20101 78.5 2.5 73.799 2.5 68V12C2.5 6.20101 7.20101 1.5 13 1.5Z" fill="white" stroke="url(#paint0_linear_315_1445)" stroke-width="3"/>
<path d="M16.0273 32.5C11.3398 32.5 7.43359 34.375 7.43359 40.4688C7.43359 45.3125 10.0898 48.125 16.1836 48.125C23.3711 48.125 23.8398 43.4375 23.8398 43.4375H20.2461C20.2461 43.4375 19.6211 46.0938 15.8711 46.0938C12.9023 46.0938 10.8711 44.0625 10.8711 41.25H24.1523V39.375C24.1523 36.7188 22.4336 32.5 16.0273 32.5ZM15.8711 34.6875C18.6836 34.6875 20.5586 36.4062 20.5586 39.0625H10.8711C10.8711 36.25 13.3711 34.6875 15.8711 34.6875Z" fill="#E53238"/>
<path d="M24.1523 26.7188V45.3125L23.9961 47.8125H27.4336L27.5898 45.625C27.5898 45.625 29.1523 48.2812 33.6836 48.2812C38.3711 48.2812 41.4961 45 41.4961 40.3125C41.4961 35.9375 38.6836 32.5 33.6836 32.5C28.8398 32.5 27.5898 35 27.5898 35V26.7188H24.1523ZM32.7461 34.8438C36.0273 34.8438 37.9023 37.1875 37.9023 40.3125C37.9023 43.75 35.5586 45.9375 32.7461 45.9375C29.3086 45.9375 27.5898 43.2812 27.5898 40.4688C27.5898 37.6562 29.1523 34.8438 32.7461 34.8438Z" fill="#0064D2"/>
<path d="M49.7773 32.5C42.5898 32.5 42.2773 36.4062 42.2773 36.875H45.7148C45.7148 36.875 46.0273 34.6875 49.4648 34.6875C54.3086 34.6875 53.6836 38.4375 53.6836 38.4375H49.4648C43.9961 38.4375 41.1836 40.1562 41.1836 43.2812C41.1836 46.4062 43.8398 48.2812 47.4336 48.2812C52.4336 48.2812 53.8398 45.625 53.8398 45.625L53.9961 47.8125H57.1211V38.125C57.1211 33.4375 53.2148 32.5 49.7773 32.5ZM53.6836 40.625C53.6836 40.625 54.3086 46.0938 48.2148 46.0938C45.7148 46.0938 44.6211 44.8438 44.6211 43.2812C44.6211 40.625 48.3711 40.625 53.6836 40.625Z" fill="#F5AF03"/>
<path d="M55.0898 33.125H58.9961L64.7773 44.375L70.4023 33.125H73.9961L63.8398 53.2812H60.0898L62.9023 47.6562L55.0898 33.125Z" fill="#86B817"/>
</g>
<defs>
<linearGradient id="paint0_linear_315_1445" x1="1.4" y1="1.67638e-07" x2="81.4" y2="80" gradientUnits="userSpaceOnUse">
<stop stop-color="#E53238"/>
<stop offset="0.357562" stop-color="#0064D2"/>
<stop offset="0.675724" stop-color="#F5AF03"/>
<stop offset="1" stop-color="#86B817"/>
</linearGradient>
<clipPath id="clip0_315_1445">
<rect width="80" height="80" fill="white" transform="translate(0.714844)"/>
</clipPath>
</defs>
</svg>
