<svg width="48" height="48" viewBox="0 0 48 48" fill="none" xmlns="http://www.w3.org/2000/svg">
<path d="M43.2285 8.53859C42.049 7.35878 40.6486 6.42288 39.1073 5.78436C37.566 5.14583 35.9141 4.81718 34.2457 4.81718C32.5774 4.81718 30.9255 5.14583 29.3842 5.78436C27.8429 6.42288 26.4425 7.35878 25.263 8.53859L24.003 9.80122L22.7377 8.53859C20.508 6.30399 17.526 4.97977 14.3731 4.82407C11.2201 4.66836 8.12219 5.69233 5.68312 7.69637C3.24405 9.70041 1.63864 12.5409 1.17983 15.6642C0.72102 18.7874 1.44169 21.9696 3.20137 24.5905C4.00512 25.787 4.85074 26.9446 5.73824 28.0633C10.6921 34.3335 16.9155 39.4855 24.0004 43.1815C31.0851 39.4843 37.309 34.3325 42.2647 28.0633C43.1507 26.9446 43.9964 25.7871 44.8016 24.5908C46.4416 22.1479 47.1814 19.2109 46.8945 16.2825C46.6075 13.3542 45.3116 10.6167 43.2285 8.53859ZM42.5295 23.0586C41.7661 24.1927 40.9595 25.2971 40.1115 26.3695C35.6947 31.9492 30.2196 36.6018 24.0004 40.0603C23.2074 39.6146 22.429 39.1528 21.6652 38.6751L22.5157 38.3016L23.4982 37.726C29.3514 34.3231 34.5128 29.8504 38.7139 24.541C39.5656 23.4631 40.3764 22.3536 41.1446 21.2147C42.1617 19.6949 42.7456 17.9268 42.8335 16.1002C42.9213 14.2735 42.5099 12.4575 41.6434 10.8471C43.1322 12.492 44.0281 14.5875 44.1887 16.8003C44.3493 19.0131 43.7652 21.216 42.5295 23.0586Z" fill="#CE464A"/>
</svg>
