<svg xmlns="http://www.w3.org/2000/svg" width="120" height="121" viewBox="0 0 120 121" fill="none">
  <path d="M91.3229 73.4043C91.283 73.4043 91.2443 73.3834 91.2228 73.3465C91.1907 73.2911 91.2091 73.2202 91.2645 73.1875L100.846 67.5857C101.109 67.4333 101.272 67.1491 101.272 66.8454V42.7529C101.272 42.6885 101.324 42.6367 101.388 42.6367C101.452 42.6367 101.504 42.6885 101.504 42.7529V66.8454C101.504 67.2319 101.296 67.5923 100.962 67.7864L91.3813 73.3882C91.3628 73.3995 91.3425 73.4043 91.3229 73.4043Z" fill="#DBDEE4"/>
  <g opacity="0.1">
    <path d="M97.9258 75.7813C107.97 81.5802 108.023 90.9814 98.0467 96.7785L83.895 105.003L90.7457 108.958L63.5364 112.009L68.717 96.24L75.3986 100.098L89.5503 91.8736C94.865 88.7847 94.8393 83.7756 89.4872 80.6856C84.1374 77.5968 75.4867 77.5974 70.1721 80.6856L62.6477 85.0586L54.1543 80.1549L61.6787 75.7819C71.654 69.9842 87.8844 69.9842 97.9258 75.7813Z" fill="black"/>
  </g>
  <path d="M70.176 72.9434L70.1617 78.1705L62.6367 82.5434L62.6516 77.3163L70.176 72.9434Z" fill="white"/>
  <path d="M62.6351 82.66C62.6148 82.66 62.5952 82.6547 62.5773 82.6446C62.5416 82.6237 62.5195 82.5856 62.5195 82.5439L62.5344 77.3168C62.5344 77.2757 62.5565 77.2376 62.5922 77.2167L70.1166 72.8438C70.1529 72.8229 70.197 72.8229 70.2333 72.8438C70.269 72.8646 70.2911 72.9027 70.2911 72.9444L70.2768 78.1715C70.2768 78.2126 70.2547 78.2507 70.219 78.2716L62.694 82.6446C62.675 82.6547 62.6547 82.66 62.6351 82.66ZM62.7661 77.3835L62.7518 82.342L70.0439 78.1042L70.0582 73.1457L62.7661 77.3835Z" fill="#2C2C2C"/>
  <path d="M62.647 77.3177L62.6321 82.5448L54.1387 77.6412L54.1536 72.4141L62.647 77.3177Z" fill="white"/>
  <path d="M62.6324 82.6605C62.6122 82.6605 62.5925 82.6551 62.5746 82.645L54.0812 77.7407C54.0455 77.7199 54.0234 77.6817 54.0234 77.64L54.0383 72.4129C54.0383 72.3712 54.0604 72.3331 54.0961 72.3123C54.1324 72.292 54.1759 72.2914 54.2122 72.3123L62.7057 77.216C62.7414 77.2368 62.7634 77.2749 62.7634 77.3166L62.7486 82.5437C62.7486 82.5854 62.7265 82.6235 62.6908 82.6444C62.6723 82.6551 62.6521 82.6605 62.6324 82.6605ZM54.2545 77.5733L62.5163 82.3436L62.5306 77.3839L54.2688 72.6137L54.2545 77.5733Z" fill="#2C2C2C"/>
  <path d="M93.5199 78.5802L93.505 83.8073C93.5109 81.7697 92.1661 79.7291 89.4733 78.1746C84.1235 75.0857 75.4728 75.0863 70.1582 78.1746L70.1731 72.9475C75.4877 69.8586 84.139 69.8586 89.4882 72.9475C92.1809 74.502 93.5252 76.5426 93.5199 78.5802Z" fill="#2C2C2C"/>
  <path d="M93.504 83.9227C93.4396 83.9227 93.3878 83.8703 93.3878 83.8065C93.3938 81.7219 91.9828 79.757 89.4145 78.2745C84.1034 75.2089 75.4915 75.2083 70.2155 78.2745C70.1792 78.2953 70.1351 78.2953 70.0988 78.2745C70.0631 78.2536 70.041 78.2155 70.041 78.1738L70.0553 72.9467C70.0553 72.9056 70.0774 72.8675 70.1131 72.8467C75.4545 69.7435 84.1707 69.7441 89.5455 72.8467C92.1888 74.3726 93.6415 76.409 93.635 78.58L93.6201 83.8071C93.6201 83.8714 93.5683 83.9227 93.504 83.9227ZM79.8025 75.7461C83.3208 75.7461 86.8438 76.5216 89.5312 78.0738C91.5611 79.2459 92.8887 80.7183 93.3926 82.3223L93.4033 78.58C93.4092 76.4954 91.9982 74.5311 89.43 73.048C84.138 69.9931 75.5683 69.9812 70.2882 73.0146L70.2739 77.9743C72.922 76.4888 76.3599 75.7461 79.8025 75.7461Z" fill="#2C2C2C"/>
  <path d="M105.498 78.6152L105.484 83.8429C105.47 87.6143 102.992 91.3852 98.0369 94.2667L83.8828 102.49L83.8965 97.2621L98.0506 89.039C103.006 86.1575 105.489 82.3908 105.498 78.6152Z" fill="#2C2C2C"/>
  <path d="M83.8812 102.605C83.8609 102.605 83.8413 102.6 83.8234 102.59C83.7877 102.569 83.7656 102.531 83.7656 102.489L83.7793 97.261C83.7793 97.2199 83.8014 97.1818 83.8371 97.161L97.9918 88.9379C102.748 86.1725 105.371 82.5065 105.381 78.6148V78.6142C105.381 78.5499 105.433 78.498 105.497 78.498C105.497 78.498 105.497 78.498 105.498 78.498C105.561 78.498 105.613 78.5505 105.613 78.6142L105.6 83.8419C105.585 87.823 102.92 91.5604 98.0948 94.3663L83.9401 102.589C83.9217 102.6 83.9014 102.605 83.8812 102.605ZM84.011 97.3283L83.9979 102.287L97.9775 94.1656C102.729 91.4032 105.353 87.7366 105.367 83.8413L105.375 80.6393C104.623 83.849 102.108 86.8122 98.108 89.1387L84.011 97.3283Z" fill="#2C2C2C"/>
  <path d="M90.749 101.215L90.7341 106.442L63.5254 109.493L63.5397 104.266L90.749 101.215Z" fill="#2C2C2C"/>
  <path d="M63.5244 109.609C63.4958 109.609 63.4684 109.598 63.4469 109.579C63.4225 109.557 63.4082 109.526 63.4082 109.493L63.4225 104.266C63.4225 104.207 63.4672 104.158 63.5255 104.151L90.7349 101.1C90.77 101.097 90.8016 101.107 90.8254 101.129C90.8498 101.152 90.8641 101.183 90.8641 101.216L90.8492 106.443C90.8492 106.502 90.8046 106.551 90.7462 106.558L63.5375 109.609C63.5327 109.609 63.5285 109.609 63.5244 109.609ZM63.6542 104.37L63.6405 109.363L90.6169 106.339L90.6312 101.346L63.6542 104.37Z" fill="#2C2C2C"/>
  <path d="M97.9278 68.0411C107.972 73.84 108.025 83.2411 98.0487 89.0382L83.8969 97.2624L90.7477 101.218L63.5383 104.269L68.719 88.4998L75.4005 92.3576L89.5523 84.1334C94.8669 81.0445 94.8413 76.0354 89.4891 72.9454C84.1393 69.8565 75.4887 69.8571 70.174 72.9454L62.6497 77.3184L54.1562 72.4147L61.6806 68.0417C71.6559 62.244 87.8863 62.244 97.9278 68.0411Z" fill="#CE464A"/>
  <path d="M63.5373 104.385C63.5021 104.385 63.4694 104.37 63.4467 104.342C63.4217 104.312 63.4146 104.27 63.4265 104.233L68.6077 88.4638C68.6184 88.4304 68.6441 88.4042 68.6768 88.3917C68.709 88.3792 68.7465 88.3822 68.7763 88.3994L75.3995 92.2233L89.4923 84.033C92.0177 82.566 93.4066 80.6213 93.4036 78.5587C93.4007 76.4818 91.9897 74.5235 89.4303 73.0457C84.1198 69.9801 75.5073 69.9795 70.2314 73.0457L62.707 77.4187C62.6707 77.4396 62.6266 77.4396 62.5903 77.4187L54.0968 72.5151C54.0611 72.4942 54.0391 72.4561 54.0391 72.415C54.0391 72.3733 54.0611 72.3352 54.0968 72.3143L61.6218 67.9414C71.615 62.1341 87.9276 62.1341 97.9857 67.9414C102.898 70.7777 105.607 74.555 105.612 78.5784C105.617 82.5732 102.952 86.3237 98.1072 89.1398L84.1288 97.2633L90.8056 101.118C90.8491 101.143 90.8711 101.193 90.8616 101.243C90.8508 101.291 90.8103 101.328 90.7609 101.334L63.5516 104.385C63.5462 104.385 63.5415 104.385 63.5373 104.385ZM68.784 88.6722L63.704 104.134L90.3827 101.143L83.8381 97.364C83.8024 97.3432 83.7803 97.305 83.7803 97.2639C83.7803 97.2222 83.8024 97.1841 83.8381 97.1633L97.9892 88.9391C102.76 86.1671 105.384 82.4874 105.379 78.579C105.374 74.642 102.706 70.9355 97.8689 68.1427C87.8752 62.373 71.6674 62.373 61.7379 68.1427L54.3863 72.415L62.648 77.1847L70.114 72.8456C75.4555 69.7425 84.1716 69.7431 89.5465 72.8456C92.1802 74.3662 93.6329 76.3955 93.6359 78.5593C93.6389 80.7083 92.2088 82.7239 89.6096 84.2349L75.4585 92.4591C75.4221 92.48 75.378 92.48 75.3417 92.4591L68.784 88.6722Z" fill="#2C2C2C"/>
  <path d="M63.5373 104.385C63.5021 104.385 63.4694 104.37 63.4467 104.342C63.4217 104.312 63.4146 104.27 63.4265 104.233L68.6077 88.4638C68.6184 88.4304 68.6441 88.4042 68.6768 88.3917C68.709 88.3792 68.7465 88.3822 68.7763 88.3994L75.3995 92.2233L89.4923 84.033C92.0177 82.566 93.4066 80.6213 93.4036 78.5587C93.4007 76.4818 91.9897 74.5235 89.4303 73.0457C84.1198 69.9801 75.5073 69.9795 70.2314 73.0457L62.707 77.4187C62.6707 77.4396 62.6266 77.4396 62.5903 77.4187L54.0968 72.5151C54.0611 72.4942 54.0391 72.4561 54.0391 72.415C54.0391 72.3733 54.0611 72.3352 54.0968 72.3143L61.6218 67.9414C71.615 62.1341 87.9276 62.1341 97.9857 67.9414C102.898 70.7777 105.607 74.555 105.612 78.5784C105.617 82.5732 102.952 86.3237 98.1072 89.1398L84.1288 97.2633L90.8056 101.118C90.8491 101.143 90.8711 101.193 90.8616 101.243C90.8508 101.291 90.8103 101.328 90.7609 101.334L63.5516 104.385C63.5462 104.385 63.5415 104.385 63.5373 104.385ZM68.784 88.6722L63.704 104.134L90.3827 101.143L83.8381 97.364C83.8024 97.3432 83.7803 97.305 83.7803 97.2639C83.7803 97.2222 83.8024 97.1841 83.8381 97.1633L97.9892 88.9391C102.76 86.1671 105.384 82.4874 105.379 78.579C105.374 74.642 102.706 70.9355 97.8689 68.1427C87.8752 62.373 71.6674 62.373 61.7379 68.1427L54.3863 72.415L62.648 77.1847L70.114 72.8456C75.4555 69.7425 84.1716 69.7431 89.5465 72.8456C92.1802 74.3662 93.6329 76.3955 93.6359 78.5593C93.6389 80.7083 92.2088 82.7239 89.6096 84.2349L75.4585 92.4591C75.4221 92.48 75.378 92.48 75.3417 92.4591L68.784 88.6722Z" fill="#2C2C2C"/>
  <path d="M95.4772 118.099C95.4373 118.099 95.3986 118.078 95.3771 118.042C95.345 117.986 95.3634 117.915 95.4188 117.883L115.025 106.415C115.549 106.11 115.838 105.711 115.837 105.293C115.836 104.87 115.543 104.469 115.011 104.162L100.005 95.4977C99.9496 95.4656 99.9306 95.3947 99.9621 95.3393C99.9949 95.2833 100.066 95.2649 100.121 95.297L115.127 103.961C115.734 104.311 116.068 104.784 116.069 105.293C116.07 105.798 115.74 106.268 115.142 106.616L95.5362 118.084C95.5177 118.093 95.4974 118.099 95.4772 118.099Z" fill="#DBDEE4"/>
  <path d="M29.9854 117.966C29.9652 117.966 29.9443 117.96 29.9259 117.95L6.21278 103.884C5.75297 103.618 5.49864 103.257 5.49805 102.867C5.49745 102.48 5.7482 102.121 6.20325 101.856L17.3049 95.4044C17.3608 95.3723 17.4311 95.3907 17.4639 95.4467C17.4961 95.5021 17.4776 95.573 17.4222 95.6058L6.32059 102.057C5.9394 102.279 5.73034 102.566 5.73034 102.867C5.73093 103.171 5.94416 103.461 6.33012 103.684L30.0444 117.751C30.0992 117.783 30.1177 117.854 30.0849 117.91C30.0635 117.945 30.0247 117.966 29.9854 117.966Z" fill="#DBDEE4"/>
  <g opacity="0.1">
    <path d="M0.669922 83.7533L35.9045 63.4102L71.1999 83.9218L35.9653 104.265L0.669922 83.7533Z" fill="black"/>
  </g>
  <path d="M35.821 100.345L0.800781 79.9927L35.7608 59.8086L70.7816 80.1601L35.821 100.345Z" fill="white"/>
  <path d="M35.8199 100.461C35.7997 100.461 35.7794 100.456 35.7616 100.446L0.741367 80.0938C0.705631 80.073 0.683594 80.0349 0.683594 79.9932C0.683594 79.9521 0.705631 79.9134 0.741367 79.8931L35.7014 59.709C35.7377 59.6881 35.7818 59.6881 35.8181 59.709L70.8383 80.0605C70.8741 80.0813 70.8961 80.1194 70.8961 80.1611C70.8961 80.2022 70.8741 80.2409 70.8383 80.2612L35.8777 100.446C35.8598 100.456 35.8396 100.461 35.8199 100.461ZM1.03143 79.9938L35.8199 100.211L70.5488 80.1605L35.7604 59.9437L1.03143 79.9938Z" fill="#2C2C2C"/>
  <path d="M35.8195 100.347L0.799308 79.9945L0.685547 39.8145L35.7057 60.1659L35.8195 100.347Z" fill="white"/>
  <path d="M35.819 100.461C35.7988 100.461 35.7785 100.456 35.7607 100.446L0.740491 80.0936C0.70535 80.0728 0.682718 80.0347 0.682718 79.9936L0.568359 39.8136C0.568359 39.7719 0.590397 39.7337 0.626134 39.7129C0.662466 39.6921 0.706542 39.6921 0.742874 39.7129L35.7631 60.065C35.7982 60.0858 35.8208 60.1239 35.8208 60.165L35.9346 100.345C35.9346 100.387 35.9126 100.425 35.8768 100.446C35.859 100.456 35.8387 100.461 35.819 100.461ZM0.915006 79.9263L35.7023 100.143L35.5891 60.2317L0.801244 40.0149L0.915006 79.9263Z" fill="#2C2C2C"/>
  <path d="M35.7057 60.1631L0.685547 39.8117L35.6456 19.627L70.6658 39.979L35.7057 60.1631Z" fill="white"/>
  <path d="M35.7047 60.2797C35.6844 60.2797 35.6642 60.2744 35.6463 60.2643L0.626134 39.9122C0.590397 39.8913 0.568359 39.8532 0.568359 39.8115C0.568359 39.7704 0.590397 39.7317 0.626134 39.7115L35.5868 19.5274C35.6231 19.5065 35.6672 19.5065 35.7035 19.5274L70.7237 39.8788C70.7594 39.8997 70.7814 39.9378 70.7814 39.9795C70.7814 40.0206 70.7594 40.0593 70.7237 40.0796L35.7631 60.2643C35.7446 60.275 35.7243 60.2797 35.7047 60.2797ZM0.9156 39.8121L35.7041 60.0296L70.433 39.9789L35.6445 19.762L0.9156 39.8121Z" fill="#2C2C2C"/>
  <path d="M57.3115 47.6979L49.1671 52.3973L14.1445 32.047L22.2889 27.3477L57.3115 47.6979Z" fill="#CE464A"/>
  <path d="M49.1655 52.512C49.1458 52.512 49.125 52.5066 49.1071 52.4965L14.0851 32.1462C14.0494 32.1254 14.0273 32.0872 14.0273 32.0455C14.0273 32.0045 14.0494 31.9657 14.0851 31.9455L22.2301 27.2461C22.2664 27.2253 22.3105 27.2253 22.3468 27.2461L57.3688 47.5964C57.4046 47.6172 57.4266 47.6554 57.4266 47.6971C57.4266 47.7381 57.4046 47.7769 57.3688 47.7971L49.2244 52.4965C49.2054 52.5066 49.1857 52.512 49.1655 52.512ZM14.3752 32.0461L49.1655 52.2618L57.0782 47.6965L22.2885 27.4802L14.3752 32.0461Z" fill="#2C2C2C"/>
  <path d="M70.7824 80.1644L35.8171 100.348L35.7051 60.1679L49.1671 52.3981L57.3115 47.6987L70.6705 39.9844L70.7824 80.1644Z" fill="white"/>
  <path d="M35.816 100.463C35.7958 100.463 35.7761 100.458 35.7582 100.448C35.7225 100.427 35.7005 100.389 35.7005 100.347L35.5879 60.167C35.5879 60.1253 35.6099 60.0872 35.6457 60.0663L70.6111 39.8828C70.6474 39.862 70.6909 39.862 70.7272 39.8828C70.7629 39.9037 70.785 39.9418 70.785 39.9835L70.8969 80.1635C70.8969 80.2052 70.8749 80.2433 70.8392 80.2641L35.8738 100.448C35.8559 100.458 35.8363 100.463 35.816 100.463ZM35.8196 60.2343L35.9316 100.146L70.6647 80.0968L70.5533 40.1842L35.8196 60.2343Z" fill="#2C2C2C"/>
  <path d="M49.1797 52.3603V63.0647L53.2447 56.4277L57.3092 58.4016L57.3086 47.6973L49.1797 52.3603Z" fill="#CE464A"/>
  <path d="M49.1792 63.1797C49.1685 63.1797 49.1584 63.1785 49.1477 63.1755C49.097 63.1612 49.0631 63.1154 49.0631 63.0635L49.0625 52.3592C49.0625 52.3175 49.0845 52.2794 49.1209 52.2585L57.2504 47.5955C57.2855 47.5752 57.3308 47.5746 57.3659 47.5955C57.4017 47.6163 57.4237 47.6545 57.4237 47.6962L57.4243 58.4005C57.4243 58.4404 57.404 58.4773 57.3701 58.4988C57.3361 58.5202 57.2945 58.522 57.2575 58.5047L53.2872 56.5767L49.2775 63.1237C49.2573 63.1594 49.2192 63.1797 49.1792 63.1797ZM49.2948 52.4265L49.2954 62.652L53.1448 56.3665C53.1764 56.3153 53.2407 56.2974 53.2943 56.3224L57.1926 58.2153L57.192 47.8969L49.2948 52.4265Z" fill="#2C2C2C"/>
  <path d="M46.2662 75.8403C46.2001 75.8785 46.1334 75.9476 46.0828 76.0381L44.2763 79.3449C44.1315 79.6088 44.2429 79.8393 44.4573 79.7154L45.2322 79.2681L45.2519 84.6721C45.2525 84.7888 45.3353 84.8365 45.4371 84.7775L47.1483 83.7894C47.2519 83.7292 47.3323 83.5875 47.3323 83.4707L47.3127 78.0667L48.0876 77.6194C48.302 77.4955 48.4122 77.1376 48.2686 77.0399L46.4473 75.8272C46.3984 75.7945 46.3323 75.8022 46.2662 75.8403Z" fill="#2C2C2C"/>
  <path d="M40.9553 78.905C40.8892 78.9431 40.8236 79.0116 40.7754 79.1004L38.9671 82.4084C38.8224 82.6723 38.9362 82.9016 39.1506 82.7777L39.9255 82.3304L39.9451 87.7344C39.9457 87.8511 40.0267 87.9 40.1304 87.8398L41.8415 86.8517C41.9428 86.7933 42.0256 86.6498 42.0256 86.533L42.0059 81.129L42.7808 80.6817C42.9952 80.5579 43.1054 80.1999 42.9571 80.1046L41.1381 78.8907C41.0875 78.8592 41.0214 78.8669 40.9553 78.905Z" fill="#2C2C2C"/>
  <path d="M47.959 85.7085C48.1466 85.6001 48.3009 85.6883 48.3015 85.9039L48.3074 87.9558C48.308 88.1749 48.155 88.4364 47.9674 88.5448L40.4656 92.8541C40.275 92.9643 40.1237 92.8779 40.1231 92.6593L40.1172 90.6074C40.1166 90.3918 40.2667 90.1286 40.4573 90.0184L47.959 85.7085Z" fill="#2C2C2C"/>
  <path d="M119.317 18.4398L119.233 40.9015C119.229 41.6919 118.951 42.2482 118.5 42.5085L116.23 43.8331C116.283 43.798 116.336 43.7623 116.385 43.7182L116.389 43.714C116.424 43.6878 116.455 43.6568 116.486 43.6211L116.49 43.6169C116.53 43.5729 116.565 43.5288 116.6 43.4758L116.604 43.4716C116.644 43.4186 116.679 43.3614 116.706 43.2995C116.732 43.2554 116.755 43.2066 116.772 43.1536C116.794 43.1053 116.812 43.0523 116.83 42.9945C116.847 42.9415 116.861 42.8796 116.874 42.8224C116.883 42.7872 116.887 42.7515 116.892 42.7164C116.892 42.7122 116.896 42.7033 116.896 42.6985C116.9 42.6675 116.905 42.6324 116.909 42.6014C116.913 42.5573 116.918 42.5133 116.922 42.4692C116.926 42.3941 116.931 42.3191 116.931 42.2441L117.015 19.7823C117.019 18.1926 115.906 16.2587 114.52 15.46L92.4619 2.74066C91.9806 2.46251 91.5304 2.36066 91.1504 2.4095C91.0974 2.41367 91.0443 2.42737 90.9961 2.44048C90.9919 2.44048 90.9872 2.44048 90.9872 2.44048C90.9383 2.45358 90.8901 2.47145 90.8412 2.48931C90.8323 2.49348 90.8281 2.49349 90.8192 2.49825C90.7751 2.51612 90.7352 2.53816 90.6953 2.56019L92.9783 1.22662C93.4333 0.96157 94.0647 0.997306 94.7622 1.39875L116.821 14.118C118.204 14.9168 119.321 16.8507 119.317 18.4398Z" fill="#F0F2F5"/>
  <path d="M116.23 43.9498C116.192 43.9498 116.154 43.9301 116.132 43.895C116.099 43.8414 116.114 43.7717 116.167 43.7365C116.215 43.705 116.263 43.6728 116.307 43.6329C116.346 43.6019 116.371 43.5775 116.4 43.5453C116.441 43.4995 116.473 43.459 116.505 43.4113C116.509 43.4048 116.519 43.3947 116.524 43.3893C116.55 43.3518 116.58 43.3017 116.601 43.2535C116.63 43.2023 116.649 43.1612 116.663 43.1171C116.687 43.0617 116.704 43.0135 116.719 42.9605C116.735 42.9146 116.746 42.8658 116.756 42.8187C116.77 42.7633 116.774 42.7335 116.777 42.7032C116.778 42.6948 116.782 42.6781 116.785 42.6704L116.808 42.4572C116.813 42.3762 116.817 42.3101 116.817 42.2439L116.901 19.7816C116.905 18.2312 115.812 16.3372 114.464 15.5599L92.4054 2.84061C91.9652 2.58629 91.5376 2.47669 91.1665 2.52434C91.1153 2.52851 91.07 2.54042 91.0272 2.55174C91.0176 2.55472 91.0075 2.55591 90.9974 2.55591C90.9741 2.56425 90.9283 2.58093 90.883 2.5976C90.8258 2.62024 90.7913 2.63989 90.7567 2.65836C90.7008 2.68933 90.6287 2.67027 90.5977 2.61488C90.5661 2.55948 90.5834 2.49039 90.6388 2.45823L92.9218 1.12465C93.4352 0.825657 94.1094 0.88641 94.8218 1.29619L116.88 14.0155C118.292 14.8321 119.437 16.8167 119.432 18.4391L119.348 40.9008C119.344 41.7097 119.063 42.3154 118.558 42.6079L116.288 43.9319C116.271 43.945 116.251 43.9498 116.23 43.9498ZM117.006 42.7413C117.001 42.7836 116.996 42.8181 116.987 42.8521C116.971 42.9253 116.958 42.9825 116.941 43.0319C116.923 43.0915 116.904 43.1493 116.88 43.2017C116.864 43.2505 116.838 43.3071 116.807 43.3589C116.806 43.3607 116.806 43.3619 116.805 43.3637L118.441 42.4089C118.872 42.1594 119.112 41.6239 119.116 40.9014L119.2 18.4403C119.205 16.8917 118.112 14.9983 116.764 14.2186L94.7051 1.4993C94.0683 1.1324 93.4757 1.07105 93.0379 1.32657L91.4012 2.28253C91.7508 2.29563 92.1344 2.41654 92.5209 2.63989L114.579 15.3592C115.991 16.1734 117.136 18.158 117.132 19.7828L117.048 42.2445C117.048 42.3142 117.044 42.3851 117.04 42.4554L117.011 42.7157C117.011 42.7216 117.008 42.7335 117.006 42.7413Z" fill="#2C2C2C"/>
  <path d="M117.015 19.7842L116.931 42.2459C116.931 42.321 116.927 42.396 116.922 42.4711C116.918 42.5152 116.913 42.5592 116.909 42.6033C116.905 42.6343 116.9 42.6694 116.896 42.7004C116.896 42.7046 116.892 42.7135 116.892 42.7183C116.888 42.7534 116.883 42.7891 116.874 42.8243C116.861 42.8815 116.848 42.9434 116.83 42.9964C116.812 43.0536 116.795 43.1066 116.773 43.1554C116.755 43.2085 116.733 43.2567 116.707 43.3014C116.676 43.3633 116.641 43.4205 116.605 43.4735L116.601 43.4777C116.566 43.5307 116.53 43.5747 116.49 43.6188L116.486 43.623C116.455 43.6581 116.424 43.6891 116.389 43.7159L116.385 43.7201C116.336 43.7642 116.284 43.7993 116.231 43.835L116.227 43.8392C115.772 44.1174 115.132 44.0864 114.425 43.676L92.3664 30.9609C90.9798 30.1616 89.863 28.2234 89.8672 26.6338L89.9512 4.17679C89.9554 3.37748 90.2383 2.82118 90.6975 2.56089C90.7374 2.53886 90.7767 2.51682 90.8214 2.49895C90.8303 2.49478 90.8345 2.49478 90.8434 2.49001C90.8922 2.47215 90.9405 2.45487 90.9893 2.44117C90.9893 2.44117 90.9935 2.44117 90.9983 2.44117C91.0471 2.42807 91.1001 2.41497 91.1525 2.4102C91.5325 2.36136 91.9828 2.46321 92.4641 2.74136L114.523 15.4607C115.907 16.2606 117.019 18.1945 117.015 19.7842Z" fill="white"/>
  <path d="M115.546 44.1335C115.178 44.1335 114.773 44.0126 114.365 43.7755L92.307 31.061C90.8924 30.2456 89.7452 28.2587 89.75 26.6332L89.834 4.17567C89.8388 3.36087 90.1241 2.75096 90.6393 2.45911C90.6869 2.43231 90.7298 2.40908 90.7774 2.39062C90.8543 2.36203 90.9055 2.34297 90.9573 2.32868C90.9674 2.3257 90.9776 2.32451 90.9883 2.32451C91.0222 2.31378 91.0824 2.2989 91.142 2.29413C91.5583 2.23933 92.036 2.36024 92.5214 2.64018L114.58 15.3595C115.991 16.1737 117.137 18.1583 117.132 19.7831L117.048 42.2448C117.048 42.3145 117.045 42.3854 117.04 42.4557L117.011 42.716C117.01 42.7219 117.008 42.7332 117.005 42.741C117 42.7833 116.995 42.8178 116.987 42.8518C116.97 42.925 116.958 42.9822 116.94 43.0316C116.922 43.0912 116.903 43.149 116.879 43.2014C116.863 43.2502 116.837 43.3068 116.806 43.3586C116.777 43.4176 116.739 43.4795 116.701 43.5361C116.697 43.5427 116.688 43.5528 116.682 43.5581C116.658 43.5986 116.619 43.6469 116.576 43.6951C116.534 43.7428 116.497 43.7773 116.458 43.8071C116.41 43.853 116.351 43.8917 116.293 43.9304C116.074 44.0668 115.82 44.1335 115.546 44.1335ZM91.3379 2.51451C91.2795 2.51451 91.2218 2.51808 91.1658 2.52523C91.1146 2.5294 91.0693 2.54131 91.0264 2.55263C91.0169 2.5556 91.0068 2.5568 90.9966 2.5568C90.9734 2.56513 90.9275 2.58181 90.8823 2.59849C90.8251 2.62112 90.7905 2.64078 90.756 2.65924C90.3141 2.90999 90.0705 3.44843 90.0663 4.17626L89.9823 26.6332C89.9775 28.1848 91.0729 30.0806 92.4231 30.8591L114.482 43.5742C115.118 43.9441 115.731 44.0043 116.164 43.7392C116.214 43.7053 116.262 43.6731 116.306 43.6332C116.345 43.6022 116.37 43.5778 116.398 43.5456C116.44 43.4998 116.472 43.4593 116.504 43.4116C116.508 43.4051 116.517 43.3949 116.523 43.3896C116.541 43.358 116.573 43.305 116.603 43.2472C116.629 43.2026 116.648 43.1609 116.663 43.1174C116.687 43.062 116.703 43.0138 116.719 42.9608C116.734 42.9149 116.745 42.866 116.756 42.819C116.769 42.7636 116.773 42.7338 116.776 42.7034C116.778 42.6951 116.781 42.6784 116.784 42.6707L116.807 42.4581C116.812 42.377 116.816 42.3109 116.816 42.2448L116.9 19.7825C116.905 18.2321 115.812 16.3381 114.463 15.5608L92.4047 2.8415C92.0312 2.62589 91.6661 2.51451 91.3379 2.51451Z" fill="#2C2C2C"/>
  <path d="M100.074 16.1226C100.176 16.1816 100.277 16.287 100.352 16.4246L103.145 21.5338C103.369 21.9418 103.193 22.295 102.862 22.1038L101.665 21.4129L101.636 30.7199C101.635 30.8998 101.51 30.9754 101.35 30.8831L98.7069 29.3571C98.5503 29.2666 98.4222 29.045 98.4228 28.8652L98.4526 19.5581L97.256 18.8672C96.9249 18.676 96.7551 18.1227 96.9838 17.9762L99.7933 16.1012C99.8696 16.0518 99.972 16.0637 100.074 16.1226Z" fill="#CE464A"/>
  <path d="M106.758 35.6964C106.656 35.6375 106.555 35.5321 106.481 35.3945L103.688 30.2853C103.464 29.8773 103.64 29.5241 103.971 29.7153L105.168 30.4062L105.198 21.0992C105.198 20.9193 105.323 20.8437 105.484 20.936L108.126 22.4619C108.283 22.5525 108.411 22.774 108.41 22.9539L108.381 32.261L109.577 32.9519C109.908 33.1431 110.078 33.6964 109.849 33.8429L107.04 35.7179C106.963 35.7673 106.861 35.7554 106.758 35.6964Z" fill="#2C2C2C"/>
  <path d="M113.456 18.8222C112.987 18.5518 112.609 18.7746 112.607 19.3124C112.606 19.8574 112.981 20.5084 113.45 20.7782C113.93 21.0557 114.308 20.8401 114.31 20.2952C114.311 19.7573 113.936 19.0998 113.456 18.8222Z" fill="#2C2C2C"/>
  <path d="M113.842 21.015C113.702 21.015 113.548 20.9692 113.391 20.8781C112.884 20.5862 112.488 19.8977 112.49 19.3116C112.491 19.0066 112.601 18.7761 112.799 18.6618C112.996 18.5486 113.25 18.5695 113.512 18.7208C114.025 19.0168 114.426 19.7083 114.425 20.2944C114.424 20.5999 114.315 20.8304 114.119 20.943C114.036 20.9912 113.942 21.015 113.842 21.015ZM113.078 18.822C113.017 18.822 112.963 18.8357 112.915 18.8631C112.791 18.934 112.723 19.0936 112.722 19.3122C112.721 19.8143 113.073 20.4272 113.506 20.6773C113.703 20.7905 113.88 20.8137 114.003 20.7423C114.125 20.6726 114.192 20.5129 114.193 20.2944C114.194 19.7917 113.836 19.1764 113.396 18.9221C113.281 18.8554 113.173 18.822 113.078 18.822Z" fill="#2C2C2C"/>
  <path d="M110.34 18.9893C110.2 18.9893 110.046 18.9435 109.889 18.8523C109.382 18.5605 108.987 17.8719 108.988 17.2859C108.989 16.9809 109.099 16.7504 109.297 16.6366C109.495 16.5229 109.749 16.5443 110.011 16.6956C110.524 16.9916 110.925 17.6831 110.923 18.2692C110.922 18.5748 110.814 18.8053 110.617 18.9184C110.534 18.9655 110.44 18.9893 110.34 18.9893ZM109.576 16.7963C109.515 16.7963 109.461 16.81 109.412 16.8374C109.289 16.9082 109.221 17.0679 109.22 17.2865C109.219 17.7886 109.571 18.4014 110.004 18.6516C110.201 18.7648 110.376 18.7874 110.501 18.7165C110.622 18.6468 110.689 18.4872 110.69 18.268C110.691 17.7659 110.334 17.1501 109.894 16.8957C109.779 16.8296 109.671 16.7963 109.576 16.7963Z" fill="#2C2C2C"/>
  <path d="M106.833 16.9664C106.693 16.9664 106.54 16.9205 106.382 16.8294C105.876 16.537 105.48 15.8484 105.482 15.2624C105.484 14.958 105.593 14.7269 105.791 14.6131C105.988 14.5 106.242 14.5202 106.505 14.6721C107.018 14.9681 107.419 15.6596 107.418 16.2457C107.416 16.5513 107.308 16.7818 107.111 16.8943C107.027 16.9426 106.934 16.9664 106.833 16.9664ZM106.07 14.7734C106.009 14.7734 105.954 14.7871 105.907 14.8145C105.783 14.8853 105.715 15.045 105.714 15.263C105.712 15.7651 106.064 16.3773 106.499 16.6281C106.695 16.7413 106.871 16.7639 106.995 16.693C107.117 16.6227 107.184 16.4637 107.185 16.2445C107.186 15.7424 106.829 15.1266 106.388 14.8722C106.273 14.8073 106.164 14.7734 106.07 14.7734Z" fill="#2C2C2C"/>
  <path d="M29.9943 119.588C29.1622 119.108 29.1575 118.328 29.9842 117.848C30.8109 117.368 32.1558 117.368 32.9878 117.848C33.8199 118.328 33.8235 119.107 32.9974 119.588C32.1707 120.068 30.8264 120.068 29.9943 119.588Z" fill="white"/>
  <path d="M31.4966 120.062C30.932 120.062 30.3662 119.938 29.9356 119.689C29.4942 119.434 29.2506 119.089 29.25 118.716C29.2494 118.345 29.4888 118.002 29.9242 117.748C30.7825 117.251 32.1816 117.251 33.0446 117.748C33.4854 118.003 33.7284 118.348 33.7296 118.721C33.7302 119.092 33.4902 119.435 33.0548 119.688C32.6259 119.937 32.0613 120.062 31.4966 120.062ZM31.4829 117.603C30.96 117.603 30.4382 117.718 30.0416 117.949C29.6806 118.158 29.4817 118.43 29.4823 118.715C29.4829 119.002 29.6848 119.276 30.0517 119.488C30.8498 119.949 32.1453 119.949 32.938 119.488C33.299 119.278 33.4979 119.006 33.4979 118.722C33.4973 118.435 33.2954 118.161 32.9291 117.95C32.5294 117.719 32.0059 117.603 31.4829 117.603Z" fill="#DBDEE4"/>
  <path d="M31.4856 118.172C31.8102 118.172 32.1235 118.246 32.3469 118.374C32.5261 118.478 32.6286 118.605 32.6286 118.723C32.6286 118.84 32.5279 118.965 32.3522 119.067C32.1313 119.196 31.8186 119.269 31.4945 119.269C31.1705 119.269 30.8566 119.195 30.6339 119.066C30.4546 118.963 30.3516 118.836 30.3516 118.717C30.3516 118.601 30.4522 118.476 30.6279 118.373C30.8489 118.246 31.1616 118.172 31.4856 118.172Z" fill="#CE464A"/>
  <path d="M24.1621 114.004C24.5106 114.004 24.8477 114.083 25.0871 114.221C25.2795 114.332 25.3897 114.468 25.3897 114.595C25.3897 114.72 25.2819 114.856 25.0931 114.965C24.8554 115.103 24.5201 115.183 24.1723 115.183C23.8244 115.183 23.4873 115.103 23.2485 114.965C23.0561 114.854 22.9453 114.717 22.9453 114.591C22.9453 114.466 23.0531 114.331 23.2419 114.221C23.4784 114.083 23.8143 114.004 24.1621 114.004Z" fill="#2C2C2C"/>
  <path d="M95.2126 119.583C96.062 119.092 96.0667 118.297 95.2227 117.807C94.3788 117.317 93.0065 117.317 92.1571 117.807C91.3078 118.297 91.3042 119.092 92.1476 119.583C92.9916 120.073 94.3639 120.073 95.2126 119.583Z" fill="white"/>
  <path d="M93.6768 120.064C93.1009 120.064 92.5255 119.938 92.0877 119.683C91.644 119.425 91.3998 119.076 91.4004 118.698C91.4016 118.319 91.6488 117.966 92.0985 117.707C92.9782 117.2 94.4058 117.199 95.2802 117.707C95.7239 117.965 95.9681 118.315 95.9675 118.692C95.9669 119.072 95.7192 119.424 95.2695 119.684C94.8293 119.937 94.2528 120.064 93.6768 120.064ZM93.6911 117.555C93.1569 117.555 92.622 117.672 92.214 117.908C91.8394 118.125 91.6327 118.405 91.6321 118.699C91.6321 118.989 91.8352 119.268 92.2045 119.483C93.0145 119.954 94.3374 119.954 95.1527 119.483C95.528 119.266 95.7341 118.985 95.7347 118.692C95.7353 118.4 95.5322 118.122 95.1629 117.907C94.7579 117.672 94.2248 117.555 93.6911 117.555Z" fill="#DBDEE4"/>
  <path d="M93.6883 118.135C93.3571 118.135 93.0367 118.21 92.8092 118.341C92.6263 118.447 92.5215 118.577 92.5215 118.697C92.5215 118.816 92.6239 118.944 92.8038 119.048C93.0295 119.179 93.3488 119.255 93.6794 119.255C94.0099 119.255 94.3304 119.179 94.5573 119.048C94.7401 118.942 94.845 118.813 94.8456 118.692C94.8456 118.573 94.7431 118.444 94.5638 118.34C94.3375 118.21 94.0189 118.135 93.6883 118.135Z" fill="#CE464A"/>
  <path d="M101.165 113.879C100.81 113.879 100.466 113.96 100.221 114.101C100.025 114.214 99.9121 114.354 99.9121 114.483C99.9121 114.611 100.022 114.748 100.215 114.86C100.458 115.001 100.8 115.082 101.155 115.082C101.51 115.082 101.854 115.001 102.099 114.86C102.295 114.747 102.408 114.607 102.408 114.477C102.408 114.349 102.298 114.212 102.105 114.1C101.863 113.96 101.52 113.879 101.165 113.879Z" fill="#2C2C2C"/>
</svg>