<svg width="400" height="400" viewBox="0 0 400 400" fill="none" xmlns="http://www.w3.org/2000/svg">
<path d="M304.748 219.814C304.614 219.814 304.484 219.744 304.412 219.62C304.304 219.434 304.366 219.196 304.552 219.086L336.724 200.276C337.608 199.764 338.156 198.81 338.156 197.79V116.89C338.156 116.674 338.332 116.5 338.546 116.5C338.76 116.5 338.936 116.674 338.936 116.89V197.79C338.936 199.088 338.238 200.298 337.116 200.95L304.944 219.76C304.882 219.798 304.814 219.814 304.748 219.814Z" fill="#DBDEE4"/>
<g opacity="0.1">
<path d="M326.925 251.31C360.651 270.782 360.829 302.35 327.331 321.816L279.811 349.432L302.815 362.714L211.449 372.958L228.845 320.008L251.281 332.962L298.801 305.346C316.647 294.974 316.561 278.154 298.589 267.778C280.625 257.406 251.577 257.408 233.731 267.778L208.465 282.462L179.945 265.996L205.211 251.312C238.707 231.844 293.207 231.844 326.925 251.31Z" fill="black"/>
</g>
<path d="M233.73 241.783L233.682 259.335L208.414 274.019L208.464 256.467L233.73 241.783Z" fill="white"/>
<path d="M208.413 274.409C208.345 274.409 208.279 274.391 208.219 274.357C208.099 274.287 208.025 274.159 208.025 274.019L208.075 256.467C208.075 256.329 208.149 256.201 208.269 256.131L233.535 241.447C233.657 241.377 233.805 241.377 233.927 241.447C234.047 241.517 234.121 241.645 234.121 241.785L234.073 259.337C234.073 259.475 233.999 259.603 233.879 259.673L208.611 274.357C208.547 274.391 208.479 274.409 208.413 274.409ZM208.853 256.691L208.805 273.341L233.291 259.111L233.339 242.461L208.853 256.691Z" fill="#2C2C2C"/>
<path d="M208.465 256.468L208.415 274.02L179.895 257.554L179.945 240.002L208.465 256.468Z" fill="white"/>
<path d="M208.414 274.409C208.346 274.409 208.28 274.391 208.22 274.357L179.7 257.889C179.58 257.819 179.506 257.691 179.506 257.551L179.556 239.999C179.556 239.859 179.63 239.731 179.75 239.661C179.872 239.593 180.018 239.591 180.14 239.661L208.66 256.127C208.78 256.197 208.854 256.325 208.854 256.465L208.804 274.017C208.804 274.157 208.73 274.285 208.61 274.355C208.548 274.391 208.48 274.409 208.414 274.409ZM180.282 257.327L208.024 273.345L208.072 256.691L180.33 240.673L180.282 257.327Z" fill="#2C2C2C"/>
<path d="M312.128 260.699L312.078 278.251C312.098 271.409 307.582 264.557 298.54 259.337C280.576 248.965 251.528 248.967 233.682 259.337L233.732 241.785C251.578 231.413 280.628 231.413 298.59 241.785C307.632 247.005 312.146 253.857 312.128 260.699Z" fill="#2C2C2C"/>
<path d="M312.075 278.639C311.859 278.639 311.685 278.463 311.685 278.249C311.705 271.249 306.967 264.651 298.343 259.673C280.509 249.379 251.591 249.377 233.875 259.673C233.753 259.743 233.605 259.743 233.483 259.673C233.363 259.603 233.289 259.475 233.289 259.335L233.337 241.783C233.337 241.645 233.411 241.517 233.531 241.447C251.467 231.027 280.735 231.029 298.783 241.447C307.659 246.571 312.537 253.409 312.515 260.699L312.465 278.251C312.465 278.467 312.291 278.639 312.075 278.639ZM266.067 251.183C277.881 251.183 289.711 253.787 298.735 258.999C305.551 262.935 310.009 267.879 311.701 273.265L311.737 260.699C311.757 253.699 307.019 247.103 298.395 242.123C280.625 231.865 251.849 231.825 234.119 242.011L234.071 258.665C242.963 253.677 254.507 251.183 266.067 251.183Z" fill="#2C2C2C"/>
<path d="M352.34 260.824L352.294 278.378C352.248 291.042 343.928 303.704 327.288 313.38L279.76 340.992L279.806 323.438L327.334 295.826C343.974 286.15 352.31 273.502 352.34 260.824Z" fill="#2C2C2C"/>
<path d="M279.757 341.384C279.689 341.384 279.623 341.366 279.563 341.332C279.443 341.262 279.369 341.134 279.369 340.994L279.415 323.438C279.415 323.3 279.489 323.172 279.609 323.102L327.139 295.49C343.109 286.204 351.919 273.894 351.951 260.826V260.824C351.951 260.608 352.127 260.434 352.341 260.434C352.341 260.434 352.341 260.434 352.343 260.434C352.557 260.434 352.731 260.61 352.731 260.824L352.685 278.378C352.637 291.746 343.687 304.296 327.485 313.718L279.955 341.33C279.893 341.366 279.825 341.384 279.757 341.384ZM280.193 323.664L280.149 340.316L327.091 313.044C343.045 303.768 351.857 291.456 351.903 278.376L351.931 267.624C349.407 278.402 340.961 288.352 327.529 296.164L280.193 323.664Z" fill="#2C2C2C"/>
<path d="M302.814 336.721L302.764 354.273L211.4 364.517L211.448 346.965L302.814 336.721Z" fill="#2C2C2C"/>
<path d="M211.4 364.906C211.304 364.906 211.212 364.87 211.14 364.806C211.058 364.732 211.01 364.626 211.01 364.516L211.058 346.964C211.058 346.766 211.208 346.6 211.404 346.578L302.77 336.334C302.888 336.322 302.994 336.358 303.074 336.432C303.156 336.506 303.204 336.612 303.204 336.722L303.154 354.274C303.154 354.472 303.004 354.638 302.808 354.66L211.444 364.904C211.428 364.904 211.414 364.906 211.4 364.906ZM211.836 347.314L211.79 364.08L302.374 353.924L302.422 337.158L211.836 347.314Z" fill="#2C2C2C"/>
<path d="M326.927 225.316C360.653 244.788 360.831 276.356 327.333 295.822L279.813 323.438L302.817 336.72L211.451 346.964L228.847 294.014L251.283 306.968L298.803 279.352C316.649 268.98 316.563 252.16 298.591 241.784C280.627 231.412 251.579 231.414 233.733 241.784L208.467 256.468L179.947 240.002L205.213 225.318C238.709 205.85 293.209 205.85 326.927 225.316Z" fill="#CE464A"/>
<path d="M211.449 347.354C211.331 347.354 211.221 347.302 211.145 347.21C211.061 347.108 211.037 346.968 211.077 346.842L228.475 293.892C228.511 293.78 228.597 293.692 228.707 293.65C228.815 293.608 228.941 293.618 229.041 293.676L251.281 306.516L298.603 279.014C307.083 274.088 311.747 267.558 311.737 260.632C311.727 253.658 306.989 247.082 298.395 242.12C280.563 231.826 251.643 231.824 233.927 242.12L208.661 256.804C208.539 256.874 208.391 256.874 208.269 256.804L179.749 240.338C179.629 240.268 179.555 240.14 179.555 240.002C179.555 239.862 179.629 239.734 179.749 239.664L205.017 224.98C238.573 205.48 293.349 205.48 327.123 224.98C343.617 234.504 352.713 247.188 352.731 260.698C352.749 274.112 343.799 286.706 327.531 296.162L280.593 323.44L303.013 336.384C303.159 336.468 303.233 336.636 303.201 336.802C303.165 336.966 303.029 337.09 302.863 337.11L211.497 347.354C211.479 347.354 211.463 347.354 211.449 347.354ZM229.067 294.592L212.009 346.51L301.593 336.466L279.617 323.778C279.497 323.708 279.423 323.58 279.423 323.442C279.423 323.302 279.497 323.174 279.617 323.104L327.135 295.488C343.155 286.18 351.967 273.824 351.949 260.7C351.931 247.48 342.975 235.034 326.731 225.656C293.173 206.282 238.749 206.282 205.407 225.656L180.721 240.002L208.463 256.018L233.533 241.448C251.469 231.028 280.737 231.03 298.785 241.448C307.629 246.554 312.507 253.368 312.517 260.634C312.527 267.85 307.725 274.618 298.997 279.692L251.479 307.308C251.357 307.378 251.209 307.378 251.087 307.308L229.067 294.592Z" fill="#2C2C2C"/>
<path d="M211.449 347.354C211.331 347.354 211.221 347.302 211.145 347.21C211.061 347.108 211.037 346.968 211.077 346.842L228.475 293.892C228.511 293.78 228.597 293.692 228.707 293.65C228.815 293.608 228.941 293.618 229.041 293.676L251.281 306.516L298.603 279.014C307.083 274.088 311.747 267.558 311.737 260.632C311.727 253.658 306.989 247.082 298.395 242.12C280.563 231.826 251.643 231.824 233.927 242.12L208.661 256.804C208.539 256.874 208.391 256.874 208.269 256.804L179.749 240.338C179.629 240.268 179.555 240.14 179.555 240.002C179.555 239.862 179.629 239.734 179.749 239.664L205.017 224.98C238.573 205.48 293.349 205.48 327.123 224.98C343.617 234.504 352.713 247.188 352.731 260.698C352.749 274.112 343.799 286.706 327.531 296.162L280.593 323.44L303.013 336.384C303.159 336.468 303.233 336.636 303.201 336.802C303.165 336.966 303.029 337.09 302.863 337.11L211.497 347.354C211.479 347.354 211.463 347.354 211.449 347.354ZM229.067 294.592L212.009 346.51L301.593 336.466L279.617 323.778C279.497 323.708 279.423 323.58 279.423 323.442C279.423 323.302 279.497 323.174 279.617 323.104L327.135 295.488C343.155 286.18 351.967 273.824 351.949 260.7C351.931 247.48 342.975 235.034 326.731 225.656C293.173 206.282 238.749 206.282 205.407 225.656L180.721 240.002L208.463 256.018L233.533 241.448C251.469 231.028 280.737 231.03 298.785 241.448C307.629 246.554 312.507 253.368 312.517 260.634C312.527 267.85 307.725 274.618 298.997 279.692L251.479 307.308C251.357 307.378 251.209 307.378 251.087 307.308L229.067 294.592Z" fill="#2C2C2C"/>
<path d="M318.698 393.41C318.564 393.41 318.434 393.34 318.362 393.218C318.254 393.032 318.316 392.794 318.502 392.684L384.336 354.176C386.096 353.152 387.066 351.814 387.064 350.408C387.062 348.99 386.078 347.642 384.29 346.61L333.902 317.518C333.716 317.41 333.652 317.172 333.758 316.986C333.868 316.798 334.106 316.736 334.292 316.844L384.68 345.936C386.718 347.112 387.84 348.7 387.844 350.408C387.848 352.104 386.74 353.682 384.73 354.852L318.896 393.36C318.834 393.392 318.766 393.41 318.698 393.41Z" fill="#DBDEE4"/>
<path d="M98.7826 392.956C98.7146 392.956 98.6446 392.938 98.5826 392.902L18.9566 345.669C17.4126 344.777 16.5586 343.566 16.5566 342.258C16.5546 340.958 17.3966 339.752 18.9246 338.862L56.2026 317.197C56.3906 317.089 56.6266 317.151 56.7366 317.339C56.8447 317.525 56.7826 317.763 56.5966 317.873L19.3186 339.538C18.0386 340.282 17.3366 341.246 17.3366 342.258C17.3386 343.276 18.0546 344.25 19.3506 345L98.9806 392.233C99.1646 392.343 99.2266 392.582 99.1166 392.768C99.0446 392.888 98.9146 392.956 98.7826 392.956Z" fill="#DBDEE4"/>
<g opacity="0.1">
<path d="M0.341797 278.074L118.656 209.764L237.174 278.64L118.86 346.95L0.341797 278.074Z" fill="black"/>
</g>
<path d="M118.369 333.79L0.775391 265.45L118.167 197.674L235.763 266.012L118.369 333.79Z" fill="white"/>
<path d="M118.369 334.18C118.301 334.18 118.233 334.162 118.173 334.128L0.578763 265.788C0.458763 265.718 0.384766 265.59 0.384766 265.45C0.384766 265.312 0.458763 265.182 0.578763 265.114L117.971 197.338C118.093 197.268 118.241 197.268 118.363 197.338L235.957 265.676C236.077 265.746 236.151 265.874 236.151 266.014C236.151 266.152 236.077 266.282 235.957 266.35L118.563 334.128C118.503 334.162 118.435 334.18 118.369 334.18ZM1.55276 265.452L118.369 333.34L234.985 266.012L118.169 198.126L1.55276 265.452Z" fill="#2C2C2C"/>
<path d="M118.369 333.789L0.774576 265.449L0.392578 130.529L117.987 198.867L118.369 333.789Z" fill="white"/>
<path d="M118.368 334.179C118.3 334.179 118.232 334.161 118.172 334.127L0.578 265.787C0.46 265.717 0.384003 265.589 0.384003 265.451L0 130.531C0 130.391 0.0740002 130.263 0.194 130.193C0.316 130.123 0.464002 130.123 0.586002 130.193L118.18 198.533C118.298 198.603 118.374 198.731 118.374 198.869L118.756 333.789C118.756 333.929 118.682 334.057 118.562 334.127C118.502 334.161 118.434 334.179 118.368 334.179ZM1.164 265.225L117.976 333.111L117.596 199.093L0.782001 131.207L1.164 265.225Z" fill="#2C2C2C"/>
<path d="M117.987 198.868L0.392578 130.53L117.785 62.752L235.379 131.092L117.987 198.868Z" fill="white"/>
<path d="M117.986 199.258C117.918 199.258 117.85 199.24 117.79 199.206L0.195953 130.866C0.0759534 130.796 0.00195312 130.668 0.00195312 130.528C0.00195312 130.39 0.0759534 130.26 0.195953 130.192L117.59 62.4158C117.712 62.3458 117.86 62.3458 117.982 62.4158L235.576 130.754C235.696 130.824 235.77 130.952 235.77 131.092C235.77 131.23 235.696 131.36 235.576 131.428L118.182 199.206C118.12 199.242 118.052 199.258 117.986 199.258ZM1.16795 130.53L117.984 198.418L234.6 131.09L117.784 63.2038L1.16795 130.53Z" fill="#2C2C2C"/>
<path d="M190.534 157.006L163.186 172.786L45.584 104.452L72.932 88.6719L190.534 157.006Z" fill="#CE464A"/>
<path d="M163.183 173.176C163.117 173.176 163.047 173.158 162.987 173.124L45.3874 104.79C45.2674 104.72 45.1934 104.592 45.1934 104.452C45.1934 104.314 45.2674 104.184 45.3874 104.116L72.7374 88.3357C72.8594 88.2657 73.0074 88.2657 73.1294 88.3357L190.729 156.67C190.849 156.74 190.923 156.868 190.923 157.008C190.923 157.146 190.849 157.276 190.729 157.344L163.381 173.124C163.317 173.158 163.251 173.176 163.183 173.176ZM46.3614 104.454L163.183 172.336L189.753 157.006L72.9334 89.1217L46.3614 104.454Z" fill="#2C2C2C"/>
<path d="M235.768 266.022L118.358 333.796L117.982 198.876L163.186 172.786L190.534 157.006L235.392 131.102L235.768 266.022Z" fill="white"/>
<path d="M118.358 334.185C118.29 334.185 118.224 334.167 118.164 334.133C118.044 334.063 117.97 333.935 117.97 333.795L117.592 198.875C117.592 198.735 117.666 198.607 117.786 198.537L235.196 130.763C235.318 130.693 235.464 130.693 235.586 130.763C235.706 130.833 235.78 130.961 235.78 131.101L236.156 266.021C236.156 266.161 236.082 266.289 235.962 266.359L118.552 334.133C118.492 334.167 118.426 334.185 118.358 334.185ZM118.37 199.101L118.746 333.121L235.376 265.797L235.002 131.775L118.37 199.101Z" fill="#2C2C2C"/>
<path d="M163.23 172.664V208.608L176.88 186.322L190.528 192.95L190.526 157.006L163.23 172.664Z" fill="#CE464A"/>
<path d="M163.23 208.997C163.194 208.997 163.16 208.993 163.124 208.983C162.954 208.935 162.84 208.781 162.84 208.607L162.838 172.663C162.838 172.523 162.912 172.395 163.034 172.325L190.332 156.667C190.45 156.599 190.602 156.597 190.72 156.667C190.84 156.737 190.914 156.865 190.914 157.005L190.916 192.949C190.916 193.083 190.848 193.207 190.734 193.279C190.62 193.351 190.48 193.357 190.356 193.299L177.024 186.825L163.56 208.809C163.492 208.929 163.364 208.997 163.23 208.997ZM163.618 172.889L163.62 207.225L176.546 186.119C176.652 185.947 176.868 185.887 177.048 185.971L190.138 192.327L190.136 157.679L163.618 172.889Z" fill="#2C2C2C"/>
<path d="M153.438 251.5C153.216 251.628 152.992 251.86 152.822 252.164L146.756 263.268C146.27 264.154 146.644 264.928 147.364 264.512L149.966 263.01L150.032 281.156C150.034 281.548 150.312 281.708 150.654 281.51L156.4 278.192C156.748 277.99 157.018 277.514 157.018 277.122L156.952 258.976L159.554 257.474C160.274 257.058 160.644 255.856 160.162 255.528L154.046 251.456C153.882 251.346 153.66 251.372 153.438 251.5Z" fill="#2C2C2C"/>
<path d="M135.606 261.796C135.384 261.924 135.164 262.154 135.002 262.452L128.93 273.56C128.444 274.446 128.826 275.216 129.546 274.8L132.148 273.298L132.214 291.444C132.216 291.836 132.488 292 132.836 291.798L138.582 288.48C138.922 288.284 139.2 287.802 139.2 287.41L139.134 269.264L141.736 267.762C142.456 267.346 142.826 266.144 142.328 265.824L136.22 261.748C136.05 261.642 135.828 261.668 135.606 261.796Z" fill="#2C2C2C"/>
<path d="M159.119 284.642C159.749 284.278 160.267 284.574 160.269 285.298L160.289 292.188C160.291 292.924 159.777 293.802 159.147 294.166L133.957 308.636C133.317 309.006 132.809 308.716 132.807 307.982L132.787 301.092C132.785 300.368 133.289 299.484 133.929 299.114L159.119 284.642Z" fill="#2C2C2C"/>
<path d="M398.751 58.7731L398.469 134.197C398.455 136.851 397.521 138.719 396.007 139.593L388.387 144.041C388.565 143.923 388.743 143.803 388.905 143.655L388.919 143.641C389.037 143.553 389.141 143.449 389.245 143.329L389.259 143.315C389.393 143.167 389.511 143.019 389.629 142.841L389.643 142.827C389.777 142.649 389.895 142.457 389.985 142.249C390.073 142.101 390.149 141.937 390.207 141.759C390.281 141.597 390.341 141.419 390.399 141.225C390.459 141.047 390.503 140.839 390.547 140.647C390.577 140.529 390.591 140.409 390.607 140.291C390.607 140.277 390.621 140.247 390.621 140.231C390.635 140.127 390.651 140.009 390.665 139.905C390.679 139.757 390.695 139.609 390.709 139.461C390.723 139.209 390.739 138.957 390.739 138.705L391.021 63.2811C391.035 57.9431 387.299 51.4491 382.645 48.7671L308.575 6.05711C306.959 5.12311 305.447 4.78111 304.171 4.94511C303.993 4.95911 303.815 5.00511 303.653 5.04911C303.639 5.04911 303.623 5.04911 303.623 5.04911C303.459 5.09311 303.297 5.1531 303.133 5.2131C303.103 5.2271 303.089 5.22711 303.059 5.24311C302.911 5.30311 302.777 5.37711 302.643 5.45111L310.309 0.973108C311.837 0.0831085 313.957 0.203105 316.299 1.55111L390.369 44.2611C395.015 46.9431 398.765 53.4371 398.751 58.7731Z" fill="#F0F2F5"/>
<path d="M388.386 144.43C388.256 144.43 388.128 144.364 388.056 144.246C387.944 144.066 387.996 143.832 388.172 143.714C388.334 143.608 388.494 143.5 388.644 143.366C388.774 143.262 388.858 143.18 388.954 143.072C389.094 142.918 389.202 142.782 389.308 142.622C389.322 142.6 389.354 142.566 389.372 142.548C389.46 142.422 389.56 142.254 389.63 142.092C389.728 141.92 389.792 141.782 389.84 141.634C389.92 141.448 389.976 141.286 390.028 141.108C390.08 140.954 390.116 140.79 390.152 140.632C390.198 140.446 390.21 140.346 390.222 140.244C390.226 140.216 390.238 140.16 390.248 140.134L390.326 139.418C390.342 139.146 390.354 138.924 390.354 138.702L390.636 63.2764C390.652 58.0704 386.982 51.7104 382.454 49.1004L308.384 6.39044C306.906 5.53644 305.47 5.16844 304.224 5.32844C304.052 5.34244 303.9 5.38244 303.756 5.42044C303.724 5.43044 303.69 5.43444 303.656 5.43444C303.578 5.46244 303.424 5.51844 303.272 5.57444C303.08 5.65044 302.964 5.71644 302.848 5.77844C302.66 5.88244 302.418 5.81844 302.314 5.63244C302.208 5.44644 302.266 5.21444 302.452 5.10644L310.118 0.628445C311.842 -0.375555 314.106 -0.171554 316.498 1.20445L390.568 43.9144C395.31 46.6564 399.154 53.3204 399.138 58.7684L398.856 134.192C398.84 136.908 397.896 138.942 396.2 139.924L388.58 144.37C388.522 144.414 388.454 144.43 388.386 144.43ZM390.99 140.372C390.974 140.514 390.956 140.63 390.928 140.744C390.872 140.99 390.83 141.182 390.772 141.348C390.71 141.548 390.646 141.742 390.566 141.918C390.512 142.082 390.426 142.272 390.322 142.446C390.32 142.452 390.318 142.456 390.314 142.462L395.808 139.256C397.256 138.418 398.062 136.62 398.076 134.194L398.358 58.7724C398.374 53.5724 394.704 47.2144 390.176 44.5964L316.106 1.88645C313.968 0.654447 311.978 0.448442 310.508 1.30644L305.012 4.51645C306.186 4.56045 307.474 4.96645 308.772 5.71644L382.842 48.4264C387.582 51.1604 391.428 57.8244 391.412 63.2804L391.13 138.704C391.13 138.938 391.118 139.176 391.104 139.412L391.006 140.286C391.008 140.306 390.998 140.346 390.99 140.372Z" fill="#2C2C2C"/>
<path d="M391.027 63.2818L390.745 138.706C390.745 138.958 390.731 139.21 390.715 139.462C390.701 139.61 390.685 139.758 390.671 139.906C390.657 140.01 390.641 140.128 390.627 140.232C390.627 140.246 390.613 140.276 390.613 140.292C390.599 140.41 390.583 140.53 390.553 140.648C390.509 140.84 390.465 141.048 390.405 141.226C390.345 141.418 390.287 141.596 390.213 141.76C390.153 141.938 390.079 142.1 389.991 142.25C389.887 142.458 389.769 142.65 389.649 142.828L389.635 142.842C389.517 143.02 389.397 143.168 389.265 143.316L389.251 143.33C389.147 143.448 389.043 143.552 388.925 143.642L388.911 143.656C388.747 143.804 388.571 143.922 388.393 144.042L388.379 144.056C386.851 144.99 384.703 144.886 382.329 143.508L308.259 100.812C303.603 98.1278 299.853 91.6199 299.867 86.2819L300.149 10.8739C300.163 8.18985 301.113 6.32185 302.655 5.44785C302.789 5.37385 302.921 5.29985 303.071 5.23985C303.101 5.22585 303.115 5.22585 303.145 5.20985C303.309 5.14985 303.471 5.09185 303.635 5.04585C303.635 5.04585 303.649 5.04585 303.665 5.04585C303.829 5.00185 304.007 4.95785 304.183 4.94185C305.459 4.77785 306.971 5.11985 308.587 6.05385L382.657 48.7638C387.305 51.4498 391.041 57.9439 391.027 63.2818Z" fill="white"/>
<path d="M386.091 145.047C384.855 145.047 383.497 144.641 382.127 143.845L308.057 101.151C303.307 98.413 299.455 91.741 299.471 86.283L299.753 10.873C299.769 8.13697 300.727 6.08897 302.457 5.10897C302.617 5.01897 302.761 4.94097 302.921 4.87897C303.179 4.78297 303.351 4.71897 303.525 4.67097C303.559 4.66097 303.593 4.65697 303.629 4.65697C303.743 4.62097 303.945 4.57097 304.145 4.55497C305.543 4.37097 307.147 4.77697 308.777 5.71697L382.847 48.427C387.587 51.161 391.433 57.825 391.417 63.281L391.135 138.705C391.135 138.939 391.123 139.177 391.109 139.413L391.011 140.287C391.007 140.307 390.999 140.345 390.991 140.371C390.975 140.513 390.957 140.629 390.929 140.743C390.873 140.989 390.831 141.181 390.773 141.347C390.711 141.547 390.647 141.741 390.567 141.917C390.513 142.081 390.427 142.271 390.323 142.445C390.225 142.643 390.097 142.851 389.971 143.041C389.955 143.063 389.925 143.097 389.907 143.115C389.825 143.251 389.695 143.413 389.549 143.575C389.409 143.735 389.285 143.851 389.155 143.951C388.991 144.105 388.795 144.235 388.601 144.365C387.863 144.823 387.011 145.047 386.091 145.047ZM304.803 5.29497C304.607 5.29497 304.413 5.30697 304.225 5.33097C304.053 5.34497 303.901 5.38497 303.757 5.42297C303.725 5.43297 303.691 5.43697 303.657 5.43697C303.579 5.46497 303.425 5.52097 303.273 5.57697C303.081 5.65297 302.965 5.71897 302.849 5.78097C301.365 6.62297 300.547 8.43097 300.533 10.875L300.251 86.283C300.235 91.493 303.913 97.859 308.447 100.473L382.517 143.169C384.653 144.411 386.711 144.613 388.167 143.723C388.333 143.609 388.495 143.501 388.643 143.367C388.773 143.263 388.857 143.181 388.953 143.073C389.093 142.919 389.201 142.783 389.307 142.623C389.321 142.601 389.353 142.567 389.371 142.549C389.433 142.443 389.541 142.265 389.641 142.071C389.727 141.921 389.791 141.781 389.841 141.635C389.921 141.449 389.977 141.287 390.029 141.109C390.081 140.955 390.117 140.791 390.153 140.633C390.199 140.447 390.211 140.347 390.223 140.245C390.227 140.217 390.239 140.161 390.249 140.135L390.327 139.421C390.343 139.149 390.355 138.927 390.355 138.705L390.637 63.279C390.653 58.073 386.983 51.713 382.455 49.103L308.385 6.39297C307.131 5.66897 305.905 5.29497 304.803 5.29497Z" fill="#2C2C2C"/>
<path d="M334.139 50.9804C334.481 51.1784 334.821 51.5324 335.073 51.9944L344.453 69.1504C345.203 70.5204 344.613 71.7064 343.501 71.0644L339.483 68.7444L339.383 99.9964C339.381 100.6 338.961 100.854 338.423 100.544L329.549 95.4204C329.023 95.1164 328.593 94.3724 328.595 93.7684L328.695 62.5164L324.677 60.1964C323.565 59.5544 322.995 57.6964 323.763 57.2044L333.197 50.9084C333.453 50.7424 333.797 50.7824 334.139 50.9804Z" fill="#CE464A"/>
<path d="M356.579 116.716C356.237 116.518 355.897 116.164 355.647 115.702L346.269 98.5461C345.519 97.1761 346.109 95.9902 347.221 96.6322L351.239 98.9522L351.339 67.7002C351.341 67.0962 351.761 66.8422 352.299 67.1522L361.173 72.2762C361.699 72.5802 362.129 73.3242 362.127 73.9282L362.027 105.18L366.045 107.5C367.157 108.142 367.727 110 366.959 110.492L357.525 116.788C357.267 116.954 356.923 116.914 356.579 116.716Z" fill="#2C2C2C"/>
<path d="M379.065 60.043C377.493 59.135 376.223 59.883 376.217 61.689C376.211 63.519 377.473 65.705 379.045 66.611C380.657 67.543 381.927 66.819 381.933 64.989C381.939 63.183 380.677 60.975 379.065 60.043Z" fill="#2C2C2C"/>
<path d="M380.364 67.4092C379.894 67.4092 379.378 67.2552 378.85 66.9492C377.148 65.9692 375.82 63.6572 375.826 61.6892C375.83 60.6652 376.198 59.8912 376.864 59.5072C377.524 59.1272 378.376 59.1972 379.258 59.7052C380.98 60.6992 382.326 63.0212 382.322 64.9892C382.318 66.0152 381.954 66.7892 381.296 67.1672C381.016 67.3292 380.702 67.4092 380.364 67.4092ZM377.8 60.0452C377.596 60.0452 377.412 60.0912 377.252 60.1832C376.836 60.4212 376.608 60.9572 376.604 61.6912C376.6 63.3772 377.782 65.4352 379.238 66.2752C379.898 66.6552 380.492 66.7332 380.906 66.4932C381.314 66.2592 381.54 65.7232 381.542 64.9892C381.546 63.3012 380.346 61.2352 378.868 60.3812C378.482 60.1572 378.118 60.0452 377.8 60.0452Z" fill="#2C2C2C"/>
<path d="M368.601 60.617C368.131 60.617 367.615 60.463 367.087 60.157C365.385 59.177 364.057 56.865 364.063 54.897C364.067 53.873 364.435 53.099 365.101 52.717C365.765 52.335 366.617 52.407 367.497 52.915C369.219 53.909 370.565 56.231 370.561 58.199C370.557 59.225 370.193 59.999 369.533 60.379C369.253 60.537 368.939 60.617 368.601 60.617ZM366.035 53.253C365.833 53.253 365.649 53.299 365.487 53.391C365.073 53.629 364.845 54.165 364.841 54.899C364.837 56.585 366.019 58.643 367.475 59.483C368.135 59.863 368.723 59.939 369.141 59.701C369.549 59.467 369.775 58.931 369.777 58.195C369.781 56.509 368.581 54.441 367.103 53.587C366.719 53.365 366.355 53.253 366.035 53.253Z" fill="#2C2C2C"/>
<path d="M356.835 53.8239C356.365 53.8239 355.849 53.6699 355.321 53.3639C353.619 52.3819 352.291 50.0699 352.299 48.1019C352.303 47.0799 352.669 46.3039 353.335 45.9219C353.997 45.5419 354.849 45.6099 355.731 46.1199C357.455 47.1139 358.801 49.4359 358.797 51.4039C358.793 52.4299 358.429 53.2039 357.769 53.5819C357.487 53.7439 357.173 53.8239 356.835 53.8239ZM354.271 46.4599C354.067 46.4599 353.883 46.5059 353.723 46.5979C353.309 46.8359 353.079 47.3719 353.077 48.1039C353.071 49.7899 354.253 51.8459 355.711 52.6879C356.371 53.0679 356.963 53.1439 357.379 52.9059C357.787 52.6699 358.013 52.1359 358.015 51.3999C358.019 49.7139 356.819 47.6459 355.339 46.7919C354.953 46.5739 354.589 46.4599 354.271 46.4599Z" fill="#2C2C2C"/>
<path d="M98.8167 398.408C96.0227 396.796 96.0067 394.178 98.7827 392.566C101.559 390.954 106.075 390.954 108.869 392.566C111.663 394.178 111.675 396.794 108.901 398.406C106.125 400.02 101.611 400.02 98.8167 398.408Z" fill="white"/>
<path d="M103.864 400.001C101.968 400.001 100.068 399.583 98.6223 398.747C97.1403 397.891 96.3223 396.731 96.3203 395.479C96.3183 394.235 97.1223 393.081 98.5843 392.231C101.466 390.559 106.164 390.559 109.062 392.231C110.542 393.085 111.358 394.245 111.362 395.497C111.364 396.741 110.558 397.895 109.096 398.745C107.656 399.581 105.76 400.001 103.864 400.001ZM103.818 391.743C102.062 391.743 100.31 392.129 98.9783 392.903C97.7663 393.607 97.0983 394.521 97.1003 395.475C97.1023 396.439 97.7803 397.359 99.0123 398.071C101.692 399.619 106.042 399.619 108.704 398.071C109.916 397.367 110.584 396.453 110.584 395.499C110.582 394.537 109.904 393.617 108.674 392.907C107.332 392.131 105.574 391.743 103.818 391.743Z" fill="#DBDEE4"/>
<path d="M103.826 393.645C104.916 393.645 105.968 393.893 106.718 394.325C107.32 394.673 107.664 395.099 107.664 395.495C107.664 395.887 107.326 396.307 106.736 396.651C105.994 397.083 104.944 397.329 103.856 397.329C102.768 397.329 101.714 397.081 100.966 396.649C100.364 396.301 100.018 395.875 100.018 395.477C100.018 395.085 100.356 394.665 100.946 394.321C101.688 393.893 102.738 393.645 103.826 393.645Z" fill="#CE464A"/>
<path d="M79.2344 379.648C80.4044 379.648 81.5364 379.914 82.3404 380.378C82.9864 380.75 83.3564 381.208 83.3564 381.634C83.3564 382.054 82.9944 382.508 82.3604 382.876C81.5624 383.34 80.4364 383.606 79.2684 383.606C78.1004 383.606 76.9684 383.34 76.1664 382.876C75.5204 382.502 75.1484 382.044 75.1484 381.618C75.1484 381.198 75.5104 380.746 76.1444 380.376C76.9384 379.914 78.0664 379.648 79.2344 379.648Z" fill="#2C2C2C"/>
<path d="M317.808 398.382C320.66 396.736 320.676 394.066 317.842 392.42C315.008 390.774 310.4 390.774 307.548 392.42C304.696 394.066 304.684 396.736 307.516 398.382C310.35 400.028 314.958 400.028 317.808 398.382Z" fill="white"/>
<path d="M312.656 399.999C310.722 399.999 308.79 399.573 307.32 398.719C305.83 397.853 305.01 396.679 305.012 395.411C305.016 394.137 305.846 392.953 307.356 392.083C310.31 390.379 315.104 390.377 318.04 392.083C319.53 392.949 320.35 394.125 320.348 395.391C320.346 396.667 319.514 397.849 318.004 398.721C316.526 399.571 314.59 399.999 312.656 399.999ZM312.704 391.571C310.91 391.571 309.114 391.967 307.744 392.757C306.486 393.485 305.792 394.427 305.79 395.413C305.79 396.389 306.472 397.325 307.712 398.045C310.432 399.627 314.874 399.627 317.612 398.045C318.872 397.317 319.564 396.375 319.566 395.389C319.568 394.411 318.886 393.477 317.646 392.755C316.286 391.965 314.496 391.571 312.704 391.571Z" fill="#DBDEE4"/>
<path d="M312.695 393.52C311.583 393.52 310.507 393.774 309.743 394.214C309.129 394.568 308.777 395.004 308.777 395.408C308.777 395.808 309.121 396.237 309.725 396.588C310.483 397.028 311.555 397.279 312.665 397.279C313.775 397.279 314.851 397.027 315.613 396.585C316.227 396.231 316.579 395.796 316.581 395.39C316.581 394.99 316.237 394.56 315.635 394.21C314.875 393.774 313.805 393.52 312.695 393.52Z" fill="#CE464A"/>
<path d="M337.796 379.234C336.602 379.234 335.448 379.506 334.626 379.98C333.966 380.36 333.588 380.828 333.588 381.262C333.588 381.692 333.958 382.154 334.606 382.53C335.42 383.002 336.57 383.274 337.762 383.274C338.954 383.274 340.108 383.002 340.93 382.528C341.59 382.148 341.968 381.68 341.968 381.244C341.968 380.814 341.598 380.354 340.952 379.978C340.138 379.506 338.988 379.234 337.796 379.234Z" fill="#2C2C2C"/>
</svg>
