<svg width="49" height="48" viewBox="0 0 49 48" fill="none" xmlns="http://www.w3.org/2000/svg">
<g clip-path="url(#clip0_301_6144)">
<path d="M47.9831 33.0657C47.0445 33.0503 46.0843 33.0127 45.1292 32.9541C40.1977 32.6508 35.3036 31.7684 30.583 30.3312C29.5867 30.0281 28.5812 29.6944 27.5946 29.3395C25.3575 28.5347 23.1407 27.5923 21.0059 26.5386C17.4231 24.7703 13.9815 22.6485 10.7767 20.2321C9.55471 19.3107 8.35326 18.3355 7.206 17.3338C7.13545 17.2722 7.04497 17.2383 6.95139 17.2383H0.387097C0.173323 17.2383 0 17.4116 0 17.6254V47.6137C0 47.8274 0.173323 48.0008 0.387097 48.0008H47.9768C48.1905 48.0008 48.3639 47.8274 48.3639 47.6137V33.4527C48.3639 33.2413 48.1944 33.0691 47.9831 33.0657ZM20.8585 27.3274C22.9595 28.3555 25.1359 29.2777 27.3325 30.0679C28.264 30.4031 29.2118 30.7182 30.1533 31.0082C30.2896 31.5327 30.359 32.0737 30.359 32.6195C30.359 36.0805 27.588 38.8962 24.1819 38.8962C20.7759 38.8962 18.0048 36.0804 18.0048 32.6195C18.0048 30.4842 19.0932 28.4756 20.8585 27.3274ZM47.5897 47.2266H0.774194V18.0124H6.80632C7.64855 18.7443 8.51884 19.4616 9.40423 20.154H5.72032C5.50655 20.154 5.33323 20.3273 5.33323 20.5411C5.33323 21.7054 4.40294 22.6527 3.25935 22.6527C3.04558 22.6527 2.87226 22.826 2.87226 23.0398V42.1992C2.87226 42.4129 3.04558 42.5862 3.25935 42.5862C4.40284 42.5862 5.33323 43.5335 5.33323 44.6979C5.33323 44.9116 5.50655 45.085 5.72032 45.085H42.6435C42.8573 45.085 43.0306 44.9116 43.0306 44.6979C43.0306 43.5335 43.9614 42.5862 45.1055 42.5862C45.3193 42.5862 45.4926 42.4129 45.4926 42.1992V33.75C46.1943 33.7887 46.8967 33.8167 47.5897 33.8323V47.2266Z" fill="#CE464A"/>
<path d="M48.699 26.0572C45.2297 21.3772 41.7603 16.6972 38.2899 12.0172C38.1969 11.8916 38.0373 11.8346 37.8857 11.8721C37.734 11.9098 37.6198 12.0349 37.5962 12.1895L36.7302 17.8721C31.6907 15.4494 27.1037 12.3425 23.0887 8.63148C20.3427 6.09416 17.8309 3.24455 15.6233 0.16171C15.5508 0.0601935 15.4336 0 15.3087 0H7.88904C7.74872 0 7.61943 0.075871 7.55111 0.198387C7.48269 0.320903 7.48588 0.47071 7.55953 0.590129C10.5888 5.50694 14.243 9.95816 18.4205 13.82C23.0472 18.0965 28.3401 21.6562 34.1593 24.4054L31.0127 29.0702C30.9258 29.199 30.9243 29.3672 31.0089 29.4975C31.0811 29.6086 31.204 29.6738 31.3335 29.6738C31.3556 29.6738 31.3781 29.6718 31.4005 29.6679L48.455 26.6688C48.5871 26.6456 48.6978 26.5556 48.7475 26.431C48.7973 26.3064 48.7789 26.1649 48.699 26.0572Z" fill="#CE464A"/>
</g>
<defs>
<clipPath id="clip0_301_6144">
<rect width="48.7742" height="48" fill="white"/>
</clipPath>
</defs>
</svg>
