<svg width="144" height="150" viewBox="0 0 144 150" fill="none" xmlns="http://www.w3.org/2000/svg">
<path d="M100.639 88.0144C100.591 88.0144 100.545 87.9895 100.519 87.9456C100.48 87.8791 100.503 87.7942 100.569 87.7554L118.39 77.336C118.902 77.0382 119.22 76.4851 119.22 75.8925V45.5824C119.22 45.5055 119.283 45.4434 119.359 45.4434C119.435 45.4434 119.498 45.5055 119.498 45.5824V75.8925C119.498 76.5839 119.127 77.2292 118.529 77.5767L100.708 87.9961C100.687 88.0078 100.662 88.0144 100.639 88.0144Z" fill="#DBDEE4"/>
<g opacity="0.1">
<path d="M44.7172 138.97L89.1422 113.153L44.7933 87.5488L0.369141 113.366L44.7172 138.97Z" fill="black"/>
</g>
<path d="M44.7539 134.019L89.1788 108.202L89.323 57.2324L44.8988 83.0491L44.7539 134.019Z" fill="white"/>
<path d="M44.7542 134.159C44.7301 134.159 44.7067 134.152 44.6847 134.14C44.6416 134.115 44.6152 134.069 44.6152 134.019L44.7594 83.0491C44.7594 82.9993 44.7857 82.954 44.8281 82.9291L89.2523 57.1124C89.2962 57.0875 89.3489 57.0875 89.3921 57.1124C89.4352 57.1373 89.4616 57.1834 89.4616 57.2331L89.3174 108.203C89.3174 108.253 89.2911 108.298 89.2487 108.323L44.8245 134.14C44.8025 134.153 44.7777 134.159 44.7542 134.159ZM45.0374 83.1303L44.894 133.777L89.0394 108.123L89.1828 57.476L45.0374 83.1303Z" fill="#373B42"/>
<path d="M44.8989 83.0501L89.3231 57.2334L44.975 31.6289L0.550781 57.4456L44.8989 83.0501Z" fill="white"/>
<path d="M44.8992 83.1898C44.8751 83.1898 44.8517 83.1832 44.8297 83.1708L0.481612 57.5663C0.438448 57.5414 0.412109 57.4953 0.412109 57.4463C0.412109 57.3965 0.438447 57.3505 0.48088 57.3256L44.9051 31.5089C44.949 31.484 45.0016 31.484 45.0448 31.5089L89.3929 57.1134C89.4361 57.1383 89.4624 57.1844 89.4624 57.2334C89.4624 57.2831 89.4361 57.3292 89.3936 57.3541L44.9695 83.1708C44.9475 83.184 44.9234 83.1898 44.8992 83.1898ZM0.829122 57.4456L44.8992 82.8891L89.0454 57.2334L44.9753 31.7906L0.829122 57.4456Z" fill="#373B42"/>
<path d="M17.4922 67.2344L27.8231 73.1962L72.2502 47.381L61.9186 41.4199L17.4922 67.2344Z" fill="#CE464A"/>
<path d="M27.8222 73.3359C27.7981 73.3359 27.7747 73.3293 27.7527 73.3169L17.4211 67.3558C17.3779 67.331 17.3516 67.2849 17.3516 67.2358C17.3516 67.1861 17.3779 67.14 17.4203 67.1151L61.8467 41.2999C61.8906 41.275 61.9433 41.275 61.9865 41.2999L72.3181 47.2617C72.3613 47.2866 72.3876 47.3327 72.3876 47.3817C72.3876 47.4314 72.3613 47.4775 72.3188 47.5024L27.8924 73.3169C27.8712 73.3293 27.8464 73.3359 27.8222 73.3359ZM17.7693 67.2344L27.8222 73.0352L71.9706 47.3824L61.9177 41.5816L17.7693 67.2344Z" fill="#373B42"/>
<path d="M0.402344 108.419L44.7563 134.022L44.899 83.053L27.822 73.1969L17.491 67.2351L0.544274 57.4492L0.402344 108.419Z" fill="white"/>
<path d="M44.7566 134.162C44.7325 134.162 44.7091 134.155 44.6871 134.143L0.333173 108.539C0.290008 108.515 0.263672 108.468 0.263672 108.419L0.406332 57.4496C0.406332 57.3999 0.432671 57.3538 0.475835 57.3289C0.519731 57.3048 0.571674 57.3041 0.614839 57.3289L44.9688 82.932C45.012 82.9569 45.0383 83.003 45.0383 83.0527L44.8956 134.022C44.8956 134.072 44.8693 134.118 44.8261 134.143C44.8049 134.156 44.7808 134.162 44.7566 134.162ZM0.541679 108.339L44.6176 133.782L44.7596 83.1339L0.683609 57.6911L0.541679 108.339Z" fill="#373B42"/>
<path d="M17.4668 80.4059L27.7984 86.3794L27.8219 73.1981L17.4909 67.2363L17.4668 80.4059Z" fill="#CE464A"/>
<path d="M27.7988 86.5176C27.7746 86.5176 27.7512 86.511 27.7293 86.4986L17.3976 80.525C17.3545 80.5002 17.3281 80.4541 17.3281 80.4043L17.3523 67.2348C17.3523 67.1851 17.3786 67.139 17.4218 67.1141C17.4657 67.0899 17.5176 67.0892 17.5608 67.1141L27.8924 73.0752C27.9356 73.1 27.9619 73.1461 27.9619 73.1959L27.9378 86.3771C27.9378 86.4269 27.9114 86.4729 27.8683 86.4978C27.8463 86.5117 27.8222 86.5176 27.7988 86.5176ZM17.6069 80.3246L27.6598 86.1364L27.6832 73.2763L17.6303 67.4762L17.6069 80.3246Z" fill="#373B42"/>
<path d="M28.865 103.724C28.9718 103.786 29.0787 103.897 29.1599 104.042L32.0628 109.357C32.2955 109.781 32.1163 110.151 31.7717 109.952L30.5265 109.233L30.495 120.247C30.4943 120.434 30.3604 120.511 30.1973 120.417L27.4472 118.829C27.2804 118.732 27.1509 118.504 27.1516 118.317L27.1831 107.303L25.9379 106.584C25.5933 106.385 25.4163 105.809 25.6475 105.653L28.5746 103.704C28.6529 103.65 28.7582 103.662 28.865 103.724Z" fill="#373B42"/>
<path d="M37.3998 108.654C37.5059 108.716 37.6112 108.825 37.6888 108.968L40.5954 114.285C40.828 114.71 40.6451 115.078 40.3006 114.879L39.0554 114.159L39.0239 125.173C39.0232 125.36 38.893 125.439 38.7262 125.343L35.9761 123.755C35.8129 123.661 35.6798 123.43 35.6805 123.243L35.712 112.229L34.4668 111.51C34.1222 111.311 33.9452 110.735 34.1837 110.583L37.1071 108.632C37.1869 108.58 37.2937 108.593 37.3998 108.654Z" fill="#373B42"/>
<path d="M113.325 90.5998C109.535 88.3911 104.277 88.6998 98.4805 92.0491C91.3759 96.149 85.1024 103.863 81.3559 112.284C80.3661 114.511 79.5532 116.79 78.9526 119.061C78.131 122.119 77.6891 125.158 77.6979 128.056C77.7155 134.63 80.031 139.261 83.7775 141.434L73.8102 135.647C70.0724 133.464 67.7482 128.843 67.7306 122.269C67.7218 119.361 68.1637 116.313 68.9853 113.256C69.5947 110.985 70.4075 108.705 71.4062 106.478C75.1439 98.0665 81.4086 90.3613 88.5219 86.2614C94.3184 82.9122 99.5669 82.6034 103.358 84.8034L113.325 90.5998Z" fill="#BEC4CD"/>
<path d="M81.355 112.286C80.3651 114.513 79.5523 116.792 78.9517 119.063L68.9844 113.258C69.5938 110.987 70.4066 108.707 71.4052 106.48L81.355 112.286Z" fill="#DBDEE4"/>
<path d="M83.7759 141.576C83.7517 141.576 83.7283 141.57 83.7064 141.557C83.702 141.555 83.6983 141.552 83.6947 141.55L73.7391 135.769C69.7914 133.464 67.6075 128.67 67.59 122.271C67.5812 119.408 68.0055 116.363 68.8498 113.222C69.4636 110.935 70.2808 108.647 71.278 106.423C75.1606 97.6841 81.5804 90.1026 88.4508 86.1424C94.1024 82.8773 99.4211 82.36 103.427 84.6843L113.384 90.4749C113.385 90.4764 113.387 90.4771 113.39 90.4786L113.394 90.4808C113.461 90.5196 113.482 90.6044 113.444 90.671C113.405 90.7376 113.32 90.7595 113.254 90.7215L113.237 90.7112C109.321 88.4411 104.106 88.9591 98.5483 92.1708C91.7306 96.1053 85.3503 103.646 81.4816 112.342C80.483 114.588 79.6775 116.861 79.0856 119.098C78.2472 122.217 77.8265 125.231 77.8353 128.057C77.8529 134.369 79.9869 139.077 83.8454 141.315H83.8461C83.9127 141.354 83.9346 141.439 83.8959 141.505C83.8703 141.551 83.8234 141.576 83.7759 141.576ZM97.8782 83.5306C95.0323 83.5306 91.8718 84.4875 88.5905 86.3831C81.7691 90.3147 75.3925 97.8487 71.5326 106.536C70.5405 108.747 69.7284 111.02 69.1183 113.294C68.2799 116.412 67.8592 119.432 67.868 122.27C67.8855 128.566 70.0196 133.275 73.8788 135.528L81.7903 140.121C79.0578 137.531 77.5719 133.344 77.5573 128.058C77.5485 125.207 77.9728 122.168 78.8171 119.026C79.4119 116.775 80.2232 114.488 81.2277 112.229C85.1198 103.481 91.5433 95.8932 98.4101 91.9301C103.083 89.2305 107.527 88.4096 111.19 89.5209L103.288 84.9258C101.682 83.9937 99.8557 83.5306 97.8782 83.5306Z" fill="#373B42"/>
<path d="M113.277 124.58C121.437 110.542 121.459 95.33 113.328 90.6039C105.197 85.8778 91.9903 93.427 83.8307 107.466C75.6712 121.504 75.6484 136.716 83.7798 141.442C91.9112 146.168 105.118 138.619 113.277 124.58Z" fill="#373B42"/>
<path d="M89.2606 142.99C87.2465 142.99 85.3854 142.521 83.7436 141.576C79.7703 139.289 77.5711 134.488 77.5528 128.058C77.5155 114.798 86.8727 98.5902 98.4115 91.9283C104.047 88.6749 109.353 88.1525 113.354 90.4549C117.328 92.7418 119.527 97.5433 119.545 103.973C119.583 117.233 110.225 133.441 98.6858 140.103C95.3644 142.022 92.1548 142.99 89.2606 142.99ZM107.837 89.3209C104.991 89.3209 101.83 90.2771 98.5512 92.1705C87.0892 98.7885 77.7943 114.887 77.8316 128.058C77.8499 134.384 79.9986 139.1 83.8826 141.335C87.7938 143.587 93.0028 143.063 98.5468 139.862C110.01 133.244 119.305 117.145 119.266 103.975C119.248 97.6479 117.099 92.9328 113.215 90.697C111.617 89.7774 109.802 89.3209 107.837 89.3209Z" fill="#373B42"/>
<path d="M89.2594 141.518C82.9654 141.518 79.0411 136.36 79.0177 128.055C78.9804 115.263 88.0098 99.627 99.144 93.1984C102.184 91.444 105.191 90.5156 107.838 90.5156C114.132 90.5156 118.057 95.6749 118.081 103.979C118.118 116.771 109.089 132.408 97.9544 138.836C94.9146 140.591 91.9077 141.518 89.2594 141.518Z" fill="white"/>
<path d="M89.2597 141.658C82.8801 141.658 78.9024 136.447 78.879 128.057C78.8417 115.221 87.9018 99.53 99.0756 93.0787C102.137 91.3112 105.168 90.377 107.839 90.377C114.219 90.377 118.198 95.5889 118.222 103.98C118.259 116.815 109.199 132.506 98.025 138.957C94.9632 140.724 91.9322 141.658 89.2597 141.658ZM107.839 90.6557C105.217 90.6557 102.235 91.5768 99.2146 93.3194C88.1184 99.7268 79.1205 115.309 79.1578 128.056C79.1812 136.274 83.0521 141.38 89.2597 141.38C91.8839 141.38 94.8659 140.459 97.8852 138.716C108.981 132.309 117.979 116.727 117.942 103.98C117.919 95.7615 114.048 90.6557 107.839 90.6557Z" fill="#373B42"/>
<path d="M98.5065 102.766C99.1269 102.407 99.6252 102.685 99.6274 103.398L99.631 104.585C102.025 103.794 103.837 105.195 103.845 108.125C103.847 108.826 103.347 109.693 102.737 110.044C102.123 110.399 101.619 110.113 101.617 109.412C101.611 107.461 100.224 106.671 98.5204 107.654C96.8283 108.632 95.4448 111.021 95.4499 112.972C95.4558 114.924 96.848 115.717 98.5402 114.74C101.474 113.046 103.863 114.407 103.872 117.772C103.88 120.702 102.082 124.188 99.6917 126.159L99.6954 127.346C99.6976 128.059 99.2023 128.909 98.5819 129.268C97.9725 129.62 97.4691 129.346 97.4669 128.632L97.4633 127.446C95.0636 128.234 93.2632 126.825 93.2544 123.902C93.2522 123.202 93.7526 122.335 94.362 121.983C94.9773 121.628 95.4755 121.918 95.477 122.618C95.4828 124.569 96.8692 125.353 98.5673 124.379C100.277 123.392 101.649 121.009 101.643 119.058C101.637 117.107 100.257 116.306 98.5526 117.29C95.6248 118.981 93.2361 117.619 93.2266 114.255C93.2185 111.331 95.011 107.842 97.4011 105.871L97.3974 104.684C97.3967 103.971 97.8971 103.118 98.5065 102.766Z" fill="#CE464A"/>
<path d="M109.757 114.472C108.968 114.472 108.476 113.825 108.473 112.785C108.468 111.182 109.599 109.222 110.995 108.417C111.376 108.196 111.753 108.08 112.085 108.08C112.873 108.08 113.366 108.727 113.369 109.767C113.373 111.37 112.242 113.33 110.846 114.136C110.466 114.356 110.089 114.472 109.757 114.472Z" fill="#BEC4CD"/>
<path d="M85.0144 127.706C84.2258 127.706 83.7334 127.06 83.7305 126.019C83.7261 124.416 84.8571 122.456 86.253 121.651C86.6342 121.431 87.011 121.314 87.3424 121.314C88.1311 121.314 88.6234 121.961 88.6263 123.002C88.6307 124.604 87.4997 126.564 86.1038 127.37C85.7226 127.59 85.3459 127.706 85.0144 127.706Z" fill="#BEC4CD"/>
<path d="M101.098 48.6868C100.52 48.6868 99.9413 48.5595 99.5002 48.3042L75.4986 34.2868C75.432 34.248 75.41 34.1624 75.4488 34.0965C75.4883 34.03 75.5732 34.0073 75.639 34.0468L99.6399 48.065C100.445 48.5295 101.753 48.5303 102.552 48.065L113.299 41.82C113.365 41.782 113.451 41.804 113.489 41.8705C113.528 41.9371 113.505 42.0227 113.439 42.0607L102.693 48.3057C102.253 48.5595 101.676 48.6868 101.098 48.6868Z" fill="#DBDEE4"/>
<path d="M138.1 44.2801L140.209 43.0547L140.219 39.5957L138.109 40.8219L138.1 44.2801Z" fill="#373B42"/>
<path d="M138.1 44.4206C138.076 44.4206 138.052 44.414 138.03 44.4015C137.987 44.3767 137.961 44.3306 137.961 44.2808L137.97 40.8218C137.97 40.7721 137.997 40.7267 138.039 40.7018L140.148 39.4757C140.192 39.4508 140.245 39.4508 140.288 39.4757C140.331 39.5006 140.358 39.5466 140.358 39.5964L140.348 43.0554C140.348 43.1052 140.322 43.1505 140.279 43.1754L138.17 44.4015C138.148 44.414 138.124 44.4206 138.1 44.4206ZM138.249 40.9023L138.24 44.0387L140.069 42.9749L140.079 39.8386L138.249 40.9023Z" fill="#373B42"/>
<path d="M110.676 1.49766C111.024 1.29281 111.511 1.32061 112.041 1.63008L139.068 17.2329C140.134 17.8467 140.991 19.3384 140.985 20.5544L140.93 40.2359C140.93 40.8438 140.714 41.2696 140.366 41.4737L142.475 40.2461C142.824 40.042 143.04 39.6162 143.04 39.0082L143.095 19.3326C143.101 18.1108 142.238 16.6191 141.178 16.0053L114.151 0.402452C113.62 0.0929855 113.134 0.0651849 112.786 0.270033L110.676 1.49766Z" fill="#F0F2F5"/>
<path d="M140.367 41.6129C140.319 41.6129 140.272 41.588 140.247 41.5441C140.208 41.4776 140.23 41.3927 140.296 41.3539C140.615 41.1659 140.791 40.7694 140.791 40.2353L140.846 20.5538C140.852 19.3781 140.023 17.9427 138.998 17.3531L111.972 1.75024C111.512 1.48174 111.067 1.43126 110.753 1.61343L110.746 1.61709C110.679 1.65513 110.595 1.63318 110.556 1.56661C110.517 1.50076 110.54 1.41517 110.606 1.37639C110.607 1.37639 110.607 1.37639 110.607 1.37566H110.607C110.609 1.3742 110.612 1.37346 110.614 1.372L112.716 0.148767C113.122 -0.0882715 113.67 -0.040717 114.222 0.281918L141.248 15.884C142.35 16.5205 143.242 18.0678 143.236 19.332L143.18 39.0077C143.18 39.6434 142.956 40.1263 142.548 40.3655L140.438 41.5939C140.414 41.6071 140.39 41.6129 140.367 41.6129ZM111.389 1.24324C111.621 1.27689 111.866 1.36615 112.111 1.50954L139.137 17.1116C140.239 17.7452 141.13 19.2896 141.125 20.5545L141.069 40.2353C141.069 40.5148 141.025 40.7642 140.942 40.9771L142.406 40.1256C142.725 39.9383 142.901 39.5417 142.901 39.0084L142.956 19.3328C142.962 18.1571 142.133 16.7188 141.108 16.1262L114.081 0.523345C113.618 0.253385 113.171 0.205099 112.856 0.390194L111.389 1.24324Z" fill="#373B42"/>
<path d="M112.043 1.62818C110.981 1.0151 110.117 1.51112 110.114 2.73143L110.059 22.4093C110.055 23.6296 110.913 25.1206 111.975 25.7337L134.634 38.8154L138.1 44.2812L138.11 40.8222L139.002 41.3379C140.064 41.951 140.928 41.455 140.931 40.2347L140.987 20.5569C140.991 19.3365 140.132 17.8455 139.07 17.2325L112.043 1.62818Z" fill="white"/>
<path d="M138.099 44.4217C138.052 44.4217 138.008 44.3983 137.981 44.3566L134.533 38.9201L111.905 25.8559C110.806 25.2216 109.915 23.6765 109.918 22.4108L109.974 2.73299C109.976 2.09138 110.202 1.60925 110.61 1.37441C111.02 1.1381 111.552 1.18639 112.113 1.50976L139.14 17.114C140.238 17.7483 141.129 19.2942 141.126 20.5591L141.07 40.237C141.068 40.8786 140.842 41.3615 140.434 41.5963C140.024 41.8326 139.491 41.7843 138.931 41.461L138.247 41.0659L138.237 44.2842C138.237 44.3464 138.196 44.4005 138.137 44.4181C138.126 44.4195 138.112 44.4217 138.099 44.4217ZM111.183 1.50463C111.023 1.50463 110.877 1.54122 110.749 1.61511C110.431 1.79874 110.255 2.196 110.253 2.73299L110.197 22.4108C110.194 23.5872 111.023 25.0241 112.044 25.6145L134.702 38.6962C134.721 38.7072 134.738 38.7233 134.749 38.7423L137.959 43.805L137.968 40.8237C137.968 40.774 137.995 40.7279 138.038 40.703C138.082 40.6789 138.134 40.6781 138.177 40.703L139.069 41.2188C139.539 41.4895 139.974 41.5378 140.293 41.3534C140.612 41.1705 140.788 40.7732 140.79 40.2348L140.846 20.5569C140.849 19.3805 140.021 17.9437 138.999 17.3533L111.972 1.74899C111.692 1.58731 111.423 1.50463 111.183 1.50463Z" fill="#373B42"/>
<path d="M123.44 17.2786C123.002 17.0262 122.648 17.2282 122.646 17.7308C122.645 18.2334 122.997 18.8465 123.434 19.0996L134.847 25.6891C135.285 25.9415 135.643 25.7381 135.644 25.2355C135.646 24.7329 135.29 24.1213 134.852 23.8689L123.44 17.2786Z" fill="#DBDEE4"/>
<path d="M130.149 25.9427C129.711 25.6903 129.357 25.8922 129.355 26.3948C129.354 26.8974 129.706 27.5105 130.143 27.7636L134.846 30.4786C135.284 30.731 135.641 30.5276 135.643 30.025C135.644 29.5224 135.289 28.9108 134.851 28.6584L130.149 25.9427Z" fill="white"/>
<path d="M135.202 30.7278C135.069 30.7278 134.924 30.6847 134.777 30.5998L130.074 27.8848C129.592 27.6061 129.215 26.952 129.217 26.3953C129.218 26.1012 129.324 25.878 129.517 25.7668C129.712 25.6549 129.962 25.6747 130.218 25.8239L134.921 28.5389C135.405 28.8183 135.784 29.4717 135.782 30.0262C135.781 30.3203 135.673 30.5442 135.479 30.6561C135.396 30.7037 135.302 30.7278 135.202 30.7278ZM129.793 25.9739C129.742 25.9739 129.696 25.9849 129.657 26.0075C129.553 26.0668 129.496 26.2051 129.496 26.3953C129.494 26.846 129.823 27.4173 130.213 27.6434L134.916 30.3584C135.081 30.4535 135.236 30.4732 135.34 30.414C135.446 30.3532 135.503 30.215 135.504 30.0248C135.505 29.5763 135.175 29.0056 134.782 28.7788L130.079 26.0639C129.977 26.0046 129.877 25.9739 129.793 25.9739Z" fill="#373B42"/>
<path d="M95.1504 9.6024C95.4986 9.39755 95.9851 9.42535 96.5214 9.73481L123.542 25.3376C124.604 25.9507 125.466 27.4381 125.466 28.6591L125.41 48.3406C125.404 48.9486 125.194 49.3743 124.846 49.5733L126.956 48.3464C127.298 48.1474 127.514 47.7217 127.52 47.1137L127.576 27.4322C127.576 26.2104 126.713 24.7238 125.652 24.1107L98.6313 8.50792C98.0951 8.19845 97.6086 8.17065 97.2603 8.3755L95.1504 9.6024Z" fill="#F0F2F5"/>
<path d="M124.846 49.7113C124.799 49.7113 124.752 49.6865 124.726 49.6418C124.688 49.5752 124.709 49.4904 124.776 49.4516L124.789 49.4443C125.095 49.2621 125.266 48.8707 125.271 48.3388L125.326 28.6588C125.326 27.4853 124.494 26.0492 123.472 25.4581L96.4515 9.85524C95.9803 9.58382 95.5472 9.5348 95.2282 9.71843L95.2209 9.72282C95.1536 9.76087 95.0695 9.73892 95.0307 9.67308C94.9919 9.6065 95.0146 9.52163 95.0804 9.48286C95.0834 9.48066 95.0863 9.4792 95.0899 9.47774L97.1918 8.25524C97.6015 8.01454 98.1371 8.06136 98.7026 8.38765L125.723 23.9897C126.822 24.6248 127.716 26.1692 127.716 27.4319L127.661 47.1134C127.655 47.7528 127.43 48.2328 127.028 48.4661L124.932 49.685C124.927 49.6879 124.922 49.6908 124.917 49.6938C124.894 49.7055 124.87 49.7113 124.846 49.7113ZM95.8684 9.34605C96.0981 9.38044 96.3417 9.46969 96.5912 9.61382L123.612 25.2166C124.711 25.8517 125.605 27.3961 125.605 28.6588L125.55 48.3403C125.547 48.6183 125.504 48.8663 125.423 49.0763L126.887 48.2247C127.201 48.0425 127.376 47.6475 127.381 47.1112L127.436 27.4312C127.436 26.2577 126.604 24.8216 125.583 24.2304L98.5621 8.62835C98.088 8.35546 97.6513 8.30791 97.3316 8.4952L95.8684 9.34605Z" fill="#373B42"/>
<path d="M96.5197 9.7329C95.4575 9.11981 94.5905 9.60999 94.5869 10.8303L94.5313 30.5125C94.5276 31.7328 95.3894 33.2216 96.4517 33.8347L97.3406 34.3483L97.3311 37.8073L100.82 36.3573L123.475 49.4368C124.537 50.0499 125.404 49.5597 125.408 48.3394L125.463 28.6572C125.467 27.4369 124.605 25.9481 123.543 25.335L96.5197 9.7329Z" fill="white"/>
<path d="M124.339 49.8409C124.049 49.8409 123.731 49.7458 123.404 49.557L100.809 36.5119L97.3836 37.9356C97.3412 37.9531 97.2914 37.9487 97.2527 37.9224C97.2131 37.8968 97.1905 37.8529 97.1905 37.8068L97.2 34.429L96.3806 33.9557C95.2795 33.3199 94.387 31.7748 94.3906 30.512L94.4462 10.8298C94.4484 10.1911 94.6738 9.71045 95.0813 9.47561C95.491 9.24003 96.0272 9.28759 96.5884 9.61169L123.612 25.2138C124.713 25.8495 125.606 27.3947 125.602 28.6574L125.547 48.3389C125.544 48.9776 125.319 49.459 124.912 49.6931C124.741 49.7919 124.547 49.8409 124.339 49.8409ZM100.82 36.217C100.844 36.217 100.868 36.2236 100.889 36.2361L123.544 49.3156C124.015 49.5878 124.451 49.636 124.773 49.4517C125.091 49.2688 125.266 48.8737 125.268 48.3382L125.323 28.6567C125.327 27.4832 124.497 26.0463 123.472 25.4552L96.4494 9.85311C95.9782 9.58096 95.5422 9.53267 95.2203 9.71704C94.9028 9.89994 94.7272 10.295 94.7257 10.8305L94.6701 30.5128C94.6665 31.6862 95.4968 33.1224 96.5211 33.7142L97.4099 34.2278C97.4531 34.2527 97.4794 34.2988 97.4794 34.3485L97.4699 37.5976L100.766 36.228C100.783 36.2207 100.802 36.217 100.82 36.217Z" fill="#373B42"/>
<path d="M118.092 29.4366L118.064 39.0637C118.058 39.9606 117.426 40.3176 116.645 39.8721L103.311 32.1705C102.529 31.7191 101.897 30.6247 101.902 29.7277L101.93 20.1065C101.93 19.2154 102.563 18.8525 103.344 19.3032L116.684 27.0047C117.465 27.4561 118.092 28.5455 118.092 29.4366Z" fill="#CE464A"/>
<path d="M113.052 27.8551C113.251 27.97 113.45 28.1726 113.602 28.4367C113.907 28.9642 113.905 29.5334 113.599 29.7039L109.077 32.2842C108.93 32.3683 108.733 32.3479 108.522 32.2264C108.315 32.1064 108.122 31.9023 107.971 31.6455L106.392 28.9108C106.092 28.3855 106.093 27.82 106.396 27.6393C106.55 27.5537 106.75 27.5829 106.95 27.6985C107.15 27.8141 107.35 28.0168 107.502 28.278L108.528 30.0631L112.503 27.8017C112.654 27.7132 112.853 27.7402 113.052 27.8551Z" fill="white"/>
<path d="M76.1833 32.277C77.2024 32.8652 77.2083 33.8199 76.1957 34.4089C75.1832 34.9971 73.5349 34.9971 72.5158 34.4089C71.4967 33.8207 71.4915 32.8659 72.5041 32.2777C73.5166 31.6888 75.1642 31.6888 76.1833 32.277Z" fill="white"/>
<path d="M74.3595 34.9864C73.6674 34.9864 72.9753 34.8342 72.4463 34.5291C71.9071 34.2175 71.6094 33.7953 71.6094 33.3396C71.6086 32.8867 71.902 32.4668 72.4346 32.1566C73.4852 31.5471 75.1986 31.5464 76.2536 32.1566C76.7928 32.4682 77.0905 32.8911 77.0913 33.3469C77.092 33.7997 76.7986 34.2197 76.2667 34.5299C75.7415 34.8342 75.0508 34.9864 74.3595 34.9864ZM74.3426 31.9737C73.7018 31.9737 73.0616 32.1149 72.5751 32.398C72.1317 32.6555 71.8874 32.9899 71.8881 33.3396C71.8889 33.6915 72.1361 34.0287 72.5861 34.2884C73.5657 34.854 75.154 34.854 76.1263 34.2884C76.5696 34.0309 76.8132 33.6966 76.8125 33.3469C76.8118 32.995 76.5645 32.6577 76.1138 32.3973C75.6244 32.1149 74.9828 31.9737 74.3426 31.9737Z" fill="#DBDEE4"/>
<path d="M74.3573 34.0146C73.9601 34.0146 73.5752 33.9239 73.3023 33.7666C73.0829 33.64 72.957 33.4842 72.957 33.3401C72.957 33.1974 73.0799 33.0438 73.2958 32.9179C73.5665 32.7606 73.9498 32.6699 74.3463 32.6699C74.7436 32.6699 75.1277 32.7606 75.4006 32.9179C75.6201 33.0445 75.7459 33.2003 75.7466 33.3452C75.7466 33.4878 75.6237 33.6415 75.4079 33.7666C75.1365 33.9239 74.7538 34.0146 74.3573 34.0146Z" fill="#CE464A"/>
<path d="M83.3303 39.1239C82.9038 39.1239 82.4905 39.0266 82.1971 38.8576C81.9615 38.7215 81.8262 38.5547 81.8262 38.3989C81.8262 38.2452 81.9586 38.0806 82.1898 37.946C82.481 37.777 82.8921 37.6797 83.3186 37.6797C83.7452 37.6797 84.1578 37.777 84.4512 37.946C84.6867 38.0821 84.8221 38.2496 84.8228 38.4047C84.8228 38.5583 84.6904 38.7229 84.4592 38.8576C84.168 39.0273 83.7569 39.1239 83.3303 39.1239Z" fill="#373B42"/>
<path d="M4.79517 139.376C4.74762 139.376 4.7008 139.351 4.67519 139.307C4.63642 139.24 4.6591 139.155 4.72567 139.116L24.6003 127.585C24.6654 127.547 24.7517 127.569 24.7905 127.635C24.8293 127.702 24.8066 127.788 24.74 127.826L4.86541 139.357C4.84273 139.37 4.81859 139.376 4.79517 139.376Z" fill="#DBDEE4"/>
<path d="M4.78906 141.169C5.79647 140.587 5.80233 139.644 4.8015 139.061C3.80067 138.48 2.17067 138.48 1.16325 139.061C0.155841 139.643 0.150719 140.587 1.15155 141.168C2.15238 141.751 3.78092 141.751 4.78906 141.169Z" fill="white"/>
<path d="M2.96766 141.742C2.28362 141.742 1.60031 141.591 1.08014 141.289C0.553387 140.982 0.262942 140.567 0.263673 140.118C0.264405 139.667 0.558508 139.248 1.09184 138.94C2.1373 138.338 3.83168 138.338 4.87056 138.94C5.39731 139.247 5.68702 139.662 5.68629 140.111C5.68556 140.562 5.39146 140.981 4.85739 141.289C4.33576 141.591 3.65098 141.742 2.96766 141.742ZM2.98449 138.763C2.3502 138.763 1.7159 138.903 1.23158 139.183C0.787497 139.439 0.543144 139.772 0.542413 140.119C0.541681 140.464 0.782376 140.794 1.2206 141.048C2.18193 141.607 3.75048 141.607 4.71838 141.048C5.16246 140.791 5.40755 140.458 5.40828 140.11C5.40901 139.766 5.16832 139.436 4.73082 139.181C4.25089 138.902 3.61806 138.763 2.98449 138.763Z" fill="#DBDEE4"/>
<path d="M2.98062 139.449C2.58775 139.449 2.20732 139.538 1.93736 139.694C1.72081 139.819 1.5957 139.973 1.5957 140.116C1.5957 140.258 1.71788 140.41 1.93077 140.533C2.19854 140.689 2.57751 140.779 2.96965 140.779C3.36178 140.779 3.74222 140.689 4.01218 140.533C4.22946 140.408 4.35383 140.254 4.35383 140.111C4.35383 139.97 4.23239 139.818 4.01949 139.694C3.751 139.538 3.37276 139.449 2.98062 139.449Z" fill="#CE464A"/>
<path d="M11.8538 134.402C11.4317 134.402 11.0234 134.498 10.7337 134.666C10.5011 134.8 10.3672 134.966 10.3672 135.119C10.3672 135.27 10.4981 135.433 10.7271 135.566C11.0147 135.733 11.4214 135.83 11.8428 135.83C12.2642 135.83 12.6725 135.734 12.9622 135.566C13.1956 135.432 13.3294 135.266 13.3294 135.113C13.3294 134.961 13.1985 134.798 12.9702 134.665C12.682 134.498 12.2752 134.402 11.8538 134.402Z" fill="#373B42"/>
</svg>
