<svg width="81" height="80" viewBox="0 0 81 80" fill="none" xmlns="http://www.w3.org/2000/svg">
<g clip-path="url(#clip0_315_1438)">
<path d="M18.6712 1.5H62.7585C71.8471 1.5 79.2148 8.86776 79.2148 17.9564V62.0436C79.2148 71.1322 71.8471 78.5 62.7585 78.5H18.6712C9.58261 78.5 2.21484 71.1322 2.21484 62.0436V17.9564C2.21484 8.86776 9.58261 1.5 18.6712 1.5Z" stroke="url(#paint0_linear_315_1438)" stroke-width="3"/>
<path opacity="0.3" d="M55.8023 29.0957L55.6638 29.8993C53.8349 39.2377 47.6278 42.4521 39.6749 42.4521H35.6291C35.1609 42.4531 34.7083 42.621 34.3527 42.9258C33.9972 43.2305 33.762 43.6521 33.6894 44.1148L31.6111 57.2495L31.0292 60.9627C31.0049 61.1106 31.0133 61.262 31.0538 61.4063C31.0943 61.5505 31.166 61.6842 31.2637 61.7978C31.3615 61.9114 31.4829 62.0022 31.6196 62.0637C31.7562 62.1253 31.9046 62.1562 32.0545 62.1542H39.2315C39.643 62.1596 40.0427 62.0171 40.358 61.7527C40.6733 61.4883 40.8832 61.1194 40.9495 60.7133V60.3531L42.2796 51.7905V51.3195C42.3399 50.9083 42.5473 50.5329 42.8632 50.2628C43.1791 49.9928 43.5821 49.8464 43.9977 49.8508H45.0784C52.0337 49.8508 57.465 47.0798 58.9336 38.7666C59.3605 37.3648 59.4525 35.8825 59.2022 34.4386C58.9519 32.9948 58.3664 31.6299 57.4927 30.4535C57.0049 29.914 56.4343 29.4556 55.8023 29.0957Z" fill="url(#paint1_linear_315_1438)"/>
<path opacity="0.5" d="M53.8912 28.3473L53.0322 28.1256L52.1177 27.9593C50.9439 27.7825 49.7579 27.6991 48.5708 27.7099H37.7637C37.3529 27.7122 36.9565 27.8616 36.6464 28.131C36.3363 28.4005 36.133 28.7721 36.0734 29.1786L33.7734 43.7265V44.1422C33.846 43.6796 34.0812 43.258 34.4367 42.9532C34.7923 42.6485 35.2449 42.4805 35.7132 42.4796H39.7589C47.7118 42.4796 53.9189 39.2652 55.7478 29.9267C55.7478 29.6496 55.7478 29.3725 55.8864 29.1231C55.4063 28.8691 54.9058 28.6559 54.39 28.4858L53.8912 28.3473Z" fill="url(#paint2_linear_315_1438)"/>
<path d="M36.046 29.1518C36.1056 28.7453 36.3089 28.3737 36.619 28.1043C36.9291 27.8348 37.3255 27.6854 37.7363 27.6832H48.5434C49.7397 27.6709 50.935 27.7543 52.118 27.9325L53.0325 28.0988L53.8915 28.3205H54.3071C54.8227 28.4911 55.3232 28.7043 55.8035 28.9578C56.154 27.5849 56.1683 26.1477 55.8451 24.768C55.5219 23.3884 54.8708 22.107 53.9469 21.0326C51.8963 18.705 48.1831 17.6797 43.4447 17.6797H29.5894C29.1211 17.6806 28.6686 17.8486 28.313 18.1533C27.9574 18.4581 27.7223 18.8797 27.6497 19.3423L21.9414 55.8924C21.9177 56.0599 21.9301 56.2305 21.9775 56.3929C22.025 56.5553 22.1064 56.7057 22.2165 56.8342C22.3266 56.9626 22.4628 57.0662 22.6161 57.1379C22.7693 57.2096 22.936 57.2479 23.1052 57.2502H31.6123L33.746 43.6998L36.046 29.1518Z" fill="url(#paint3_linear_315_1438)"/>
</g>
<defs>
<linearGradient id="paint0_linear_315_1438" x1="-7.70912" y1="-6.67821" x2="82.4329" y2="80.2217" gradientUnits="userSpaceOnUse">
<stop stop-color="#253B80"/>
<stop offset="1" stop-color="#179BD7"/>
</linearGradient>
<linearGradient id="paint1_linear_315_1438" x1="28.0331" y1="26.336" x2="64.6367" y2="56.5695" gradientUnits="userSpaceOnUse">
<stop stop-color="#253B80"/>
<stop offset="1" stop-color="#179BD7"/>
</linearGradient>
<linearGradient id="paint2_linear_315_1438" x1="31.445" y1="26.3372" x2="49.3638" y2="49.5819" gradientUnits="userSpaceOnUse">
<stop stop-color="#253B80"/>
<stop offset="1" stop-color="#179BD7"/>
</linearGradient>
<linearGradient id="paint3_linear_315_1438" x1="18.3339" y1="14.3764" x2="62.206" y2="50.8745" gradientUnits="userSpaceOnUse">
<stop stop-color="#253B80"/>
<stop offset="1" stop-color="#179BD7"/>
</linearGradient>
<clipPath id="clip0_315_1438">
<rect width="80" height="80" fill="white" transform="translate(0.714844)"/>
</clipPath>
</defs>
</svg>
