<svg width="81" height="80" viewBox="0 0 81 80" fill="none" xmlns="http://www.w3.org/2000/svg">
<g clip-path="url(#clip0_315_1454)">
<path d="M79.6807 1.53774C79.7706 1.05535 79.5821 0.547238 79.1643 0.245625C78.6288 -0.141006 77.8883 -0.0635767 77.4427 0.424149L76.7478 1.18693L75.651 1.65768C75.2614 1.53716 74.8267 1.52681 74.3739 1.63871C74.1143 1.70302 74.0375 1.6879 73.8067 1.64237C73.3017 1.54333 72.7736 1.48333 71.9311 1.7526C71.6339 1.73523 71.2858 1.77774 70.7384 1.9571C70.0512 2.18373 69.6234 2.72393 69.3111 3.12015L69.2073 3.25308C67.2424 3.75926 66.4661 4.86378 66.1647 5.72348C66.1051 5.89055 66.0658 6.05699 66.0339 6.22348C63.9629 4.65375 61.1163 4.51136 58.7003 5.92374C55.9272 7.54692 54.687 10.6199 55.542 13.7538C56.9208 18.8163 61.7241 23.5843 64.5925 26.4349L65.5221 27.3638C67.0167 28.8885 68.9504 31.9618 68.5646 34.016C68.4706 34.5283 68.1993 35.2715 66.9471 35.8386C66.309 36.1271 65.6986 36.3061 65.1081 36.376C66.1675 33.4063 65.6552 30.213 63.6444 28.1212C60.7739 25.1411 58.0629 25.8846 57.0271 26.6936C56.591 27.0364 56.4186 27.6184 56.5986 28.1422C56.78 28.6663 57.2752 29.0188 57.832 29.0182C59.2095 29.0172 60.7593 30.0429 61.4325 31.4038C62 32.5507 61.8904 33.7938 61.1213 35.0291C60.5382 34.5535 60.0357 34.0292 59.6054 33.577C59.4281 33.3917 59.2614 33.2166 59.114 33.0731L59.007 32.9544C56.947 30.6329 54.8485 29.2785 52.7465 28.9083C52.4831 25.1932 49.8583 21.4349 45.8797 19.2499C45.5575 19.0718 45.2228 18.9139 44.8758 18.7709C44.1337 14.8893 41.7593 12.2864 37.9713 11.2206C32.4437 9.66297 28.0548 12.1332 25.9294 17.9945C25.204 19.9945 23.6627 26.8121 22.3975 32.528L22.1593 33.5991C21.9901 34.3549 21.1093 35.7133 20.1708 36.0366C19.9118 36.1276 19.5853 36.1698 19.1336 35.8011C18.212 35.0512 18.7563 32.887 19.0489 31.7241C19.1063 31.4984 19.1541 31.3038 19.1939 31.1268C19.4331 30.019 19.0696 28.7837 18.2434 27.9041C17.4358 27.0434 16.3183 26.6481 15.1773 26.8207C12.761 27.1845 11.9946 29.1388 11.6936 30.0196C11.4593 29.5725 11.1367 28.9853 10.5276 28.6375C10.0329 28.355 9.70136 28.2426 9.40553 28.1993C8.62777 27.7617 8.09946 27.7188 7.58042 27.7155C7.3471 27.7144 7.26768 27.7144 7.02697 27.598C6.54606 27.369 6.05023 27.2985 5.58636 27.387L4.6904 26.8188L4.12331 25.9548C3.757 25.3965 3.02818 25.2073 2.43454 25.5154C1.98424 25.7496 1.72603 26.2165 1.73697 26.701C1.28898 26.8991 0.976117 27.3411 0.96332 27.8555C0.94647 28.5157 1.42783 29.0837 2.08218 29.1755L3.10368 29.3199L3.98704 29.8798C4.0981 30.323 4.36165 30.7398 4.7648 31.0832C4.96847 31.2569 5.00102 31.3285 5.09832 31.5429C5.31266 32.0135 5.56816 32.4788 6.28445 33.0102C6.44278 33.2592 6.67899 33.5169 7.14202 33.8549C7.72647 34.2821 8.41478 34.3132 8.91768 34.3353C8.96713 34.3389 9.02849 34.3406 9.08662 34.3445C10.6408 35.6487 11.9923 35.6366 12.868 35.3797C13.0365 35.3311 13.1958 35.2665 13.349 35.1965C13.2796 37.7935 14.821 40.192 17.3753 41.3311C20.3087 42.6427 23.5294 41.8604 25.5806 39.3415C28.8917 35.2715 29.9734 28.5914 30.6184 24.6003L30.8344 23.302C31.2034 21.1991 32.5744 17.8382 34.4689 16.9544C34.9396 16.7341 35.704 16.5225 36.8936 17.211C37.501 17.5597 38 17.9515 38.4004 18.3903C35.3705 19.2593 33.0728 21.5363 32.544 24.3897C31.7897 28.4551 33.9737 30.2288 35.235 30.5983C35.7689 30.7553 36.3394 30.5558 36.6614 30.1017C36.9834 29.6511 36.9804 29.0435 36.6578 28.5933C35.8522 27.4722 35.7848 25.6157 36.4993 24.2749C37.101 23.1468 38.1762 22.5109 39.6264 22.4174C39.5822 23.1695 39.4468 23.8837 39.3327 24.4965C39.2847 24.7478 39.2391 24.9853 39.2079 25.1893C39.2036 25.2109 39.1858 25.2854 39.1718 25.3438C38.5465 28.0968 38.592 30.4165 39.3027 32.2668C36.251 34.1511 34.0873 38.0029 33.774 42.3076C33.7457 42.6748 33.7414 43.048 33.7563 43.4196C30.5371 45.7121 29.1609 48.9552 29.769 52.8434C30.6562 58.5174 34.7284 61.4772 40.9446 60.9679C43.0647 60.7944 49.905 59.358 55.6294 58.1254L56.7002 57.8942C57.4595 57.7347 59.0607 57.9678 59.7455 58.6861C59.9354 58.8861 60.1106 59.1639 59.9638 59.7285C59.6666 60.8783 57.4711 61.2848 56.2917 61.5045C56.0641 61.5458 55.8663 61.5821 55.6901 61.6214C54.5826 61.8657 53.6102 62.7111 53.1553 63.8283C52.7093 64.9203 52.8135 66.1025 53.446 67.0668C54.7841 69.1126 56.8796 68.9947 57.8059 68.9013C57.4976 69.301 57.0984 69.8377 57.0354 70.5388C56.9854 71.105 57.0211 71.4544 57.1044 71.7389C57.0291 72.6277 57.2116 73.1283 57.4242 73.5994C57.5206 73.8123 57.5514 73.8849 57.549 74.1514C57.5397 74.7014 57.6949 75.1946 57.9853 75.587L57.7927 76.9231L57.2386 77.7936C56.8771 78.3581 57.0028 79.1008 57.5277 79.5142C57.7184 79.665 57.9476 79.7592 58.1892 79.786C58.4308 79.8128 58.6751 79.7712 58.8942 79.6658C59.26 79.9934 59.7912 80.0981 60.2658 79.8989C60.8749 79.6439 61.1959 78.9729 61.0118 78.3379L60.7251 77.3458L60.9287 75.9254C61.267 75.6399 61.5214 75.2396 61.6618 74.7524C61.7326 74.4969 61.7842 74.4372 61.9392 74.2586C62.2769 73.8685 62.5939 73.4411 62.778 72.5706C62.9403 72.323 63.075 71.9992 63.1903 71.4385C63.3362 70.7295 63.0761 70.0906 62.8885 69.6242L62.8256 69.4666C63.3638 67.511 62.79 66.2874 62.1936 65.5978C62.0764 65.4658 61.9517 65.348 61.8258 65.2371C64.2145 64.2199 65.7528 61.8181 65.7265 59.0206C65.694 55.807 63.6417 53.2069 60.4989 52.3904C55.418 51.0767 48.8952 52.8755 44.9991 53.9514L43.7299 54.2968C41.6628 54.8378 38.0362 54.9903 36.4442 53.6363C36.0483 53.2995 35.5371 52.6959 35.667 51.3245C35.7325 50.6277 35.8804 50.0107 36.1118 49.4645C38.1646 51.8578 41.1917 52.9975 44.0056 52.2893C48.0159 51.2803 48.7181 48.5563 48.5279 47.2562C48.4488 46.7073 48.029 46.2682 47.4847 46.1654C46.9391 46.0629 46.3879 46.317 46.1141 46.7985C45.4291 47.9959 43.77 48.8317 42.2535 48.7412C40.9762 48.665 39.9509 47.9524 39.2608 46.6707C39.9643 46.3999 40.6673 46.2236 41.2736 46.0737C41.5234 46.0122 41.7575 45.9551 41.9556 45.8988C42.0078 45.8884 42.0598 45.8774 42.1117 45.8657C45.2526 45.2077 47.5147 44.0021 48.8623 42.2811C52.0041 43.8759 56.2428 43.7844 60.0613 41.9554C60.3923 41.7966 60.7166 41.6147 61.0335 41.4165C64.6237 43.0716 68.1223 42.6571 71.1948 40.1979C75.6773 36.6111 76.2265 31.6049 72.6973 26.4644C71.4931 24.7096 66.8491 19.4857 62.9364 15.1302L62.2049 14.3141C61.6907 13.7342 61.0975 12.2293 61.3806 11.2774C61.4585 11.0137 61.6145 10.723 62.1774 10.5705C63.322 10.2589 64.7658 11.9612 65.541 12.8759C65.6913 13.0538 65.8197 13.2063 65.9426 13.3412C66.7044 14.182 67.9206 14.6041 69.1153 14.4458C70.2863 14.2905 71.2588 13.6111 71.7831 12.5832C72.8941 10.4066 71.75 8.64636 71.2093 7.88815C71.7093 7.95805 72.3738 8.03837 73.0135 7.74371C73.5308 7.50653 73.8144 7.3017 74.0215 7.08762C74.8303 6.71237 75.1735 6.30535 75.4765 5.88676C75.617 5.69756 75.6621 5.63318 75.8951 5.5045C76.5345 5.15092 76.8283 4.68275 76.9649 4.31593L77.9201 3.90466L78.9513 3.92389C79.6201 3.93727 80.1902 3.44202 80.2681 2.77821C80.3258 2.27627 80.0863 1.8007 79.6807 1.53774ZM44.2877 37.8442C43.8764 38.9754 41.3396 40.0822 39.5413 40.7562C40.0192 39.8507 40.6541 38.9995 41.3886 38.3148C42.7786 37.0186 43.9439 37.0533 44.1882 37.1839C44.368 37.5014 44.3439 37.6901 44.2877 37.8442ZM46.2001 30.8538C45.837 30.8832 45.6766 30.7844 45.5594 30.6696C44.7011 29.8235 44.753 27.0578 44.8893 25.1414C45.5135 25.9522 46.0236 26.8851 46.3405 27.8389C46.9384 29.6401 46.422 30.6862 46.2001 30.8538ZM52.8081 37.3297C50.9927 36.7679 50.4435 35.7388 50.4383 35.4627C50.6242 35.1476 50.7995 35.0746 50.9599 35.046C52.1472 34.8421 54.3664 36.4935 55.8435 37.7212C54.823 37.7561 53.7672 37.6268 52.8081 37.3297Z" fill="url(#paint0_linear_315_1454)"/>
<path d="M78.9738 2.62814L77.8069 2.36871L78.4044 1.30078L77.5194 2.27147L75.5925 3.09966C75.4215 2.91605 75.1327 2.79046 74.6873 2.90075C73.5096 3.19445 73.4752 2.56659 72.1672 3.04306C71.8991 3.14184 71.9893 2.91412 71.1436 3.1931C70.5555 3.3859 70.1588 4.37081 69.7656 4.45518C65.9709 5.26748 67.4742 8.50471 67.9985 9.14549C68.6491 9.94293 68.1084 10.2161 67.8199 9.92943C67.3699 9.479 66.8127 8.74085 65.7432 7.68752C62.0789 4.07254 55.2528 7.74791 56.7963 13.4098C58.2508 18.7422 64.0339 23.9887 66.4518 26.4524C68.6394 28.6815 72.441 34.7747 67.4841 37.0209C65.7991 37.7855 64.3533 37.844 63.1221 37.5329C64.8515 34.7125 64.7515 31.1465 62.7084 29.0223C59.8957 26.1003 57.8297 27.7173 57.8297 27.7173C61.1026 27.7148 65.2135 31.858 61.8261 36.2968C61.6905 36.4744 61.5452 36.6444 61.3909 36.8059C59.9402 35.9468 58.8975 34.6834 58.1898 33.9856C57.8759 33.6745 55.0097 30.0214 51.4471 30.0995C51.7592 26.3082 49.0169 22.454 45.2569 20.3871C44.7647 20.118 44.248 19.8962 43.7139 19.7249C43.3455 16.8905 41.9523 13.6902 37.618 12.4694C31.0157 10.6098 28.204 15.5322 27.1517 18.4364C26.2502 20.9226 23.8344 32.0771 23.4279 33.8838C23.0418 35.6064 20.6265 38.6946 18.3123 36.808C16.5272 35.3547 17.6512 32.1028 17.9217 30.8511C18.2125 29.5047 17.0176 27.8564 15.3695 28.1048C13.3944 28.4019 13.0245 30.2165 12.798 30.8009C12.3201 32.0325 11.2052 31.4238 10.9809 31.2769C10.6426 31.0583 10.4189 30.0715 9.8804 29.7643C9.10727 29.323 9.15177 29.5637 8.9081 29.4153C7.7221 28.6853 7.56113 29.2928 6.46658 28.7722C6.12529 28.6093 5.85519 28.6253 5.65627 28.717C5.58971 28.7599 5.54495 28.8045 5.48219 28.8619L3.75643 27.7671L3.03738 26.6697L3.48112 27.7795L2.26367 27.8888L3.56363 28.0719L5.26771 29.1524C5.1807 29.4082 5.21389 29.7582 5.60901 30.0951C6.53147 30.8827 6.04239 31.2758 7.19219 32.0623C7.42827 32.2227 7.19013 32.2815 7.90931 32.8061C8.40809 33.1715 9.44001 32.9209 9.73867 33.1927C12.6077 35.8041 14.3653 32.698 14.5807 31.8976C14.8494 30.9049 15.3878 31.1852 15.3225 31.5859C15.2167 32.2145 14.942 33.0965 14.7081 34.5794C13.9015 39.6654 20.8656 43.0754 24.5704 38.5232C28.0575 34.2363 28.9574 26.4789 29.5522 23.0794C30.0933 20.0031 32.8327 13.3634 37.5436 16.0858C39.1465 17.0109 40.0345 18.1525 40.4996 19.3335C37.1984 19.5694 34.3577 21.7285 33.8213 24.6278C33.0838 28.6133 35.6011 29.3519 35.6011 29.3519C33.6915 26.6924 34.6692 20.939 40.2497 21.1075C40.473 21.1147 40.6957 21.1338 40.9169 21.1648C41.0625 22.8439 40.6434 24.4278 40.4884 25.4079C40.4199 25.8295 39.2112 29.9838 41.0344 32.8346C37.6165 34.2397 35.3728 38.236 35.0692 42.4015C35.027 42.9784 35.0436 43.5377 35.1079 44.0787C32.6845 45.5963 30.3574 48.1964 31.0536 52.6442C32.1132 59.4208 37.7585 59.9263 40.8382 59.6733C43.4719 59.4572 54.6204 57.0059 56.4306 56.624C58.1585 56.2581 61.9716 57.1677 61.2221 60.0564C60.6428 62.2844 57.2186 62.6177 55.9699 62.8921C54.6217 63.1885 53.6233 64.9624 54.536 66.3568C55.6297 68.0282 57.4328 67.6085 58.0569 67.5721C59.378 67.4945 59.287 68.7613 59.2472 69.0266C59.189 69.4258 58.3859 70.04 58.3307 70.6551C58.2515 71.5414 58.452 71.4013 58.4181 71.6844C58.2476 73.0675 58.867 72.9583 58.849 74.1722C58.8438 74.5395 58.9649 74.7744 59.1238 74.9171L59.1296 74.9108L59.1766 74.9608L59.2231 74.9966V74.9985C59.27 75.0293 59.321 75.0534 59.3746 75.0701L59.04 77.3882L58.3336 78.496L59.1657 77.6347L59.7652 78.7014L59.3993 77.4399L59.7376 75.0988C59.9939 75.0578 60.2745 74.8747 60.4092 74.4009C60.7412 73.2339 61.3022 73.5153 61.5372 72.1426C61.5861 71.8614 61.7364 72.0535 61.9156 71.1814C62.0416 70.5756 61.3834 69.7413 61.5046 69.3578C62.6831 65.6597 59.1268 65.3575 58.3113 65.4934C57.2965 65.663 57.326 65.0573 57.7192 64.9509C58.3345 64.7829 59.2502 64.6656 60.6953 64.2618C65.6543 62.8734 65.8535 55.1244 60.1728 53.653C54.8209 52.2685 47.3948 54.6833 44.0577 55.558C41.036 56.3491 33.8592 56.6247 34.3713 51.2069C34.5446 49.3645 35.211 48.0811 36.0916 47.1674C37.6819 50.0679 40.828 51.751 43.6863 51.0307C47.6199 50.0424 47.2412 47.4461 47.2412 47.4461C45.6181 50.2875 39.9827 51.7988 37.8095 46.6551C37.7238 46.4489 37.6484 46.2386 37.5837 46.025C39.0507 45.1919 40.6639 44.9143 41.6211 44.6467C42.0562 44.526 46.8392 43.8245 48.4442 40.5167C51.369 42.6239 55.8203 42.5496 59.496 40.7861C60.0179 40.5374 60.4952 40.2436 60.9332 39.9201C63.4528 41.2696 66.8667 41.9986 70.3817 39.1871C75.7377 34.901 73.3725 29.7506 71.6243 27.203C70.1276 25.0237 62.4661 16.5645 61.2324 15.1829C60.0608 13.8638 58.9536 10.1045 61.8344 9.32054C64.055 8.71616 66.0458 11.5234 66.9052 12.4728C67.8312 13.4935 69.8652 13.4812 70.6242 11.9962C71.5325 10.2168 70.2715 8.85944 69.9297 8.3359C69.2066 7.22874 70.3505 6.67927 70.6004 6.58017C70.9751 6.43329 71.9077 6.82609 72.4697 6.56667C73.2793 6.19547 73.0582 6.09084 73.3203 5.97977C74.6051 5.44022 74.2037 4.95673 75.2642 4.36984C75.5568 4.20804 75.7038 4.01241 75.7628 3.82134L75.7522 3.78417C75.7991 3.61941 75.7937 3.50629 75.7699 3.41683L77.6627 2.60409L78.9738 2.62814ZM43.7248 23.5433C43.761 23.1895 43.7936 22.776 43.8136 22.3191C45.6358 23.5627 46.9563 25.5725 47.5744 27.4268C48.4681 30.1215 47.4771 32.0177 46.402 32.1403C42.8269 32.5497 43.4499 26.3001 43.7248 23.5433ZM38.5741 42.4796C38.2376 42.5954 37.8475 42.7364 37.4222 42.9095C37.7955 40.7352 39.0727 38.6969 40.5019 37.3631C42.5777 35.4271 44.7144 35.5385 45.2742 36.4652C47.1345 39.5435 41.1932 41.5801 38.5741 42.4796ZM52.4225 38.5714C49.7103 37.7321 48.7472 35.8202 49.2721 34.875C51.0205 31.7298 55.7399 35.8747 57.8217 37.7034C58.0884 37.9384 58.4043 38.2072 58.7663 38.4889C56.6936 39.2458 54.2887 39.1509 52.4225 38.5714Z" fill="black"/>
<path d="M62.3028 78.7574H62.549V78.0402H62.8291V77.8672H62.0312V78.0402H62.3028V78.7574ZM62.9017 78.7279V77.8836H63.2737L63.4097 78.4556H63.4122L63.5466 77.8836H63.9097V78.7279H63.7054V78.0213L63.7016 78.0189L63.5062 78.7279H63.2944L63.1089 78.0126L63.1061 78.0164V78.7279H62.9017Z" fill="#66B933"/>
</g>
<defs>
<linearGradient id="paint0_linear_315_1454" x1="5.69961" y1="-6" x2="103.3" y2="91.6" gradientUnits="userSpaceOnUse">
<stop stop-color="#66B933"/>
<stop offset="1" stop-color="#2E5317"/>
</linearGradient>
<clipPath id="clip0_315_1454">
<rect width="79.328" height="80" fill="white" transform="translate(0.955078)"/>
</clipPath>
</defs>
</svg>
