<svg width="151" height="150" viewBox="0 0 151 150" fill="none" xmlns="http://www.w3.org/2000/svg">
<path d="M122.329 69.5978C122.279 69.5978 122.23 69.5715 122.203 69.525C122.163 69.4553 122.186 69.366 122.256 69.3248L146.289 55.3578C146.36 55.3173 146.448 55.3405 146.489 55.411C146.53 55.4808 146.507 55.57 146.437 55.6105L122.404 69.5775C122.38 69.591 122.355 69.5978 122.329 69.5978Z" fill="#DBDEE4"/>
<path d="M136.185 62.413C136.573 62.1085 136.64 61.5474 136.336 61.1598C136.031 60.7721 135.47 60.7047 135.083 61.0092C134.695 61.3137 134.628 61.8748 134.932 62.2624C135.237 62.6501 135.798 62.7175 136.185 62.413Z" fill="#373B42"/>
<path d="M145.084 53.8061C143.931 54.4721 143.924 55.5529 145.07 56.2189C146.216 56.8849 148.081 56.8849 149.235 56.2189C150.389 55.5529 150.394 54.4728 149.248 53.8068C148.102 53.14 146.238 53.14 145.084 53.8061Z" fill="white"/>
<path d="M147.149 56.8615C146.369 56.8615 145.589 56.689 144.996 56.3455C144.397 55.9975 144.068 55.5257 144.068 55.0172C144.07 54.5049 144.404 54.0302 145.011 53.6799C146.204 52.9914 148.137 52.9929 149.322 53.6799C149.922 54.0287 150.251 54.5004 150.25 55.0089C150.249 55.5205 149.914 55.9952 149.308 56.3447C148.712 56.6898 147.929 56.8615 147.149 56.8615ZM145.157 53.9327C144.644 54.2289 144.362 54.6144 144.361 55.0172C144.36 55.417 144.638 55.7987 145.144 56.092C146.248 56.7333 148.05 56.734 149.162 56.092C149.675 55.7957 149.958 55.411 149.958 55.0089C149.958 54.6092 149.68 54.2274 149.174 53.9334C148.07 53.2914 146.268 53.2914 145.157 53.9327Z" fill="#DBDEE4"/>
<path d="M147.153 55.7738C147.603 55.7738 148.038 55.671 148.347 55.4925C148.595 55.3492 148.738 55.173 148.738 55.0095C148.738 54.8475 148.598 54.6735 148.354 54.5325C148.048 54.354 147.614 54.252 147.165 54.252C146.716 54.252 146.281 54.354 145.972 54.5325C145.723 54.6757 145.581 54.852 145.58 55.0162C145.58 55.1782 145.72 55.3515 145.963 55.4933C146.27 55.6718 146.704 55.7738 147.153 55.7738Z" fill="#CE464A"/>
<path d="M117.031 56.9231C116.98 56.9231 116.932 56.8968 116.905 56.8503C116.864 56.7806 116.887 56.6913 116.957 56.6508L118.474 55.7695C118.543 55.729 118.633 55.7523 118.674 55.8228C118.714 55.8925 118.691 55.9818 118.621 56.023L117.105 56.9043C117.081 56.9171 117.055 56.9231 117.031 56.9231ZM120.064 55.1597C120.014 55.1597 119.965 55.1335 119.938 55.087C119.897 55.0172 119.921 54.928 119.99 54.8867L121.507 54.0054C121.577 53.9649 121.666 53.9882 121.707 54.0587C121.748 54.1285 121.724 54.2177 121.655 54.259L120.138 55.1402C120.114 55.1537 120.089 55.1597 120.064 55.1597ZM123.098 53.3972C123.047 53.3972 122.999 53.3709 122.972 53.3244C122.931 53.2547 122.954 53.1654 123.024 53.1242L124.541 52.2429C124.611 52.2024 124.7 52.2256 124.741 52.2961C124.781 52.3659 124.758 52.4551 124.688 52.4964L123.172 53.3777C123.148 53.3904 123.123 53.3972 123.098 53.3972ZM126.131 51.6339C126.081 51.6339 126.032 51.6076 126.005 51.5611C125.965 51.4914 125.988 51.4021 126.058 51.3608L127.575 50.4796C127.644 50.4391 127.734 50.4623 127.775 50.5328C127.815 50.6026 127.792 50.6918 127.722 50.7323L126.206 51.6136C126.182 51.6279 126.156 51.6339 126.131 51.6339ZM129.165 49.8705C129.115 49.8705 129.066 49.8443 129.039 49.7978C128.999 49.728 129.022 49.6388 129.092 49.5975L130.608 48.7162C130.678 48.6757 130.767 48.699 130.809 48.7695C130.849 48.8393 130.826 48.9285 130.756 48.9698L129.24 49.851C129.216 49.8645 129.191 49.8705 129.165 49.8705ZM132.199 48.108C132.149 48.108 132.1 48.0817 132.073 48.0352C132.033 47.9655 132.056 47.8762 132.126 47.835L133.642 46.9537C133.712 46.9132 133.801 46.9364 133.843 47.0069C133.883 47.0767 133.86 47.1659 133.79 47.2072L132.273 48.0885C132.249 48.1012 132.225 48.108 132.199 48.108ZM133.878 45.5654C133.798 45.5654 133.732 45.5001 133.732 45.4191V43.6648C133.732 43.5838 133.798 43.5186 133.878 43.5186C133.958 43.5186 134.024 43.5838 134.024 43.6648V45.4191C134.024 45.4994 133.958 45.5654 133.878 45.5654ZM133.878 42.056C133.798 42.056 133.732 41.9907 133.732 41.9097V40.1554C133.732 40.0744 133.798 40.0092 133.878 40.0092C133.958 40.0092 134.024 40.0744 134.024 40.1554V41.9097C134.024 41.9907 133.958 42.056 133.878 42.056ZM133.878 38.5474C133.798 38.5474 133.732 38.4821 133.732 38.4011V36.6468C133.732 36.5658 133.798 36.5005 133.878 36.5005C133.958 36.5005 134.024 36.5658 134.024 36.6468V38.4011C134.024 38.4821 133.958 38.5474 133.878 38.5474ZM133.878 35.0387C133.798 35.0387 133.732 34.9735 133.732 34.8925V33.1382C133.732 33.0572 133.798 32.9919 133.878 32.9919C133.958 32.9919 134.024 33.0572 134.024 33.1382V34.8925C134.024 34.9735 133.958 35.0387 133.878 35.0387ZM133.878 31.5301C133.798 31.5301 133.732 31.4649 133.732 31.3839V29.6295C133.732 29.5485 133.798 29.4833 133.878 29.4833C133.958 29.4833 134.024 29.5485 134.024 29.6295V31.3839C134.024 31.4641 133.958 31.5301 133.878 31.5301ZM133.878 28.0207C133.798 28.0207 133.732 27.9555 133.732 27.8745V26.1202C133.732 26.0392 133.798 25.9739 133.878 25.9739C133.958 25.9739 134.024 26.0392 134.024 26.1202V27.8745C134.024 27.9555 133.958 28.0207 133.878 28.0207ZM133.878 24.5121C133.798 24.5121 133.732 24.4468 133.732 24.3658V22.6115C133.732 22.5305 133.798 22.4653 133.878 22.4653C133.958 22.4653 134.024 22.5305 134.024 22.6115V24.3658C134.024 24.4468 133.958 24.5121 133.878 24.5121ZM133.878 21.0035C133.798 21.0035 133.732 20.9382 133.732 20.8572V19.1029C133.732 19.0219 133.798 18.9566 133.878 18.9566C133.958 18.9566 134.024 19.0219 134.024 19.1029V20.8572C134.024 20.9382 133.958 21.0035 133.878 21.0035ZM133.878 17.4941C133.798 17.4941 133.732 17.4288 133.732 17.3478V15.5935C133.732 15.5125 133.798 15.4473 133.878 15.4473C133.958 15.4473 134.024 15.5125 134.024 15.5935V17.3478C134.024 17.4288 133.958 17.4941 133.878 17.4941Z" fill="#373B42"/>
<path d="M136.117 6.22656L133.877 7.51961L133.902 15.8172L142.714 6.22656H136.117Z" fill="white"/>
<path d="M133.901 15.9636C133.883 15.9636 133.866 15.9606 133.848 15.9539C133.792 15.9321 133.755 15.8781 133.755 15.8181L133.73 7.52133C133.73 7.46883 133.758 7.42008 133.803 7.39458L136.043 6.10153C136.065 6.08878 136.09 6.08203 136.116 6.08203H142.712C142.771 6.08203 142.823 6.11653 142.846 6.16903C142.869 6.22229 142.859 6.28379 142.82 6.32654L134.008 15.9164C133.981 15.9471 133.941 15.9636 133.901 15.9636ZM134.023 7.60534L134.046 15.4439L142.381 6.37454H136.156L134.023 7.60534Z" fill="#373B42"/>
<path d="M150.107 0.148438L141.147 13.7202L126.701 5.37988L150.107 0.148438Z" fill="white"/>
<path d="M141.147 13.8667C141.121 13.8667 141.096 13.8607 141.074 13.8472L126.628 5.50685C126.576 5.47685 126.547 5.4176 126.556 5.35835C126.565 5.29834 126.61 5.25034 126.669 5.23759L150.074 0.00539614C150.133 -0.00735433 150.193 0.0158968 150.226 0.0653986C150.26 0.11415 150.261 0.179402 150.228 0.228904L141.269 13.8014C141.24 13.8442 141.194 13.8667 141.147 13.8667ZM127.099 5.4416L141.1 13.5254L149.784 0.370659L127.099 5.4416Z" fill="#373B42"/>
<path d="M150.101 0.152344L135.739 10.6047L133.901 15.8219L132.105 8.5099L150.101 0.152344Z" fill="#373B42"/>
<path d="M133.901 15.9667C133.899 15.9667 133.897 15.9667 133.894 15.9667C133.829 15.9637 133.774 15.9187 133.759 15.8557L131.963 8.54447C131.947 8.47622 131.98 8.40646 132.043 8.37721L150.04 0.0196517C150.109 -0.0125995 150.189 0.0136514 150.228 0.0781538C150.265 0.142656 150.248 0.22666 150.188 0.270912L135.862 10.6963L134.038 15.8707C134.018 15.9285 133.963 15.9667 133.901 15.9667ZM132.276 8.59172L133.926 15.3097L135.601 10.5553C135.611 10.5275 135.629 10.5028 135.653 10.4855L148.803 0.915936L132.276 8.59172Z" fill="#373B42"/>
<path d="M37.4093 100.923C37.3838 100.923 37.359 100.917 37.3358 100.903L20.8404 91.3172C20.0281 90.8447 19.0178 90.8447 18.2056 91.3172L3.41351 99.9133C3.343 99.953 3.25375 99.9298 3.21325 99.86C3.17275 99.7903 3.196 99.701 3.26575 99.6598L18.0578 91.0637C18.9616 90.5387 20.0844 90.5387 20.9874 91.0637L37.4828 100.65C37.5525 100.69 37.5758 100.78 37.5353 100.85C37.509 100.897 37.4595 100.923 37.4093 100.923Z" fill="#DBDEE4"/>
<path d="M12.6738 95.2616C13.1667 95.2616 13.5663 94.862 13.5663 94.3691C13.5663 93.8762 13.1667 93.4766 12.6738 93.4766C12.1809 93.4766 11.7812 93.8762 11.7812 94.3691C11.7812 94.862 12.1809 95.2616 12.6738 95.2616Z" fill="#373B42"/>
<path d="M5.41392 101.008C6.56746 100.342 6.57421 99.2612 5.42817 98.5952C4.28213 97.9292 2.41681 97.9292 1.26326 98.5952C0.109721 99.2612 0.104472 100.341 1.25051 101.007C2.39581 101.673 4.26037 101.674 5.41392 101.008Z" fill="white"/>
<path d="M3.32991 101.651C2.54913 101.651 1.7691 101.479 1.17658 101.134C0.57731 100.786 0.247298 100.314 0.248048 99.8061C0.249548 99.2945 0.583309 98.8198 1.19008 98.4695C2.38263 97.781 4.3162 97.781 5.50199 98.4695C6.10127 98.8175 6.43053 99.2893 6.42978 99.7978C6.42828 100.309 6.09376 100.784 5.48699 101.135C4.89147 101.479 4.10994 101.651 3.32991 101.651ZM3.34866 98.2408C2.62113 98.2408 1.89211 98.4013 1.33634 98.7223C0.823319 99.0185 0.540559 99.4033 0.540559 99.8061C0.539809 100.206 0.818069 100.588 1.32434 100.882C2.42763 101.524 4.22994 101.524 5.34149 100.882C5.85451 100.585 6.13727 100.2 6.13802 99.7971C6.13877 99.3973 5.8605 99.0155 5.35499 98.7223C4.80297 98.4013 4.07694 98.2408 3.34866 98.2408Z" fill="#DBDEE4"/>
<path d="M3.34653 99.041C2.89651 99.041 2.46149 99.143 2.15248 99.3215C1.90422 99.4648 1.76172 99.641 1.76172 99.8045C1.76172 99.9666 1.90122 100.141 2.14498 100.282C2.45174 100.46 2.88526 100.562 3.33453 100.562C3.78379 100.562 4.21881 100.46 4.52782 100.282C4.77608 100.138 4.91859 99.962 4.91934 99.7978C4.91934 99.6358 4.77983 99.4625 4.53607 99.3208C4.22931 99.143 3.79579 99.041 3.34653 99.041Z" fill="#CE464A"/>
<path d="M102.312 147.727C102.261 147.727 102.213 147.701 102.185 147.654C102.145 147.584 102.169 147.495 102.239 147.455L117.982 138.365C118.493 138.07 118.774 137.687 118.775 137.287C118.776 136.889 118.498 136.51 117.996 136.217L94.7072 122.684C94.6374 122.643 94.6142 122.553 94.6547 122.483C94.6944 122.413 94.7837 122.39 94.8549 122.43L118.143 135.964C118.74 136.311 119.069 136.78 119.068 137.287C119.067 137.796 118.734 138.268 118.129 138.618L102.386 147.707C102.362 147.721 102.337 147.727 102.312 147.727Z" fill="#DBDEE4"/>
<path d="M99.0687 146.948C97.9152 147.614 97.9084 148.695 99.0545 149.361C100.201 150.027 102.066 150.027 103.219 149.361C104.373 148.695 104.378 147.615 103.232 146.949C102.087 146.283 100.222 146.282 99.0687 146.948Z" fill="white"/>
<path d="M101.134 150.004C100.353 150.004 99.5738 149.831 98.9805 149.488C98.3812 149.14 98.052 148.668 98.0527 148.159C98.0535 147.648 98.388 147.173 98.9948 146.823C100.187 146.134 102.121 146.135 103.305 146.823C103.904 147.171 104.234 147.643 104.234 148.151C104.232 148.663 103.898 149.137 103.292 149.487C102.697 149.831 101.915 150.004 101.134 150.004ZM101.153 146.594C100.426 146.594 99.6975 146.754 99.1418 147.076C98.6288 147.372 98.346 147.757 98.346 148.16C98.3452 148.56 98.6228 148.942 99.1283 149.235C100.232 149.877 102.034 149.876 103.146 149.235C103.659 148.939 103.942 148.554 103.942 148.151C103.943 147.751 103.664 147.37 103.158 147.076C102.608 146.754 101.881 146.594 101.153 146.594Z" fill="#DBDEE4"/>
<path d="M101.137 148.916C101.587 148.916 102.022 148.814 102.331 148.635C102.58 148.492 102.722 148.316 102.722 148.152C102.722 147.99 102.583 147.816 102.339 147.675C102.032 147.497 101.599 147.395 101.149 147.395C100.7 147.395 100.265 147.497 99.956 147.675C99.7077 147.818 99.5652 147.995 99.5645 148.159C99.5645 148.321 99.704 148.494 99.9477 148.636C100.254 148.814 100.688 148.916 101.137 148.916Z" fill="#CE464A"/>
<path d="M108.469 131.394C108.962 131.394 109.361 130.995 109.361 130.502C109.361 130.009 108.962 129.609 108.469 129.609C107.976 129.609 107.576 130.009 107.576 130.502C107.576 130.995 107.976 131.394 108.469 131.394Z" fill="#373B42"/>
<g opacity="0.1">
<path d="M145.794 97.113C148.057 98.4203 148.069 100.535 145.821 101.843L64.8861 148.877C62.6367 150.184 58.9849 150.184 56.7205 148.877L14.3365 124.406C12.0729 123.099 12.0609 120.984 14.3095 119.677L95.2442 72.6426C97.4935 71.3353 101.145 71.3353 103.41 72.6426L145.794 97.113Z" fill="black"/>
</g>
<path d="M15.2051 117.985C15.2051 118.838 15.7758 119.703 16.9114 120.356L59.3007 144.826C59.9832 145.221 60.7895 145.497 61.649 145.65C62.2026 145.755 62.7846 145.809 63.3614 145.809C63.9381 145.809 64.5089 145.761 65.0677 145.662C65.9445 145.509 66.7687 145.232 67.4573 144.826L148.394 97.7934C149.518 97.1461 150.077 96.2986 150.077 95.451L150.1 85.5762C150.1 86.4297 149.541 87.2825 148.423 87.9245L67.4865 134.963C66.786 135.375 65.9565 135.652 65.0677 135.799C64.5089 135.899 63.9381 135.94 63.3614 135.94C62.7846 135.94 62.2078 135.887 61.649 135.781C60.7955 135.628 59.9952 135.351 59.3187 134.963L16.9414 110.493C15.7998 109.828 15.2351 108.975 15.2351 108.103L15.2051 117.985Z" fill="#BEC4CD"/>
<path d="M61.6504 135.779V145.648C62.2039 145.754 62.7859 145.807 63.3627 145.807C63.9395 145.807 64.5103 145.76 65.069 145.66V135.797C64.5103 135.897 63.9395 135.938 63.3627 135.938C62.7867 135.938 62.2099 135.885 61.6504 135.779Z" fill="#DBDEE4"/>
<path d="M63.3983 145.954C63.3863 145.954 63.3743 145.954 63.3623 145.954C61.8075 145.948 60.3397 145.593 59.2282 144.954L16.8404 120.483C15.6928 119.824 15.0605 118.936 15.0605 117.98L15.0868 108.102C15.0868 108.021 15.1528 107.955 15.2331 107.955C15.3141 107.955 15.3793 108.021 15.3793 108.102C15.3793 108.944 15.9598 109.747 17.0136 110.362L59.3962 134.833C60.4597 135.447 61.8683 135.787 63.3638 135.793C63.3751 135.793 63.3871 135.793 63.3991 135.793C64.9276 135.793 66.3527 135.452 67.4147 134.833L148.35 87.7975C149.383 87.2057 149.954 86.4205 149.958 85.5842V85.5759C149.958 85.4949 150.024 85.4297 150.105 85.4297C150.186 85.4297 150.251 85.4949 150.251 85.5759V85.5767C150.251 85.5804 150.251 85.5834 150.251 85.5872L150.225 95.4486C150.225 96.3891 149.601 97.2666 148.471 97.9191L67.5362 144.953C66.43 145.599 64.9621 145.954 63.3983 145.954ZM15.3756 109.194L15.3523 117.981C15.3523 118.826 15.9328 119.625 16.9859 120.23L59.3744 144.701C60.4425 145.315 61.8593 145.656 63.3638 145.661C63.3751 145.661 63.3871 145.661 63.3983 145.661C64.9119 145.661 66.3272 145.321 67.3877 144.701L148.323 97.6664C149.361 97.0679 149.931 96.2803 149.931 95.4486L149.955 86.6777C149.666 87.1952 149.172 87.6655 148.496 88.0525L67.5617 135.087C66.4562 135.732 64.9786 136.087 63.3991 136.087C63.3871 136.087 63.3743 136.087 63.3623 136.087C61.8165 136.081 60.3562 135.727 59.2492 135.087L16.8666 110.616C16.1721 110.211 15.6673 109.725 15.3756 109.194Z" fill="#373B42"/>
<path d="M19.5994 122.054C19.5191 122.054 19.4531 121.989 19.4531 121.908V112.025C19.4531 111.944 19.5191 111.879 19.5994 111.879C19.6796 111.879 19.7456 111.944 19.7456 112.025V121.908C19.7456 121.989 19.6796 122.054 19.5994 122.054Z" fill="#373B42"/>
<path d="M129.367 103.541C129.373 103.952 129.515 104.248 129.748 104.383L130.613 104.886C130.379 104.744 130.238 104.456 130.232 104.044C130.232 103.214 130.816 102.205 131.536 101.787L137.834 98.1509C138.203 97.9416 138.529 97.9236 138.769 98.0586L137.904 97.5554C137.664 97.4196 137.338 97.4384 136.969 97.6476L130.671 101.284C129.951 101.702 129.367 102.71 129.367 103.541Z" fill="#373B42"/>
<path d="M130.615 105.032C130.589 105.032 130.564 105.026 130.541 105.012L129.676 104.509C129.391 104.344 129.229 104 129.223 103.542C129.223 103.541 129.223 103.541 129.223 103.54C129.223 102.652 129.827 101.605 130.599 101.156L136.898 97.5202C137.299 97.2937 137.681 97.26 137.978 97.4272L138.846 97.9313C138.915 97.9718 138.939 98.0603 138.899 98.1308C138.859 98.2013 138.769 98.2238 138.7 98.1855C138.497 98.0715 138.217 98.1038 137.909 98.2778L131.611 101.913C130.933 102.308 130.381 103.263 130.381 104.044C130.385 104.388 130.495 104.643 130.691 104.762C130.759 104.804 130.782 104.892 130.741 104.962C130.713 105.006 130.664 105.032 130.615 105.032ZM129.514 103.539C129.52 103.89 129.63 104.144 129.823 104.256L130.139 104.44C130.107 104.321 130.089 104.188 130.087 104.045C130.087 103.155 130.692 102.108 131.464 101.659L137.763 98.0228C137.894 97.9485 138.022 97.896 138.146 97.863L137.832 97.6808C137.63 97.566 137.35 97.5998 137.043 97.7738L130.746 101.409C130.067 101.804 129.515 102.758 129.514 103.539Z" fill="#373B42"/>
<path d="M131.538 101.784C130.816 102.201 130.232 103.211 130.234 104.041C130.237 104.872 130.824 105.206 131.546 104.789L137.846 101.152C138.568 100.735 139.151 99.7243 139.149 98.894C139.147 98.0637 138.56 97.7292 137.837 98.1462L131.538 101.784Z" fill="white"/>
<path d="M130.959 105.116C130.809 105.116 130.669 105.08 130.545 105.009C130.251 104.84 130.089 104.497 130.088 104.042C130.086 103.152 130.69 102.105 131.464 101.658L137.764 98.0204C138.162 97.7901 138.543 97.7579 138.838 97.9274C139.131 98.0962 139.294 98.4397 139.294 98.8942C139.297 99.7695 138.679 100.839 137.918 101.279L131.619 104.917C131.389 105.049 131.165 105.116 130.959 105.116ZM131.538 101.785L131.61 101.912C130.93 102.305 130.378 103.261 130.38 104.042C130.382 104.388 130.491 104.642 130.69 104.756C130.891 104.872 131.169 104.838 131.472 104.663L137.772 101.025C138.453 100.632 139.004 99.6765 139.002 98.8942C139 98.5484 138.891 98.2949 138.692 98.1802C138.49 98.0647 138.214 98.0977 137.91 98.2724L131.61 101.91L131.538 101.785Z" fill="#373B42"/>
<path d="M148.397 83.197C150.661 84.5043 150.673 86.6193 148.424 87.9266L67.4896 134.961C65.2403 136.268 61.5884 136.268 59.324 134.961L16.94 110.49C14.6764 109.183 14.6644 107.068 16.913 105.761L97.8477 58.7266C100.097 57.4193 103.749 57.4193 106.013 58.7266L148.397 83.197Z" fill="#373B42"/>
<path d="M63.411 136.082C61.9064 136.082 60.3996 135.751 59.2498 135.087L16.865 110.616C15.7197 109.955 15.0874 109.067 15.0859 108.116C15.0844 107.172 15.707 106.291 16.8373 105.633L97.772 58.5989C100.057 57.2721 103.785 57.2713 106.085 58.5989L148.469 83.0693C149.615 83.7308 150.247 84.6181 150.248 85.5684C150.25 86.5127 149.627 87.3947 148.496 88.0517L67.5616 135.086C66.4201 135.751 64.9163 136.082 63.411 136.082ZM101.924 57.8916C100.472 57.8916 99.0216 58.2119 97.9205 58.8517L16.9858 105.887C15.9485 106.489 15.3785 107.281 15.3792 108.116C15.3807 108.958 15.9605 109.756 17.012 110.364L59.3968 134.834C61.6162 136.115 65.2126 136.114 67.4154 134.834L148.35 87.7997C149.388 87.1967 149.958 86.4054 149.957 85.5699C149.956 84.7284 149.376 83.9303 148.325 83.3236L105.94 58.8532C104.83 58.2119 103.376 57.8916 101.924 57.8916Z" fill="#373B42"/>
<path d="M149.313 85.5695C149.313 86.1545 148.844 86.765 148.027 87.2398L67.0916 134.274C66.1226 134.838 64.816 135.149 63.409 135.149C62.0079 135.149 60.6961 134.838 59.7159 134.274L17.3333 109.804C16.5008 109.324 16.0215 108.708 16.0215 108.112C16.0215 107.527 16.4903 106.917 17.307 106.442L98.2425 59.4077C99.2116 58.8437 100.518 58.5332 101.925 58.5332C103.326 58.5332 104.638 58.8437 105.618 59.4077L148.001 83.8781C148.833 84.3582 149.313 84.9739 149.313 85.5695Z" fill="white"/>
<path d="M63.41 135.295C61.9834 135.295 60.6461 134.977 59.6441 134.401L17.2615 109.929C16.3817 109.423 15.877 108.76 15.877 108.111C15.877 107.471 16.372 106.816 17.2353 106.315L98.1708 59.2808C99.163 58.704 100.497 58.3867 101.927 58.3867C103.353 58.3867 104.691 58.704 105.693 59.2808L148.075 83.7519C148.955 84.2582 149.46 84.9212 149.46 85.5692C149.46 86.2098 148.965 86.8645 148.102 87.3655L67.1661 134.4C66.1738 134.977 64.8403 135.295 63.41 135.295ZM101.926 58.6792C100.546 58.6792 99.265 58.983 98.317 59.5343L17.3815 106.569C16.6105 107.016 16.1687 107.579 16.1687 108.112C16.1687 108.653 16.6202 109.224 17.4078 109.677L59.7903 134.148C60.7489 134.699 62.0337 135.003 63.41 135.003C64.79 135.003 66.0711 134.699 67.0191 134.148L147.955 87.1135C148.726 86.6658 149.167 86.1032 149.167 85.57C149.167 85.0292 148.716 84.4592 147.928 84.0054L105.546 59.5343C104.587 58.983 103.302 58.6792 101.926 58.6792Z" fill="#373B42"/>
<path d="M47.0704 122.951C47.6081 123.262 47.6074 123.764 47.0764 124.073C46.5461 124.381 45.6791 124.383 45.1413 124.073L35.1719 118.317C34.6379 118.009 34.6349 117.504 35.1659 117.196C35.4292 117.043 35.7825 116.963 36.132 116.967C36.4852 116.965 36.8355 117.043 37.101 117.196L47.0704 122.951Z" fill="#BEC4CD"/>
<path d="M112.61 68.3756C113.236 68.7416 129.155 77.9902 129.894 78.4192C131.074 79.1048 133 79.1048 134.185 78.4222L136.34 77.175C135.602 76.7459 115.618 65.1355 114.776 64.6465L112.621 65.89C111.436 66.5763 111.43 67.6901 112.61 68.3756Z" fill="#373B42"/>
<path d="M132.041 79.0789C131.236 79.0789 130.431 78.9019 129.82 78.5472L127.833 77.3921C123.407 74.821 113.044 68.7998 112.537 68.5028C111.92 68.1458 111.582 67.6613 111.582 67.1385C111.583 66.6127 111.926 66.1252 112.547 65.7652L114.703 64.5216C114.749 64.4954 114.804 64.4954 114.85 64.5216L136.414 77.0501C136.459 77.0764 136.487 77.1244 136.487 77.1769C136.487 77.2294 136.459 77.2774 136.414 77.3036L134.258 78.5509C133.646 78.9027 132.842 79.0789 132.041 79.0789ZM114.775 64.8171L112.693 66.0187C112.165 66.324 111.875 66.7222 111.874 67.1392C111.874 67.5532 112.161 67.9478 112.682 68.2508C112.683 68.2508 112.683 68.2508 112.683 68.2508C113.185 68.544 123.552 74.5675 127.979 77.1401L129.967 78.2944C131.106 78.9559 132.965 78.9574 134.111 78.2974L136.048 77.1769L114.775 64.8171Z" fill="#373B42"/>
<path d="M128.67 75.7843C129.161 75.7843 129.62 75.6756 129.961 75.4783C130.268 75.3006 130.438 75.0786 130.439 74.8521C130.439 74.6293 130.274 74.4103 129.974 74.2355L116.582 66.4533C116.241 66.256 115.783 66.1465 115.29 66.1465C114.797 66.1465 114.335 66.256 113.991 66.4547C113.688 66.6303 113.52 66.8508 113.52 67.0758C113.519 67.3 113.685 67.5198 113.986 67.6953L127.379 75.4776C127.72 75.6756 128.178 75.7843 128.67 75.7843Z" fill="white"/>
<path d="M132.144 77.8024C132.634 77.8024 133.093 77.6936 133.435 77.4964C133.742 77.3194 133.912 77.0966 133.912 76.8701C133.912 76.6466 133.747 76.4276 133.445 76.2521C133.105 76.0548 132.646 75.9453 132.154 75.9453C131.66 75.9453 131.198 76.0548 130.855 76.2536C130.551 76.4291 130.384 76.6496 130.383 76.8746C130.382 77.0989 130.548 77.3186 130.849 77.4941C131.192 77.6929 131.651 77.8024 132.144 77.8024Z" fill="white"/>
<path d="M132.145 77.4275C132.437 77.4275 132.709 77.363 132.913 77.246C133.096 77.1402 133.196 77.0082 133.196 76.874C133.196 76.7412 133.098 76.6107 132.919 76.5065C132.716 76.3887 132.444 76.3242 132.151 76.3242C131.857 76.3242 131.583 76.3895 131.378 76.5072C131.197 76.6115 131.098 76.7427 131.098 76.8762C131.098 77.0097 131.196 77.1403 131.375 77.2445C131.58 77.3623 131.853 77.4275 132.145 77.4275Z" fill="#CE464A"/>
<path d="M55.2496 137.066C54.7831 136.797 54.4058 137.019 54.4043 137.555C54.4028 138.099 54.7771 138.747 55.2443 139.017C55.7229 139.293 56.1001 139.078 56.1016 138.535C56.1031 137.998 55.7289 137.343 55.2496 137.066Z" fill="#373B42"/>
<path d="M51.7535 135.046C51.287 134.777 50.9097 134.999 50.9082 135.535C50.9067 136.079 51.281 136.727 51.7482 136.997C52.2268 137.274 52.604 137.059 52.6055 136.516C52.607 135.979 52.232 135.322 51.7535 135.046Z" fill="#373B42"/>
<path d="M48.2633 133.031C47.7967 132.761 47.4195 132.983 47.418 133.52C47.4165 134.063 47.7907 134.711 48.258 134.981C48.7365 135.258 49.1138 135.043 49.1153 134.5C49.1168 133.963 48.7425 133.307 48.2633 133.031Z" fill="#373B42"/>
<path d="M26.3609 120.386C25.8944 120.117 25.5171 120.339 25.5156 120.875C25.5141 121.419 25.8884 122.067 26.3557 122.337C26.8342 122.614 27.2114 122.398 27.2129 121.855C27.2144 121.318 26.8402 120.662 26.3609 120.386Z" fill="#373B42"/>
<path d="M22.8648 118.372C22.3983 118.103 22.021 118.325 22.0195 118.861C22.018 119.405 22.3923 120.053 22.8596 120.323C23.3381 120.6 23.7153 120.385 23.7168 119.842C23.7183 119.305 23.3433 118.648 22.8648 118.372Z" fill="#373B42"/>
<path d="M32.6836 126.012C32.2058 125.736 31.8188 125.065 31.8203 124.516C31.8218 123.967 32.2111 123.745 32.6896 124.021L41.9434 129.363C42.4212 129.639 42.8067 130.309 42.8052 130.858C42.8037 131.407 42.4152 131.63 41.9374 131.354L32.6836 126.012Z" fill="#373B42"/>
<path d="M72.742 141.905C72.6617 141.905 72.5957 141.839 72.5957 141.758V131.906C72.5957 131.825 72.6617 131.76 72.742 131.76C72.8222 131.76 72.8882 131.825 72.8882 131.906V141.758C72.8882 141.839 72.8222 141.905 72.742 141.905Z" fill="#373B42"/>
<path d="M143.674 100.685C143.593 100.685 143.527 100.62 143.527 100.539V90.6873C143.527 90.6063 143.593 90.541 143.674 90.541C143.754 90.541 143.82 90.6063 143.82 90.6873V100.539C143.82 100.62 143.755 100.685 143.674 100.685Z" fill="#373B42"/>
<path d="M91.8623 124.117C91.0792 124.57 90.447 125.665 90.4492 126.565C90.4515 127.465 91.0882 127.827 91.8713 127.375L107.083 118.591C107.866 118.139 108.499 117.044 108.496 116.144C108.494 115.244 107.857 114.881 107.074 115.333L91.8623 124.117Z" fill="#F0F2F5"/>
<path d="M91.8832 125.017C92.223 124.821 92.4975 124.983 92.499 125.373C92.5005 125.768 92.2275 126.241 91.8877 126.437C91.5389 126.638 91.2644 126.482 91.2637 126.086C91.2622 125.696 91.5344 125.219 91.8832 125.017Z" fill="#373B42"/>
<path d="M138.185 142.942C135.445 144.524 135.431 147.087 138.157 148.671C140.879 150.253 145.305 150.253 148.044 148.671C150.779 147.092 150.794 144.529 148.072 142.947C145.345 141.362 140.92 141.362 138.185 142.942Z" fill="white"/>
<path d="M143.094 150C141.277 150 139.462 149.6 138.083 148.799C136.722 148.007 135.972 146.948 135.975 145.815C135.976 144.676 136.735 143.611 138.111 142.816C140.884 141.215 145.385 141.218 148.145 142.822C149.504 143.611 150.252 144.67 150.251 145.803C150.249 146.942 149.492 148.006 148.118 148.799C146.73 149.6 144.91 150 143.094 150ZM138.258 143.068C136.976 143.809 136.269 144.784 136.267 145.815C136.266 146.84 136.962 147.809 138.231 148.545C140.907 150.101 145.277 150.101 147.971 148.545C149.251 147.806 149.957 146.832 149.958 145.802C149.96 144.778 149.264 143.809 147.998 143.074C145.318 141.517 140.949 141.515 138.258 143.068Z" fill="#373B42"/>
<path d="M138.582 133.544L138.635 145.333C138.638 145.996 139.074 146.659 139.946 147.166C141.699 148.185 144.55 148.185 146.314 147.166C147.2 146.655 147.643 145.983 147.641 145.312L147.588 133.523C147.59 134.195 147.147 134.867 146.261 135.378C144.496 136.397 141.646 136.397 139.893 135.378C139.021 134.871 138.584 134.208 138.582 133.544Z" fill="white"/>
<path d="M139.891 135.379C140.762 135.885 141.903 136.139 143.049 136.142V147.927C141.922 147.916 140.802 147.666 139.944 147.168C139.071 146.661 138.635 145.998 138.633 145.334L138.58 133.545C138.582 134.209 139.018 134.872 139.891 135.379Z" fill="#DBDEE4"/>
<path d="M143.122 148.077C141.943 148.077 140.764 147.817 139.869 147.296C138.979 146.779 138.488 146.083 138.485 145.336L138.432 133.55C138.432 133.55 138.432 133.55 138.432 133.55V133.548C138.432 133.467 138.497 133.402 138.577 133.401H138.578C138.658 133.401 138.723 133.466 138.724 133.547V133.55C138.728 134.187 139.168 134.792 139.963 135.255C141.672 136.248 144.463 136.248 146.185 135.255C146.995 134.787 147.44 134.174 147.438 133.528C147.438 133.447 147.503 133.382 147.583 133.381H147.584C147.664 133.381 147.73 133.446 147.73 133.526L147.784 145.315C147.787 146.071 147.289 146.774 146.384 147.297C145.483 147.817 144.301 148.077 143.122 148.077ZM138.729 134.521L138.777 145.336C138.78 145.974 139.219 146.581 140.016 147.043C141.725 148.037 144.517 148.037 146.238 147.043C147.048 146.575 147.493 145.962 147.491 145.316L147.442 134.497C147.207 134.875 146.83 135.219 146.33 135.508C144.529 136.548 141.606 136.548 139.815 135.508C139.329 135.225 138.962 134.889 138.729 134.521Z" fill="#373B42"/>
<path d="M139.907 131.688C138.143 132.707 138.134 134.358 139.889 135.378C141.642 136.397 144.493 136.397 146.257 135.378C148.019 134.361 148.028 132.71 146.275 131.691C144.519 130.671 141.669 130.671 139.907 131.688Z" fill="white"/>
<path d="M143.069 136.285C141.889 136.285 140.711 136.025 139.815 135.505C138.922 134.985 138.431 134.287 138.432 133.538C138.433 132.785 138.93 132.083 139.834 131.562C141.634 130.522 144.556 130.524 146.349 131.565C147.241 132.084 147.731 132.782 147.73 133.53C147.729 134.283 147.232 134.985 146.331 135.505C145.43 136.025 144.248 136.285 143.069 136.285ZM139.908 131.688L139.98 131.815C139.171 132.282 138.725 132.894 138.724 133.539C138.723 134.179 139.164 134.787 139.963 135.252C141.672 136.245 144.463 136.245 146.185 135.252C146.992 134.786 147.438 134.174 147.438 133.53C147.439 132.89 147 132.282 146.202 131.818C144.49 130.824 141.699 130.822 139.981 131.814L139.908 131.688Z" fill="#373B42"/>
<path d="M140.1 123.938L140.135 133.13C140.136 133.571 140.427 134.012 141.007 134.349C142.173 135.026 144.069 135.026 145.242 134.349C145.831 134.009 146.125 133.562 146.125 133.115L146.089 123.924C146.091 124.37 145.796 124.817 145.207 125.158C144.033 125.835 142.137 125.835 140.972 125.158C140.391 124.82 140.101 124.379 140.1 123.938Z" fill="white"/>
<path d="M140.972 125.16C141.546 125.494 142.297 125.661 143.051 125.666V134.857C142.308 134.846 141.572 134.681 141.007 134.353C140.427 134.015 140.136 133.575 140.135 133.133L140.1 123.941C140.101 124.382 140.391 124.823 140.972 125.16Z" fill="#DBDEE4"/>
<path d="M143.121 135.005C142.328 135.005 141.535 134.83 140.933 134.48C140.325 134.126 139.989 133.649 139.988 133.134L139.953 123.944V123.943V123.943C139.953 123.862 140.018 123.796 140.099 123.796H140.099C140.18 123.796 140.245 123.862 140.246 123.942C140.247 124.348 140.531 124.736 141.045 125.035C142.168 125.688 144.003 125.688 145.133 125.035C145.656 124.732 145.944 124.339 145.943 123.928C145.943 123.847 146.008 123.781 146.088 123.781H146.089C146.169 123.781 146.235 123.847 146.235 123.927L146.27 133.118C146.271 133.639 145.932 134.122 145.314 134.479C144.708 134.83 143.914 135.005 143.121 135.005ZM140.248 124.744L140.28 133.134C140.282 133.541 140.565 133.928 141.08 134.228C142.202 134.881 144.036 134.881 145.167 134.228C145.691 133.925 145.978 133.532 145.977 133.121L145.944 124.729C145.785 124.936 145.56 125.126 145.278 125.289C144.066 125.989 142.101 125.989 140.896 125.289C140.624 125.129 140.405 124.945 140.248 124.744Z" fill="#373B42"/>
<path d="M140.986 122.704C139.812 123.382 139.806 124.48 140.974 125.158C142.139 125.836 144.035 125.836 145.208 125.158C146.38 124.482 146.386 123.384 145.22 122.707C144.053 122.028 142.157 122.028 140.986 122.704Z" fill="#CE464A"/>
<path d="M143.088 125.809C142.294 125.809 141.502 125.634 140.899 125.284C140.29 124.93 139.954 124.45 139.955 123.934C139.956 123.415 140.296 122.932 140.912 122.577C142.122 121.877 144.088 121.878 145.294 122.579C145.903 122.933 146.238 123.412 146.237 123.928C146.236 124.447 145.897 124.929 145.281 125.284C144.675 125.634 143.881 125.809 143.088 125.809ZM143.102 122.341C142.363 122.341 141.623 122.504 141.059 122.829C140.536 123.131 140.249 123.523 140.248 123.934C140.248 124.341 140.532 124.731 141.048 125.03C142.171 125.683 144.005 125.683 145.136 125.03C145.657 124.729 145.945 124.337 145.946 123.927C145.946 123.52 145.663 123.13 145.148 122.831C144.584 122.505 143.843 122.341 143.102 122.341Z" fill="#373B42"/>
<path d="M145.912 113.588V123.906C145.898 124.313 145.621 124.713 145.091 125.025C143.979 125.665 142.191 125.665 141.087 125.025C140.557 124.712 140.288 124.313 140.273 123.906V113.588H145.912Z" fill="url(#paint0_linear_423_998)"/>
<path d="M114.872 33.4396C112.645 32.364 85.0728 19.1425 85.0728 19.1425C84.3685 18.8253 83.5127 18.9003 82.6307 19.3038C82.4852 19.3736 82.3352 19.4493 82.1844 19.5348C81.1359 20.1371 80.0918 21.1751 79.2743 22.5259C79.2743 22.5259 50.8678 69.0164 49.4855 71.2702C49.4532 71.3295 49.4314 71.3565 49.4314 71.3565L44.5098 68.4951C44.5255 68.4681 44.5473 68.4464 44.5638 68.4201C45.9461 66.161 74.3526 19.6706 74.3526 19.6706C75.1702 18.3205 76.2194 17.2877 77.2627 16.6795C77.4135 16.5879 77.5695 16.5129 77.7202 16.4424C78.597 16.0494 79.4521 15.9692 80.1518 16.2917C80.1518 16.2917 109.72 30.4597 110.097 30.648C110.263 30.729 110.419 30.8197 110.575 30.9435L110.58 30.933L114.872 33.4396Z" fill="#373B42"/>
<path d="M49.4306 71.5024C49.4051 71.5024 49.3811 71.4964 49.3578 71.4829L44.4361 68.6208C44.4024 68.6013 44.3776 68.569 44.3679 68.5308C44.3581 68.4933 44.3641 68.4528 44.3836 68.4198C44.3949 68.401 44.4076 68.3838 44.4204 68.3673C45.8199 66.0842 74.2265 19.5937 74.2265 19.5937C75.02 18.2834 76.0723 17.2026 77.1876 16.5531C77.3428 16.4586 77.5049 16.3806 77.6571 16.3101C78.6149 15.8811 79.4969 15.8301 80.211 16.1593C81.4208 16.7383 109.786 30.3311 110.16 30.5179C110.334 30.6019 110.481 30.6911 110.619 30.7946C110.63 30.7969 110.642 30.8014 110.652 30.8081L114.945 33.3147C115.013 33.3545 115.037 33.4407 115 33.5097C114.963 33.5787 114.876 33.6065 114.807 33.5727C112.606 32.5092 85.2841 19.4077 85.0081 19.2757C84.3624 18.9847 83.5598 19.0402 82.6905 19.4384C82.5503 19.5052 82.4025 19.5794 82.2555 19.6635C81.1897 20.2747 80.1749 21.3188 79.3987 22.6028C79.1144 23.0686 50.9764 69.1195 49.6091 71.3479C49.5723 71.4146 49.5461 71.4476 49.5461 71.4476C49.5183 71.4821 49.4748 71.5024 49.4306 71.5024ZM44.7189 68.4468L49.3833 71.1589C51.0364 68.461 78.8677 22.9126 79.1504 22.4498C79.9522 21.1253 81.0037 20.0452 82.1123 19.4084C82.2668 19.3207 82.4198 19.2434 82.5683 19.1722C83.5201 18.7379 84.4059 18.6817 85.1334 19.0094C85.3629 19.1197 103.863 27.9903 111.666 31.7367L110.55 31.0849C110.526 31.0819 110.504 31.0736 110.484 31.0586C110.352 30.9536 110.208 30.8651 110.033 30.7796C109.66 30.5929 80.3842 16.5651 80.0887 16.4233C79.4557 16.1316 78.6561 16.1833 77.7809 16.5756C77.6384 16.6416 77.4846 16.7158 77.3391 16.8043C76.2628 17.4314 75.2473 18.4754 74.4777 19.746C74.477 19.746 46.4335 65.6424 44.7189 68.4468Z" fill="#373B42"/>
<path d="M49.3272 118.23L44.5217 115.433C43.3764 114.763 42.7494 113.524 42.7277 111.629L42.6272 74.5367C42.6197 73.5571 42.8072 72.5198 43.1387 71.4893C43.1964 71.295 43.2684 71.1 43.3404 70.9058C43.6427 70.0845 44.0395 69.2632 44.5075 68.4922L44.515 68.4997V68.4922L49.4359 71.3543C48.2764 73.2564 47.5481 75.4389 47.5556 77.4055L47.6569 114.498C47.6629 116.32 48.2966 117.624 49.3272 118.23Z" fill="#373B42"/>
<path d="M49.3269 118.376C49.3014 118.376 49.2767 118.37 49.2534 118.356L44.448 115.559C43.2307 114.848 42.6037 113.526 42.5819 111.631L42.4807 74.5367C42.4739 73.5766 42.6487 72.5356 42.9989 71.4443C43.0567 71.25 43.1294 71.0528 43.2029 70.8548C43.5119 70.017 43.9087 69.1957 44.382 68.4164C44.4052 68.3774 44.4457 68.3519 44.4907 68.3467C44.505 68.3452 44.5192 68.3452 44.5335 68.3482C44.5515 68.3497 44.5702 68.3557 44.5875 68.3654L49.5084 71.2275C49.5422 71.2478 49.5669 71.28 49.5767 71.3183C49.5864 71.3565 49.5804 71.3971 49.5602 71.4308C48.3714 73.3794 47.6941 75.5567 47.7016 77.4055L47.8021 114.499C47.8089 116.222 48.3774 117.504 49.4019 118.105C49.4709 118.146 49.4942 118.236 49.4537 118.305C49.4259 118.35 49.3772 118.376 49.3269 118.376ZM44.5597 68.688C44.1277 69.4155 43.7632 70.1783 43.4767 70.956C43.4062 71.1473 43.3349 71.3393 43.2779 71.5306C42.9359 72.5956 42.7664 73.6051 42.7724 74.5352L42.8737 111.629C42.8939 113.412 43.4737 114.65 44.595 115.307L48.3001 117.463C47.7894 116.728 47.5141 115.715 47.5088 114.499L47.4083 77.4055C47.4016 75.517 48.0489 73.3921 49.2324 71.4053L44.5597 68.688Z" fill="#373B42"/>
<path d="M47.5528 77.4016L47.6548 114.5C47.6623 116.46 48.3996 117.809 49.5674 118.358C50.6099 118.859 52.0057 118.727 53.5268 117.84L111.205 84.5441C112.726 83.6658 114.113 82.192 115.14 80.491H115.148C116.308 78.5934 117.037 76.4063 117.029 74.4465L116.92 37.3479C116.912 35.3881 116.183 34.047 115.015 33.498C113.972 32.9887 112.585 33.1215 111.055 33.9997L53.385 67.2957C51.8565 68.1815 50.4682 69.6553 49.4339 71.3571C48.2736 73.2547 47.5446 75.4418 47.5528 77.4016Z" fill="#CE464A"/>
<path d="M50.9015 118.795C50.3989 118.795 49.9287 118.694 49.5034 118.489C48.2434 117.896 47.5151 116.443 47.5083 114.501L47.4063 77.4024C47.3981 75.5026 48.0918 73.2712 49.3099 71.2814C50.3952 69.4971 51.8165 68.0368 53.3128 67.1698L110.982 33.8738C112.505 33 113.961 32.82 115.079 33.3675C116.334 33.9563 117.058 35.4076 117.067 37.3479L117.176 74.4458C117.184 76.3456 116.491 78.5769 115.273 80.5675C115.265 80.5803 115.255 80.5915 115.245 80.6012C114.171 82.3698 112.763 83.8136 111.278 84.6709L53.5993 117.966C52.6565 118.516 51.7355 118.795 50.9015 118.795ZM113.671 33.3488C112.894 33.3488 112.026 33.6105 111.128 34.1265L53.4575 67.4225C52.0032 68.2648 50.6187 69.6898 49.5582 71.4329C48.3679 73.3785 47.6898 75.5536 47.6973 77.4009L47.7993 114.5C47.8061 116.324 48.4729 117.682 49.6279 118.225C50.6697 118.726 52.0257 118.544 53.4515 117.713L111.13 84.4166C112.583 83.5781 113.962 82.1568 115.014 80.4145C115.022 80.401 115.032 80.3897 115.043 80.38C116.22 78.4434 116.89 76.2826 116.883 74.4458L116.773 37.3479C116.766 35.5253 116.102 34.17 114.952 33.63C114.567 33.4418 114.136 33.3488 113.671 33.3488Z" fill="#373B42"/>
<path d="M49.5684 118.361C50.6109 118.863 52.0067 118.73 53.5278 117.844L111.206 84.5477C112.727 83.6694 114.114 82.1956 115.141 80.4945L89.9124 71.5332L87.78 74.7636L84.9029 79.1145C84.5264 79.6868 84.1109 80.1968 83.6639 80.628C83.2251 81.0593 82.7698 81.4118 82.3078 81.6788C81.383 82.2121 80.4575 82.3921 79.697 82.1258L74.6635 80.3385L49.5684 118.361Z" fill="#CE464A"/>
<path d="M50.9028 118.798C50.4002 118.798 49.93 118.697 49.5047 118.492C49.4665 118.474 49.4387 118.44 49.4267 118.399C49.4162 118.358 49.423 118.315 49.4455 118.28L74.5414 80.2562C74.5781 80.1999 74.6494 80.1767 74.7124 80.1992L79.7458 81.9865C80.4411 82.2302 81.3246 82.0757 82.2344 81.5507C82.6852 81.2912 83.1315 80.9447 83.5612 80.5232C83.9962 80.1032 84.4065 79.6021 84.78 79.0336L89.7895 71.4523C89.827 71.3953 89.8982 71.3728 89.9605 71.3953L115.189 80.3567C115.23 80.3709 115.263 80.4039 115.278 80.4452C115.293 80.4864 115.288 80.5322 115.265 80.5697C114.189 82.3532 112.772 83.8113 111.278 84.6738L53.6006 117.969C52.6578 118.519 51.7368 118.798 50.9028 118.798ZM49.7852 118.297C50.8038 118.711 52.0983 118.508 53.4536 117.717L111.132 84.4203C112.542 83.6065 113.883 82.2437 114.922 80.5712L89.971 71.7088L85.0245 79.1941C84.639 79.7806 84.2153 80.2974 83.7652 80.7324C83.319 81.1712 82.8525 81.532 82.3807 81.8042C81.3952 82.372 80.4246 82.534 79.6483 82.2625L74.7229 80.5134L49.7852 118.297Z" fill="#373B42"/>
<path d="M87.8059 88.3011C88.5154 87.8916 89.0929 88.2209 89.0951 89.0332C89.0974 89.8484 88.5236 90.8422 87.8141 91.2517C87.1091 91.659 86.5316 91.3297 86.5293 90.5145C86.5271 89.7022 87.1008 88.7084 87.8059 88.3011Z" fill="white"/>
<path d="M87.2436 91.5718C87.0966 91.5718 86.9578 91.5366 86.8355 91.4661C86.5468 91.2996 86.3863 90.9613 86.3848 90.5136C86.3825 89.654 86.9878 88.6047 87.7341 88.1735C88.1256 87.947 88.5014 87.9147 88.7924 88.0827C89.0811 88.2492 89.2409 88.586 89.2424 89.0323C89.2454 89.8925 88.6379 90.9448 87.8886 91.3776C87.6643 91.5066 87.4446 91.5718 87.2436 91.5718ZM87.8803 88.4262C87.2143 88.811 86.675 89.747 86.6773 90.5128C86.6788 90.8518 86.786 91.1001 86.9818 91.2126C87.1768 91.3243 87.4476 91.2943 87.7431 91.1241C88.4113 90.7378 88.9529 89.8003 88.9506 89.033C88.9491 88.6955 88.8419 88.4487 88.6476 88.3362C88.4489 88.223 88.1766 88.2545 87.8803 88.4262Z" fill="#373B42"/>
<path d="M82.2824 91.4945C82.9919 91.085 83.5695 91.4142 83.5717 92.2265C83.574 93.0418 83.0002 94.0356 82.2907 94.4451C81.5856 94.8524 81.0081 94.5231 81.0059 93.7078C81.0036 92.8948 81.5774 91.901 82.2824 91.4945Z" fill="white"/>
<path d="M81.7189 94.7652C81.5712 94.7652 81.4331 94.73 81.3109 94.6595C81.0214 94.4929 80.8609 94.1547 80.8594 93.7069C80.8571 92.8474 81.4624 91.7973 82.2094 91.3668C82.6009 91.1403 82.9767 91.1081 83.2677 91.2761C83.5565 91.4426 83.7162 91.7794 83.7177 92.2256C83.72 93.0859 83.1132 94.1382 82.3639 94.5709C82.1389 94.7 81.9199 94.7652 81.7189 94.7652ZM82.8582 91.4628C82.7074 91.4628 82.5364 91.5153 82.3557 91.6196C81.6897 92.0036 81.1496 92.9396 81.1519 93.7062C81.1534 94.0452 81.2606 94.2934 81.4564 94.4059C81.6522 94.5185 81.9229 94.487 82.2177 94.3174C82.886 93.9319 83.4275 92.9936 83.4252 92.2256C83.4237 91.8889 83.3165 91.6413 83.1215 91.5296C83.0442 91.4853 82.955 91.4628 82.8582 91.4628Z" fill="#373B42"/>
<path d="M76.7609 94.6839C77.4705 94.2744 78.048 94.6037 78.0502 95.416C78.0525 96.2313 77.4787 97.225 76.7692 97.6346C76.0642 98.0418 75.4866 97.7126 75.4844 96.8973C75.4821 96.085 76.0559 95.0912 76.7609 94.6839Z" fill="white"/>
<path d="M76.1974 97.9559C76.0504 97.9559 75.9124 97.9206 75.7894 97.8509C75.4999 97.6844 75.3394 97.3461 75.3379 96.8983C75.3356 96.0388 75.9409 94.9888 76.6879 94.5582C77.0795 94.3317 77.4552 94.2995 77.7462 94.4675C78.035 94.634 78.1948 94.9708 78.1963 95.417C78.1985 96.2773 77.5917 97.3296 76.8424 97.7616C76.6174 97.8899 76.3984 97.9559 76.1974 97.9559ZM77.3367 94.6535C77.186 94.6535 77.015 94.706 76.8342 94.8102C76.1794 95.1883 75.6282 96.1438 75.6304 96.8968C75.6319 97.2358 75.7399 97.4841 75.9357 97.5966C76.1307 97.7091 76.4014 97.6769 76.6962 97.5073C77.3645 97.1218 77.906 96.1835 77.9037 95.4163C77.9022 95.0795 77.795 94.832 77.6007 94.7195C77.5235 94.6752 77.4342 94.6535 77.3367 94.6535Z" fill="#373B42"/>
<path d="M115.018 33.5031L87.7795 74.7667L84.9054 79.1176C84.5311 79.6868 84.1126 80.1984 83.6664 80.6304C83.2268 81.0624 82.7656 81.4157 82.3118 81.6819C81.3825 82.2152 80.4607 82.3952 79.6972 82.1282L49.4411 71.3585H49.4336C49.4838 71.2723 79.272 22.5235 79.272 22.5235C80.0932 21.1764 81.138 20.1391 82.1821 19.5339C83.2118 18.9361 84.2499 18.7703 85.0712 19.1446C85.0712 19.1461 114.643 33.3156 115.018 33.5031Z" fill="#CE464A"/>
<path d="M80.4489 82.3984C80.1684 82.3984 79.9006 82.3549 79.6494 82.2664L49.3992 71.499C49.3625 71.4885 49.3295 71.4645 49.3107 71.4315C49.2845 71.3857 49.2807 71.3302 49.307 71.2852C49.3572 71.1989 77.9303 24.4385 79.1468 22.4479C79.9516 21.1278 81.0031 20.0478 82.1087 19.408C83.212 18.7675 84.286 18.6258 85.1313 19.0128C86.3411 19.5925 114.711 33.1868 115.082 33.3728C115.12 33.3916 115.147 33.4253 115.158 33.4658C115.168 33.5063 115.162 33.5498 115.139 33.5843L85.0278 79.1987C84.6445 79.7808 84.2208 80.2975 83.7677 80.7363C83.3305 81.1668 82.8647 81.5276 82.3855 81.8088C81.7029 82.1996 81.0466 82.3984 80.4489 82.3984ZM49.6535 71.2792L79.7461 81.9911C80.4496 82.2364 81.3129 82.0871 82.2392 81.5553C82.696 81.2868 83.143 80.9403 83.5645 80.5263C84.0025 80.1018 84.4128 79.6008 84.784 79.0375L114.804 33.5618C112.519 32.46 85.2941 19.414 85.0083 19.2775C84.2553 18.9333 83.275 19.0698 82.2564 19.6608C81.1922 20.2773 80.1774 21.3206 79.3973 22.6002C79.1086 23.0712 51.4768 68.2911 49.6535 71.2792Z" fill="#373B42"/>
<path d="M60.036 75.1288L56.3249 73.8125L56.2461 44.3477L59.952 46.5062L60.036 75.1288Z" fill="#BEC4CD"/>
<path d="M60.0377 75.2742C60.0212 75.2742 60.0047 75.2712 59.989 75.2659L56.2771 73.9496C56.2193 73.9286 56.1803 73.8739 56.1803 73.8124L56.1016 44.3475C56.1016 44.295 56.1293 44.247 56.1743 44.2208C56.2208 44.1945 56.2763 44.1945 56.3213 44.2215L60.0272 46.3801C60.0715 46.4064 60.1 46.4544 60.1 46.5061L60.1847 75.1287C60.1847 75.1767 60.1622 75.2209 60.1232 75.2487C60.097 75.2652 60.067 75.2742 60.0377 75.2742ZM56.4721 73.7081L59.8907 74.9202L59.8067 46.5894L56.3941 44.601L56.4721 73.7081Z" fill="#373B42"/>
<path d="M59.9565 46.5064L56.2461 44.35L106.808 15.1582L110.518 17.3145L59.9565 46.5064Z" fill="#DBDEE4"/>
<path d="M59.9563 46.6518C59.9308 46.6518 59.9053 46.6451 59.8827 46.6323L56.1724 44.476C56.1274 44.4497 56.0996 44.4017 56.0996 44.3492C56.0996 44.2975 56.1274 44.2487 56.1724 44.2232L106.734 15.0314C106.78 15.0052 106.835 15.0052 106.881 15.0314L110.591 17.1877C110.636 17.214 110.664 17.262 110.664 17.3145C110.664 17.3662 110.636 17.415 110.591 17.4405L60.0298 46.6323C60.0065 46.6451 59.981 46.6518 59.9563 46.6518ZM56.5376 44.3492L59.9563 46.3361L110.226 17.313L106.807 15.3262L56.5376 44.3492Z" fill="#373B42"/>
<path d="M110.571 40.2406L87.7819 74.7643L84.9078 79.1183C84.5342 79.6868 84.1127 80.1975 83.671 80.6288C83.2284 81.0608 82.7657 81.4133 82.3127 81.6818C81.3864 82.2136 80.4646 82.3929 79.7018 82.1296L60.0233 75.1229L59.9551 46.5055L110.52 17.3145L110.571 40.2406Z" fill="white"/>
<path d="M80.4494 82.3966C80.1703 82.3966 79.9041 82.3538 79.6536 82.2676L59.9736 75.2601C59.9151 75.2398 59.8768 75.1843 59.8768 75.1228L59.8086 46.5055C59.8086 46.453 59.8363 46.405 59.8813 46.3787L110.446 17.1877C110.492 17.1614 110.546 17.1614 110.592 17.1877C110.637 17.2139 110.665 17.2619 110.665 17.3144L110.717 40.2405C110.717 40.269 110.709 40.2975 110.693 40.3215L85.0298 79.1992C84.6533 79.7707 84.231 80.2875 83.7727 80.7338C83.3355 81.1605 82.869 81.522 82.3867 81.8078C81.7049 82.1986 81.0486 82.3966 80.4494 82.3966ZM60.1686 75.0186L79.7496 81.9908C80.4449 82.2301 81.3299 82.0756 82.2389 81.5543C82.6994 81.2813 83.1472 80.934 83.568 80.5238C84.0112 80.0917 84.4208 79.5915 84.7853 79.0372L110.425 40.1963L110.373 17.5664L60.1004 46.5887L60.1686 75.0186Z" fill="#373B42"/>
<path d="M94.0636 42.29C94.5279 43.1848 94.7799 44.3054 94.7837 45.6907C94.7859 46.5059 94.6997 47.331 94.5421 48.2183C94.3846 49.1055 94.1386 49.9613 93.8034 50.8081C93.4509 51.6654 93.0091 52.4507 92.4421 53.1654C91.8758 53.9005 91.2023 54.4937 90.405 54.9543C89.5537 55.4455 88.9147 55.5903 88.4879 55.408C88.0784 55.195 87.8294 54.8905 87.7394 54.4727C87.2451 55.4725 86.6616 56.3201 85.9708 57.0453C85.2981 57.7609 84.5893 58.3331 83.8437 58.7629C82.5672 59.5002 81.5727 59.6254 80.8609 59.1177C80.1664 58.6001 79.8266 57.6536 79.8228 56.2878C79.8191 54.8815 80.0816 53.5262 80.6284 52.2309C81.1579 50.9251 81.8652 49.7821 82.715 48.7815C83.5827 47.7705 84.4685 46.9935 85.4083 46.4512C86.1351 46.0312 86.7389 45.8467 87.2361 45.8452C87.7334 45.8639 88.1422 45.9344 88.4264 46.0964L88.4962 45.6074C88.5307 45.3224 88.6364 45.0569 88.8134 44.8124C88.9724 44.5574 89.1674 44.3631 89.3805 44.2401C89.6107 44.1074 89.8065 44.0969 89.9842 44.1771C90.144 44.2889 90.234 44.4824 90.2347 44.7674V44.8491L90.1995 45.0734L89.4337 50.6993C89.4165 50.9139 89.382 51.2191 89.3295 51.5559C89.295 51.9024 89.2777 52.2182 89.2792 52.5444C89.2807 53.0132 89.37 53.3694 89.5485 53.6132C89.7442 53.8675 90.0465 53.8765 90.4717 53.6312C91.4648 53.0574 92.2088 52.1387 92.7376 50.8329C93.2491 49.5376 93.5116 48.0593 93.5064 46.4294C93.5026 45.1251 93.2686 44.1171 92.8223 43.3746C92.3581 42.6426 91.7708 42.1445 91.0238 41.9023C90.2775 41.6803 89.46 41.642 88.5374 41.828C87.6321 42.0245 86.6916 42.4033 85.7518 42.9463C84.5458 43.6423 83.4297 44.5529 82.3669 45.6967C81.3049 46.8405 80.3846 48.1073 79.5716 49.5151C78.7586 50.9236 78.1233 52.3719 77.6658 53.8607C77.2083 55.3495 76.981 56.7866 76.9847 58.1524C76.9877 59.1304 77.1325 60.0064 77.4543 60.7595C77.7588 61.5432 78.2215 62.1328 78.8096 62.549C79.4148 62.9751 80.1611 63.1566 81.0311 63.1033C81.9012 63.0703 82.913 62.711 84.0658 62.045C85.1473 61.4202 86.0511 60.776 86.7959 60.1009C87.5579 59.4162 88.2839 58.6909 89.0099 57.9244L89.2762 57.7301L89.7022 57.6476L89.8635 58.0444C89.8642 58.3294 89.7585 58.5949 89.5282 58.8499C88.8734 59.6157 88.0942 60.413 87.1904 61.22C86.2866 62.0278 85.2411 62.774 84.0703 63.4498C82.811 64.1766 81.6754 64.5876 80.6456 64.6716C79.6158 64.7564 78.7451 64.5651 78.0153 64.1083C77.2855 63.6516 76.7327 62.9713 76.3397 62.0548C75.9467 61.1592 75.7479 60.1099 75.7442 58.8672C75.7397 57.3183 76.0015 55.6773 76.5295 53.9845C77.0575 52.2714 77.7813 50.6288 78.7001 49.0163C79.6188 47.4247 80.6809 45.9749 81.8847 44.6466C83.0885 43.3393 84.3643 42.296 85.7481 41.498C86.9541 40.802 88.1069 40.3602 89.1907 40.2042C90.2917 40.0385 91.251 40.1172 92.0866 40.4712C92.9228 40.805 93.5814 41.4253 94.0636 42.29ZM87.8001 50.7841L88.1834 48.0322C87.9164 47.8597 87.5609 47.7795 87.1169 47.7907C86.6901 47.772 86.1583 47.9565 85.5021 48.3353C84.8458 48.714 84.2083 49.2458 83.624 49.9298C83.0397 50.5936 82.5627 51.3594 82.1914 52.2264C81.8209 53.0934 81.6282 54.0212 81.6312 54.979C81.6342 56.0793 81.9207 56.7311 82.454 56.9328C82.9872 57.1353 83.6262 57.0108 84.371 56.5811C84.8675 56.2946 85.3641 55.906 85.8246 55.4358C86.3023 54.9558 86.7096 54.3332 87.0629 53.578C87.4146 52.8234 87.6606 51.8851 87.8001 50.7841Z" fill="#373B42"/>
<path d="M5.70621 47.0739L3.46362 45.7704L3.45312 42.0938L5.69571 43.3965L5.70621 47.0739Z" fill="white"/>
<path d="M5.70598 47.2194C5.68048 47.2194 5.65498 47.2126 5.63248 47.1999L3.38989 45.8971C3.34564 45.8708 3.31714 45.8228 3.31714 45.7711L3.30664 42.0937C3.30664 42.0412 3.33439 41.9932 3.37939 41.967C3.42515 41.9407 3.48065 41.9407 3.5264 41.967L5.76898 43.2705C5.81323 43.2968 5.84173 43.3448 5.84173 43.3965L5.85224 47.0731C5.85224 47.1256 5.82448 47.1736 5.77948 47.1999C5.75623 47.2126 5.73073 47.2194 5.70598 47.2194ZM3.6089 45.6856L5.55897 46.8181L5.54922 43.4798L3.59915 42.3465L3.6089 45.6856Z" fill="#373B42"/>
<path d="M34.8583 1.58836C34.4878 1.37085 33.9711 1.4001 33.407 1.72937L4.67647 18.3162C3.54243 18.9688 2.6319 20.5551 2.6379 21.8474L2.6964 42.7701C2.6964 43.4167 2.92515 43.8689 3.29567 44.0864L1.05234 42.7814C0.681822 42.5639 0.453063 42.1116 0.453063 41.4651L0.394561 20.5483C0.38856 19.25 1.30509 17.6637 2.43314 17.0112L31.1644 0.425068C31.7285 0.0958056 32.2452 0.0665553 32.6158 0.284063L34.8583 1.58836Z" fill="#F0F2F5"/>
<path d="M3.29469 44.2329C3.26919 44.2329 3.24444 44.2269 3.22119 44.2134L0.977852 42.9083C0.544336 42.6533 0.306578 42.141 0.306578 41.4653L0.248075 20.5492C0.242075 19.2059 1.18861 17.5619 2.36015 16.8854L31.0907 0.299244C31.6765 -0.0427686 32.2593 -0.0945202 32.689 0.158989L34.9249 1.45879C34.9271 1.46029 34.9286 1.46104 34.9309 1.46254H34.9316C34.9316 1.46254 34.9316 1.46254 34.9324 1.46254C35.0014 1.50304 35.0246 1.59304 34.9841 1.6628C34.9421 1.73255 34.8536 1.75505 34.7839 1.7153L34.7771 1.71155C34.4426 1.51879 33.9708 1.57129 33.4803 1.8563L4.74824 18.4432C3.6577 19.0702 2.77642 20.5972 2.78242 21.8475L2.84092 42.7703C2.84092 43.3381 3.02843 43.7611 3.36819 43.9614C3.4372 44.0019 3.46044 44.0919 3.41994 44.1609C3.39294 44.2074 3.34494 44.2329 3.29469 44.2329ZM32.0763 0.292494C31.8197 0.292494 31.531 0.379498 31.2362 0.552004L2.50491 17.1389C1.41512 17.7689 0.533086 19.2982 0.539086 20.5492L0.597588 41.466C0.597588 42.0338 0.785097 42.4568 1.12486 42.6571L2.68492 43.5646C2.59491 43.3381 2.54841 43.0703 2.54841 42.7718L2.48991 21.8498C2.48391 20.5065 3.43119 18.8654 4.60199 18.1919L33.3326 1.60579C33.5943 1.45279 33.8561 1.35828 34.1043 1.32303L32.5398 0.413249C32.4055 0.332246 32.248 0.292494 32.0763 0.292494Z" fill="#373B42"/>
<path d="M33.4059 1.73072C34.5347 1.07894 35.4534 1.60621 35.4572 2.90376L35.5164 23.8228C35.5202 25.1203 34.6082 26.7051 33.4786 27.3569L9.39148 41.2632L5.7066 47.0737L5.69609 43.397L4.74731 43.9445C3.61852 44.5963 2.69973 44.069 2.69598 42.7715L2.63673 21.8525C2.63298 20.5549 3.54501 18.9701 4.67456 18.3183L33.4059 1.73072Z" fill="white"/>
<path d="M5.70636 47.2192C5.69286 47.2192 5.67936 47.217 5.66586 47.2132C5.60361 47.1952 5.56011 47.1382 5.56011 47.073L5.55036 43.6483L4.81983 44.0698C4.22656 44.4118 3.65879 44.4644 3.22452 44.2138C2.791 43.9648 2.551 43.4518 2.54875 42.7708L2.49025 21.8518C2.4865 20.5077 3.43303 18.8652 4.60082 18.1909L33.3314 1.60326C33.9239 1.2605 34.4909 1.20875 34.9267 1.45926C35.3602 1.70902 35.6002 2.22129 35.6025 2.90231L35.6617 23.8213C35.6655 25.1654 34.7182 26.8079 33.5504 27.4822L9.49475 41.3712L5.82937 47.151C5.80237 47.1937 5.75511 47.2192 5.70636 47.2192ZM5.69586 43.2501C5.72136 43.2501 5.74612 43.2568 5.76862 43.2696C5.81362 43.2958 5.84137 43.3438 5.84137 43.3963L5.85037 46.5719L9.26674 41.1852C9.2795 41.165 9.29675 41.1485 9.317 41.1372L33.4034 27.231C34.4902 26.6032 35.3722 25.0754 35.3685 23.8236L35.3092 2.90456C35.3077 2.33229 35.1195 1.91003 34.7804 1.71427C34.4392 1.51926 33.9772 1.56951 33.4769 1.85752L4.74708 18.4444C3.65954 19.0722 2.77826 20.6007 2.78276 21.851L2.84126 42.77C2.84276 43.3423 3.03101 43.7653 3.37003 43.9603C3.71129 44.1561 4.17331 44.1051 4.67358 43.8171L5.62311 43.2688C5.64561 43.2561 5.67036 43.2501 5.69586 43.2501Z" fill="#373B42"/>
<path d="M21.2904 18.3696C21.7554 18.1011 22.1319 18.3156 22.1334 18.8504C22.1349 19.3852 21.7607 20.0369 21.2956 20.3054L9.16319 27.31C8.69818 27.5785 8.31791 27.3617 8.31641 26.8277C8.31491 26.2937 8.69292 25.6434 9.15794 25.3749L21.2904 18.3696Z" fill="#DBDEE4"/>
<path d="M14.1588 27.5767C14.6238 27.3081 15.0004 27.5227 15.0019 28.0574C15.0034 28.5922 14.6298 29.244 14.1641 29.5125L9.16515 32.3978C8.70013 32.6663 8.31986 32.4496 8.31836 31.9156C8.31686 31.3815 8.69488 30.7313 9.1599 30.4628L14.1588 27.5767Z" fill="white"/>
<path d="M8.7869 32.6611C8.68115 32.6611 8.58214 32.6356 8.49364 32.5846C8.28738 32.4661 8.17338 32.2291 8.17188 31.9171C8.17038 31.3283 8.57164 30.6345 9.08616 30.3368L14.0858 27.4506C14.3574 27.2931 14.6214 27.2714 14.8284 27.3899C15.0331 27.5076 15.1471 27.7447 15.1479 28.0567C15.1494 28.6484 14.7496 29.3437 14.2374 29.6392L9.23842 32.5253C9.08166 32.6153 8.92866 32.6611 8.7869 32.6611ZM14.5359 27.6074C14.4459 27.6074 14.3424 27.6396 14.2314 27.7042L9.23167 30.5903C8.8139 30.8318 8.46214 31.4393 8.46364 31.9163C8.46439 32.1196 8.52664 32.2673 8.6384 32.3318C8.74865 32.3963 8.91441 32.3746 9.09141 32.2733L14.0903 29.3872C14.5059 29.1472 14.8561 28.5397 14.8554 28.0589C14.8546 27.8557 14.7931 27.7087 14.6821 27.6449C14.6401 27.6194 14.5906 27.6074 14.5359 27.6074Z" fill="#373B42"/>
<path d="M51.3643 10.2114C50.9938 9.9939 50.477 10.0232 49.907 10.3524L21.1824 26.9385C20.0544 27.5903 19.1379 29.1714 19.1379 30.4697L19.1964 51.3924C19.2024 52.039 19.4251 52.4912 19.7956 52.7027L17.5523 51.3984C17.1878 51.1869 16.959 50.7347 16.953 50.0881L16.8945 29.1654C16.8945 27.8671 17.8111 26.286 18.9391 25.6342L47.6644 9.04812C48.2344 8.71885 48.7512 8.6896 49.1217 8.90711L51.3643 10.2114Z" fill="#F0F2F5"/>
<path d="M19.7954 52.8474C19.7707 52.8474 19.7459 52.8414 19.7227 52.8279C19.7174 52.8249 19.7129 52.8219 19.7077 52.8197L17.4778 51.5236C17.0503 51.2754 16.8118 50.7654 16.8065 50.0881L16.748 29.1646C16.748 27.8228 17.6976 26.1817 18.8654 25.5067L47.5907 8.92055C48.1907 8.57404 48.76 8.52528 49.195 8.77954L51.4293 10.0793C51.4323 10.0808 51.4353 10.0823 51.4376 10.0838H51.4383C51.4383 10.0838 51.4383 10.0838 51.4391 10.0846C51.5081 10.1251 51.5313 10.2151 51.4908 10.2841C51.4496 10.3539 51.3603 10.3764 51.2913 10.3366L51.2831 10.3321C50.9456 10.1371 50.4828 10.1888 49.981 10.4784L21.255 27.0645C20.1682 27.693 19.2839 29.2201 19.2839 30.4689L19.3424 51.3909C19.3476 51.9564 19.5299 52.3742 19.8562 52.5677L19.8689 52.5752C19.9387 52.6157 19.9619 52.7049 19.9222 52.7747C19.8952 52.8212 19.8457 52.8474 19.7954 52.8474ZM48.5807 8.91155C48.3257 8.91155 48.0385 8.9993 47.7369 9.17331L19.0124 25.7594C17.9256 26.3879 17.0413 27.915 17.0413 29.1638L17.0998 50.0858C17.1051 50.6551 17.2918 51.0759 17.6263 51.2701L19.1879 52.1784C19.1009 51.9541 19.0536 51.6901 19.0506 51.3924L18.9921 30.4689C18.9921 29.1271 19.9417 27.486 21.1095 26.811L49.8348 10.2248C50.1018 10.0703 50.3628 9.97509 50.6081 9.93909L49.048 9.03155C48.91 8.9513 48.7525 8.91155 48.5807 8.91155Z" fill="#373B42"/>
<path d="M49.9071 10.3511C51.0359 9.69932 51.9584 10.2206 51.9622 11.5181L52.0214 32.4417C52.0252 33.7392 51.1094 35.3218 49.9798 35.9735L49.0348 36.5196L49.0453 40.1962L45.3364 38.6549L21.253 52.5597C20.1242 53.2114 19.2017 52.6902 19.1979 51.3926L19.1387 30.4691C19.1349 29.1715 20.0515 27.589 21.1803 26.9372L49.9071 10.3511Z" fill="white"/>
<path d="M20.3332 52.9877C20.112 52.9877 19.9072 52.9352 19.725 52.8309C19.293 52.5819 19.0537 52.0719 19.0515 51.3931L18.9922 30.4696C18.9884 29.1278 19.9372 27.4867 21.1073 26.811L49.8341 10.2256C50.4296 9.88134 50.9989 9.82959 51.4347 10.0808C51.8667 10.3299 52.1059 10.8399 52.1082 11.5186L52.1674 32.4422C52.1712 33.784 51.2224 35.425 50.0524 36.1008L49.1808 36.6041L49.1913 40.196C49.1913 40.2447 49.1673 40.2905 49.1261 40.3175C49.0863 40.3452 49.0331 40.3497 48.9888 40.331L45.3467 38.8174L21.3255 52.6854C20.9783 52.8864 20.6408 52.9877 20.3332 52.9877ZM49.9803 10.4784L21.2528 27.0645C20.1645 27.693 19.281 29.2208 19.284 30.4696L19.3432 51.3931C19.3447 51.9624 19.5315 52.3832 19.8697 52.5782C20.2125 52.7754 20.6775 52.7229 21.1785 52.4342L45.2619 38.5294C45.3017 38.5069 45.3504 38.5039 45.3909 38.5212L48.8973 39.9785L48.8876 36.5216C48.8876 36.4691 48.9153 36.4211 48.9603 36.3948L49.9053 35.8488C50.9936 35.2203 51.8772 33.6925 51.8742 32.4437L51.8149 11.5201C51.8134 10.9501 51.6259 10.5301 51.2876 10.3351C50.9479 10.1371 50.4829 10.1888 49.9803 10.4784Z" fill="#373B42"/>
<path d="M45.558 22.4673C46.0231 22.1988 46.3996 22.4133 46.4011 22.948C46.4026 23.4828 46.0283 24.1346 45.5633 24.4031L25.6065 35.925C25.1415 36.1935 24.7613 35.9768 24.7598 35.4428C24.7583 34.9087 25.1363 34.2585 25.6013 33.99L45.558 22.4673Z" fill="#DBDEE4"/>
<path d="M38.9458 31.3755C39.4108 31.107 39.7873 31.3215 39.7888 31.8562C39.7903 32.391 39.4161 33.0428 38.951 33.3113L25.6065 41.0156C25.1415 41.2841 24.7613 41.0673 24.7598 40.5333C24.7583 39.9993 25.1363 39.349 25.6013 39.0805L38.9458 31.3755Z" fill="white"/>
<path d="M25.2283 41.2779C25.1226 41.2779 25.0235 41.2524 24.935 41.2014C24.7288 41.0829 24.6148 40.8459 24.6133 40.5338C24.6118 39.9451 25.0138 39.2505 25.5276 38.9535L38.8728 31.2493C39.1458 31.091 39.4098 31.0707 39.6153 31.1892C39.8201 31.307 39.9341 31.544 39.9349 31.856C39.9364 32.4478 39.5366 33.1423 39.0243 33.4386L25.6791 41.1429C25.5231 41.2329 25.3701 41.2779 25.2283 41.2779ZM39.3228 31.406C39.2336 31.406 39.1301 31.4383 39.0191 31.502L25.6738 39.207C25.2561 39.4486 24.9043 40.0553 24.9058 40.5331C24.9065 40.7364 24.9688 40.8834 25.0813 40.9479C25.1923 41.0124 25.3581 40.9906 25.5336 40.8894L38.8781 33.1843C39.2943 32.9443 39.6446 32.336 39.6431 31.8568C39.6423 31.6535 39.5808 31.5058 39.4698 31.4428C39.4271 31.418 39.3776 31.406 39.3228 31.406Z" fill="#373B42"/>
<g opacity="0.1">
<path d="M26.9822 70.8091C31.1336 73.2062 31.1554 77.0951 27.031 79.4922C22.9021 81.8915 16.1833 81.8945 12.0319 79.4974C7.876 77.0981 7.8535 73.2032 11.9832 70.8039C16.1076 68.4068 22.8263 68.4098 26.9822 70.8091Z" fill="black"/>
</g>
<path d="M31.8496 69.0354L31.8323 73.2715C31.8278 74.8331 30.8026 76.3916 28.7535 77.5827C24.6246 79.982 17.9058 79.985 13.7544 77.5879C11.6626 76.3804 10.6186 74.7941 10.6231 73.2108L10.6403 68.9746C10.6358 70.5579 11.6806 72.1442 13.7717 73.3518C17.9231 75.7489 24.6418 75.7459 28.7707 73.3465C30.8191 72.1562 31.8451 70.5969 31.8496 69.0354Z" fill="#CE464A"/>
<path d="M21.2552 79.527C18.5146 79.527 15.7725 78.9232 13.6807 77.7157C11.6091 76.5201 10.4713 74.9203 10.4766 73.2117L10.4931 68.9756C10.4938 68.8953 10.5591 68.8301 10.6393 68.8301H10.6401C10.7203 68.8301 10.7856 68.8961 10.7856 68.9763V68.9771C10.7811 70.5761 11.8671 72.0852 13.8442 73.2267C17.9491 75.5968 24.6124 75.5946 28.697 73.2215C30.6313 72.098 31.6986 70.6106 31.7031 69.0363C31.7039 68.9561 31.7691 68.8908 31.8494 68.8908H31.8501C31.9304 68.8908 31.9956 68.9568 31.9956 69.0371V69.0386C31.9956 69.0401 31.9956 69.0423 31.9956 69.0446L31.9791 73.274C31.9739 74.9571 30.8548 76.5329 28.8275 77.7112C26.7432 78.921 23.9996 79.527 21.2552 79.527ZM10.7796 70.4456L10.7691 73.2117C10.7646 74.8108 11.8506 76.3199 13.827 77.4622C17.9334 79.8322 24.5959 79.83 28.6798 77.4569C30.6141 76.3326 31.6821 74.8468 31.6866 73.2717L31.6971 70.5109C31.2389 71.6269 30.2646 72.6477 28.844 73.4743C24.6784 75.8946 17.8839 75.8976 13.698 73.4795C12.2354 72.635 11.2379 71.5894 10.7796 70.4456Z" fill="#373B42"/>
<path d="M28.7029 64.6649C32.8543 67.0619 32.8761 70.9508 28.7517 73.3479C24.6228 75.7473 17.904 75.7503 13.7526 73.3532C9.59671 70.9538 9.57421 67.0589 13.7039 64.6596C17.8283 62.2625 24.5463 62.2648 28.7029 64.6649Z" fill="white"/>
<path d="M21.2533 75.2918C18.5134 75.2918 15.7713 74.688 13.6795 73.4805C11.6154 72.2887 10.4776 70.6949 10.4746 68.9923C10.4724 67.301 11.5929 65.7177 13.63 64.5342C17.7896 62.1168 24.5834 62.1191 28.776 64.5394C30.8379 65.7297 31.9749 67.3213 31.9779 69.0223C31.9802 70.7114 30.8611 72.2924 28.8263 73.4752C26.742 74.6858 23.9984 75.2911 21.2533 75.2918ZM21.1843 63.0101C18.4969 63.0101 15.8148 63.6019 13.777 64.7862C11.8337 65.915 10.7649 67.409 10.7664 68.9908C10.7686 70.5846 11.8547 72.0892 13.825 73.227C17.9299 75.5971 24.5939 75.5956 28.6778 73.2217C30.6189 72.0937 31.6869 70.6026 31.6846 69.0216C31.6824 67.43 30.5971 65.9277 28.629 64.7914C26.5725 63.6041 23.8769 63.0101 21.1843 63.0101Z" fill="#373B42"/>
<path d="M17.9704 68.5817C18.9499 69.1473 19.2469 69.904 18.6304 70.2626C18.0049 70.6263 16.7021 70.4538 15.7226 69.8883C14.743 69.3228 14.446 68.5712 15.067 68.2105C15.6881 67.849 16.9909 68.0162 17.9704 68.5817Z" fill="#373B42"/>
<path d="M22.7354 65.8198C23.7149 66.3853 24.0074 67.1391 23.3909 67.4976C22.7654 67.8613 21.4626 67.6888 20.4831 67.1233C19.5035 66.5578 19.2065 65.8063 19.832 65.4425C20.4478 65.084 21.7506 65.2513 22.7354 65.8198Z" fill="#373B42"/>
<path d="M26.0847 68.6191C27.6147 69.5027 27.623 70.9405 26.1027 71.824C24.5824 72.7075 22.1043 72.7045 20.5742 71.821L26.0847 68.6191Z" fill="#373B42"/>
<defs>
<linearGradient id="paint0_linear_423_998" x1="143.093" y1="125.488" x2="143.093" y2="113.668" gradientUnits="userSpaceOnUse">
<stop offset="0.033" stop-color="#CE464A" stop-opacity="0.9"/>
<stop offset="0.154" stop-color="#CE464A" stop-opacity="0.788"/>
<stop offset="0.403" stop-color="#CE464A" stop-opacity="0.556"/>
<stop offset="0.756" stop-color="#CE464A" stop-opacity="0.228"/>
<stop offset="1" stop-color="#CE464A" stop-opacity="0"/>
</linearGradient>
</defs>
</svg>
