<svg width="58" height="58" viewBox="0 0 58 58" fill="none" xmlns="http://www.w3.org/2000/svg">
<g clip-path="url(#clip0_301_6149)">
<path d="M57.0938 46.2187H0.90625C0.665901 46.2187 0.4354 46.3142 0.265448 46.4841C0.0954955 46.6541 1.20165e-05 46.8846 0 47.1249L0 48.9374C0.000786802 49.6583 0.287478 50.3493 0.797172 50.859C1.30687 51.3687 1.99793 51.6554 2.71875 51.6562H55.2812C56.0021 51.6554 56.6931 51.3687 57.2028 50.859C57.7125 50.3493 57.9992 49.6583 58 48.9374V47.1249C58 46.8846 57.9045 46.6541 57.7346 46.4841C57.5646 46.3142 57.3341 46.2187 57.0938 46.2187ZM34.6933 23.0883C34.6497 23.2416 34.6474 23.4036 34.6866 23.558L34.9588 24.6344L33.937 25.311C33.8106 25.3942 33.7071 25.508 33.6362 25.6417C33.5653 25.7755 33.5292 25.9249 33.5312 26.0763C33.583 28.8171 34.0996 31.5292 35.0591 34.097C34.7855 35.0673 34.5797 36.0554 34.4433 37.0542C34.4299 37.1724 34.4399 37.2922 34.4728 37.4066C34.5056 37.5209 34.5607 37.6277 34.6349 37.7208C34.709 37.8139 34.8008 37.8915 34.9049 37.9491C35.009 38.0067 35.1235 38.0433 35.2418 38.0567C35.36 38.0701 35.4797 38.0601 35.5941 38.0272C35.7085 37.9943 35.8153 37.9392 35.9084 37.8651C36.0015 37.7909 36.079 37.6992 36.1367 37.595C36.1943 37.4909 36.2309 37.3764 36.2443 37.2582C36.3953 36.2175 36.6221 35.1892 36.9227 34.1815C42.6949 32.5906 44.5185 28.1999 44.597 28.0036C44.6509 27.8691 44.6718 27.7236 44.6578 27.5793C44.6437 27.435 44.5953 27.2962 44.5164 27.1746L44.143 26.5969L45.1789 25.1479C45.2757 25.0126 45.3334 24.8532 45.3457 24.6873C45.7714 18.8816 50.4832 13.3337 50.531 13.2784C50.6533 13.136 50.7284 12.9592 50.7459 12.7723C50.7635 12.5854 50.7225 12.3977 50.6288 12.235C50.535 12.0724 50.3931 11.9429 50.2226 11.8644C50.0521 11.7858 49.8614 11.7622 49.6769 11.7967C37.3779 14.099 34.7968 22.7223 34.6933 23.0883ZM47.618 14.1464C46.0926 16.3883 43.9359 20.2049 43.5593 24.297L42.3096 26.0445C42.2039 26.1924 42.1451 26.3687 42.1409 26.5505C42.1367 26.7323 42.1874 26.9111 42.2862 27.0638L42.7167 27.7291C41.567 29.7113 39.7662 31.2342 37.6205 32.0388C38.4097 29.8782 39.4228 27.806 40.6432 25.8562C40.7699 25.6524 40.8107 25.4068 40.7566 25.1731C40.7025 24.9393 40.558 24.7366 40.3547 24.6092C40.1514 24.4818 39.9059 24.4403 39.672 24.4936C39.438 24.5469 39.2348 24.6908 39.1068 24.8937C37.8905 26.8353 36.8682 28.8919 36.0548 31.0337C35.7014 29.5583 35.4686 28.0566 35.3588 26.5434L36.4956 25.7907C36.6522 25.687 36.7727 25.5371 36.8404 25.3619C36.9081 25.1867 36.9197 24.9948 36.8735 24.8127L36.5089 23.3706C36.9337 22.2028 39.3847 16.547 47.618 14.1464ZM4.07812 17.2187C4.0784 16.9784 4.17397 16.7481 4.34386 16.5782C4.51376 16.4083 4.74411 16.3127 4.98438 16.3124H10.875V14.4999H4.98438C4.26356 14.5007 3.57249 14.7874 3.0628 15.2971C2.5531 15.8068 2.26641 16.4979 2.26562 17.2187V44.4062H4.07812V17.2187ZM53.0156 16.3124C53.2559 16.3127 53.4862 16.4083 53.6561 16.5782C53.826 16.7481 53.9216 16.9784 53.9219 17.2187V44.4062H55.7344V17.2187C55.7336 16.4979 55.4469 15.8068 54.9372 15.2971C54.4275 14.7874 53.7364 14.5007 53.0156 14.4999H51.8718C51.7422 14.656 51.2065 15.3151 50.5367 16.3124H53.0156Z" fill="#CE464A"/>
<path d="M13.5938 41.6875H44.4062C44.6466 41.6875 44.8771 41.592 45.0471 41.4221C45.217 41.2521 45.3125 41.0216 45.3125 40.7812V30.4018C43.6323 32.8336 41.2147 34.6606 38.4165 35.613C38.258 36.2272 38.1335 36.8496 38.0435 37.4775C37.9656 38.139 37.6473 38.7487 37.1491 39.1908C36.6509 39.6329 36.0076 39.8764 35.3415 39.875C35.2395 39.875 35.1376 39.8692 35.0362 39.8575C34.6137 39.8091 34.2084 39.6619 33.8532 39.428C33.498 39.194 33.2028 38.8798 32.9914 38.5108L32.9938 38.5156H18.125C17.8846 38.5156 17.6541 38.4201 17.4842 38.2502C17.3142 38.0802 17.2188 37.8497 17.2188 37.6094C17.2188 37.369 17.3142 37.1385 17.4842 36.9686C17.6541 36.7986 17.8846 36.7031 18.125 36.7031H32.661C32.6974 36.4294 32.7937 35.7967 32.997 34.8906H18.125C17.8846 34.8906 17.6541 34.7951 17.4842 34.6252C17.3142 34.4552 17.2188 34.2247 17.2188 33.9844C17.2188 33.744 17.3142 33.5135 17.4842 33.3436C17.6541 33.1736 17.8846 33.0781 18.125 33.0781H32.7963C32.6403 32.5414 32.4844 31.9303 32.3415 31.2656H18.125C17.8846 31.2656 17.6541 31.1701 17.4842 31.0002C17.3142 30.8302 17.2188 30.5997 17.2188 30.3594C17.2188 30.119 17.3142 29.8885 17.4842 29.7186C17.6541 29.5486 17.8846 29.4531 18.125 29.4531H32.0117C31.9232 28.8655 31.8506 28.2579 31.7994 27.6406H18.125C17.8846 27.6406 17.6541 27.5451 17.4842 27.3752C17.3142 27.2052 17.2188 26.9747 17.2188 26.7344C17.2188 26.494 17.3142 26.2635 17.4842 26.0936C17.6541 25.9236 17.8846 25.8281 18.125 25.8281H31.7316C31.7904 25.1264 32.122 24.4757 32.6552 24.0156H18.125C17.8846 24.0156 17.6541 23.9201 17.4842 23.7502C17.3142 23.5802 17.2188 23.3497 17.2188 23.1094C17.2188 22.869 17.3142 22.6385 17.4842 22.4686C17.6541 22.2986 17.8846 22.2031 18.125 22.2031H33.0778L33.0736 22.2152C33.3014 21.588 33.5745 20.9782 33.8908 20.3906H18.125C17.8846 20.3906 17.6541 20.2951 17.4842 20.1252C17.3142 19.9552 17.2188 19.7247 17.2188 19.4844C17.2188 19.244 17.3142 19.0135 17.4842 18.8436C17.6541 18.6736 17.8846 18.5781 18.125 18.5781H35.0052C36.7727 16.0576 39.9232 12.9497 45.3125 11.0804V9.05632C45.3109 8.33633 45.0237 7.64639 44.514 7.13786C44.0043 6.62932 43.3137 6.34374 42.5938 6.34375H15.4062C14.6863 6.34374 13.9957 6.62932 13.486 7.13785C12.9763 7.64638 12.6891 8.33632 12.6875 9.05631V40.7812C12.6875 41.0216 12.783 41.2521 12.9529 41.4221C13.1229 41.592 13.3534 41.6875 13.5938 41.6875Z" fill="#CE464A"/>
</g>
<defs>
<clipPath id="clip0_301_6149">
<rect width="58" height="58" fill="white"/>
</clipPath>
</defs>
</svg>
