<svg width="48" height="48" viewBox="0 0 48 48" fill="none" xmlns="http://www.w3.org/2000/svg">
<g clip-path="url(#clip0_301_6152)">
<path d="M44.25 30.3754H3.75C2.75544 30.3754 1.80161 30.7705 1.09835 31.4737C0.395088 32.177 0 33.1308 0 34.1254C0 35.1199 0.395088 36.0738 1.09835 36.777C1.80161 37.4803 2.75544 37.8754 3.75 37.8754H44.25C45.2446 37.8754 46.1984 37.4803 46.9016 36.777C47.6049 36.0738 48 35.1199 48 34.1254C48 33.1308 47.6049 32.177 46.9016 31.4737C46.1984 30.7705 45.2446 30.3754 44.25 30.3754ZM30.7489 34.8746H4.50147C4.30255 34.8746 4.11179 34.7956 3.97114 34.655C3.83048 34.5143 3.75147 34.3235 3.75147 34.1246C3.75147 33.9257 3.83048 33.7349 3.97114 33.5943C4.11179 33.4536 4.30255 33.3746 4.50147 33.3746H30.7489C30.9478 33.3746 31.1386 33.4536 31.2792 33.5943C31.4199 33.7349 31.4989 33.9257 31.4989 34.1246C31.4989 34.3235 31.4199 34.5143 31.2792 34.655C31.1386 34.7956 30.9478 34.8746 30.7489 34.8746ZM34.118 34.8746H33.7643C33.5654 34.8746 33.3746 34.7956 33.2339 34.655C33.0933 34.5143 33.0143 34.3235 33.0143 34.1246C33.0143 33.9257 33.0933 33.7349 33.2339 33.5943C33.3746 33.4536 33.5654 33.3746 33.7643 33.3746H34.118C34.3169 33.3746 34.5077 33.4536 34.6483 33.5943C34.789 33.7349 34.868 33.9257 34.868 34.1246C34.868 34.3235 34.789 34.5143 34.6483 34.655C34.5077 34.7956 34.3169 34.8746 34.118 34.8746ZM37.3 34.8746H36.9467C36.7477 34.8746 36.557 34.7956 36.4163 34.655C36.2757 34.5143 36.1967 34.3235 36.1967 34.1246C36.1967 33.9257 36.2757 33.7349 36.4163 33.5943C36.557 33.4536 36.7477 33.3746 36.9467 33.3746H37.3C37.499 33.3746 37.6897 33.4536 37.8304 33.5943C37.971 33.7349 38.05 33.9257 38.05 34.1246C38.05 34.3235 37.971 34.5143 37.8304 34.655C37.6897 34.7956 37.499 34.8746 37.3 34.8746ZM40.4824 34.8746H40.1287C39.9297 34.8746 39.739 34.7956 39.5983 34.655C39.4577 34.5143 39.3787 34.3235 39.3787 34.1246C39.3787 33.9257 39.4577 33.7349 39.5983 33.5943C39.739 33.4536 39.9297 33.3746 40.1287 33.3746H40.4824C40.6813 33.3746 40.8721 33.4536 41.0127 33.5943C41.1534 33.7349 41.2324 33.9257 41.2324 34.1246C41.2324 34.3235 41.1534 34.5143 41.0127 34.655C40.8721 34.7956 40.6813 34.8746 40.4824 34.8746ZM43.4985 34.8746H43.311C43.1121 34.8746 42.9213 34.7956 42.7807 34.655C42.64 34.5143 42.561 34.3235 42.561 34.1246C42.561 33.9257 42.64 33.7349 42.7807 33.5943C42.9213 33.4536 43.1121 33.3746 43.311 33.3746H43.4985C43.6974 33.3746 43.8882 33.4536 44.0289 33.5943C44.1695 33.7349 44.2485 33.9257 44.2485 34.1246C44.2485 34.3235 44.1695 34.5143 44.0289 34.655C43.8882 34.7956 43.6974 34.8746 43.4985 34.8746ZM19.875 19.125C19.875 19.9408 20.1169 20.7384 20.5702 21.4167C21.0234 22.0951 21.6677 22.6238 22.4214 22.936C23.1752 23.2482 24.0046 23.3299 24.8047 23.1707C25.6049 23.0116 26.3399 22.6187 26.9168 22.0418C27.4937 21.4649 27.8866 20.7299 28.0457 19.9297C28.2049 19.1296 28.1232 18.3002 27.811 17.5464C27.4988 16.7927 26.9701 16.1484 26.2917 15.6952C25.6134 15.2419 24.8158 15 24 15C22.9064 15.0012 21.8579 15.4362 21.0845 16.2095C20.3112 16.9829 19.8762 18.0314 19.875 19.125Z" fill="#CE464A"/>
<path d="M23.9996 28.1246C26.3857 28.122 28.6732 27.173 30.3604 25.4858C32.0476 23.7986 32.9966 21.511 32.9993 19.125C32.9992 18.7244 32.9728 18.3243 32.9202 17.9272C32.9071 17.8295 32.875 17.7354 32.8256 17.6502C32.7762 17.565 32.7105 17.4904 32.6322 17.4306C32.554 17.3707 32.4647 17.3269 32.3695 17.3016C32.2744 17.2763 32.1751 17.27 32.0775 17.283C31.9799 17.296 31.8858 17.3282 31.8006 17.3776C31.7154 17.427 31.6407 17.4927 31.5809 17.5709C31.5211 17.6492 31.4773 17.7384 31.4519 17.8336C31.4266 17.9288 31.4203 18.028 31.4333 18.1257C31.4773 18.457 31.4993 18.7908 31.4993 19.125C31.499 20.8266 30.92 22.4776 29.8573 23.8066C28.7947 25.1356 27.3116 26.0636 25.6518 26.4383C23.9919 26.8129 22.254 26.6119 20.7235 25.8681C19.193 25.1244 17.961 23.8823 17.2299 22.3457C16.4987 20.8092 16.312 19.0697 16.7002 17.413C17.0884 15.7562 18.0286 14.2808 19.3663 13.2291C20.704 12.1774 22.3596 11.612 24.0612 11.6257C25.7627 11.6394 27.409 12.2314 28.7296 13.3045C28.806 13.3669 28.894 13.4137 28.9884 13.4421C29.0829 13.4705 29.1821 13.48 29.2803 13.47C29.3784 13.4601 29.4737 13.4308 29.5605 13.384C29.6473 13.3371 29.7241 13.2736 29.7863 13.197C29.8486 13.1205 29.8951 13.0324 29.9232 12.9378C29.9514 12.8433 29.9606 12.7441 29.9503 12.6459C29.9401 12.5478 29.9106 12.4526 29.8635 12.3659C29.8164 12.2792 29.7526 12.2027 29.6759 12.1406C28.5578 11.2319 27.2378 10.6049 25.8269 10.3124C24.4161 10.0199 22.9557 10.0704 21.5684 10.4597C20.1811 10.8489 18.9076 11.5656 17.8549 12.5494C16.8022 13.5331 16.0011 14.7553 15.5189 16.1131C15.0367 17.4708 14.8876 18.9245 15.084 20.3519C15.2805 21.7793 15.8168 23.1386 16.6478 24.3157C17.4789 25.4927 18.5804 26.453 19.8597 27.1158C21.139 27.7786 22.5588 28.1246 23.9996 28.1246Z" fill="#CE464A"/>
<path d="M31.1406 15.75C31.5548 15.75 31.8906 15.4142 31.8906 15C31.8906 14.5858 31.5548 14.25 31.1406 14.25C30.7264 14.25 30.3906 14.5858 30.3906 15C30.3906 15.4142 30.7264 15.75 31.1406 15.75Z" fill="#CE464A"/>
</g>
<defs>
<clipPath id="clip0_301_6152">
<rect width="48" height="48" fill="white"/>
</clipPath>
</defs>
</svg>
